{"glyphs":{"0":{"ha":1375,"x_min":133,"x_max":1243,"o":"m 133 0 m 1093 693 q 840 847 1093 847 l 536 847 q 283 693 283 847 l 283 271 q 539 114 283 114 l 838 114 q 1093 271 1093 114 l 1093 693 m 540 0 q 133 267 133 0 l 133 696 q 533 961 133 961 l 843 961 q 1243 696 1243 961 l 1243 267 q 836 0 1243 0 l 540 0 z "},"1":{"ha":424,"x_min":138,"x_max":288,"o":"m 138 0 m 138 910 q 215 968 138 968 q 288 910 288 968 l 288 51 q 211 -7 288 -7 q 138 51 138 -7 l 138 910 z "},"2":{"ha":1414,"x_min":119,"x_max":1301,"o":"m 189 0 q 119 49 119 0 l 119 313 q 511 533 119 533 l 925 533 q 1151 644 1151 533 l 1151 733 q 921 847 1151 847 l 678 847 q 608 904 608 847 q 678 961 608 961 l 921 961 q 1301 739 1301 961 l 1301 635 q 924 422 1301 422 l 500 422 q 269 307 269 422 l 269 122 q 282 114 269 114 l 1231 114 q 1301 57 1301 114 q 1231 0 1301 0 l 189 0 z "},"3":{"ha":1392,"x_min":108,"x_max":1275,"o":"m 1275 211 q 919 0 1275 0 l 176 0 q 108 57 108 0 q 176 114 108 114 l 913 114 q 1125 224 1125 114 l 1125 313 q 913 429 1125 429 l 179 429 q 114 483 114 429 q 179 538 114 538 l 908 538 q 1111 650 1111 538 l 1111 728 q 899 847 1111 847 l 674 847 q 604 904 604 847 q 674 961 604 961 l 896 961 q 1261 732 1261 961 l 1261 653 q 1144 488 1261 543 q 1275 308 1275 429 l 1275 211 z "},"4":{"ha":1415,"x_min":119,"x_max":1279,"o":"m 1129 299 l 188 299 q 119 347 119 299 l 119 910 q 194 968 119 968 q 269 910 269 968 l 269 421 q 281 413 269 413 l 1129 413 l 1129 910 q 1206 968 1129 968 q 1279 910 1279 968 l 1279 51 q 1204 -7 1279 -7 q 1129 51 1129 -7 l 1129 299 z "},"5":{"ha":1422,"x_min":126,"x_max":1322,"o":"m 197 0 q 126 57 126 0 q 197 114 126 114 l 942 114 q 1172 228 1172 114 l 1172 379 q 947 489 1172 489 l 203 490 q 135 539 135 490 l 135 913 q 203 961 135 961 l 793 961 q 863 904 863 961 q 793 847 863 847 l 296 847 q 286 839 286 847 l 286 610 q 296 601 286 601 l 946 601 q 1322 388 1322 601 l 1322 222 q 943 0 1322 0 l 197 0 z "},"6":{"ha":1440,"x_min":133,"x_max":1340,"o":"m 1340 264 q 913 0 1340 0 l 544 0 q 133 272 133 0 l 133 703 q 533 961 133 961 l 778 961 q 847 904 847 961 q 778 847 847 847 l 536 847 q 283 700 283 847 l 283 626 l 908 626 q 1340 364 1340 626 l 1340 264 m 283 515 l 283 276 q 550 114 283 114 l 918 114 q 1189 268 1189 114 l 1189 363 q 914 515 1189 515 l 283 515 z "},"7":{"ha":1311,"x_min":71,"x_max":1242,"o":"m 544 29 q 513 1 529 10 q 471 -7 496 -7 q 393 47 393 -7 q 414 97 393 72 l 1040 847 l 142 847 q 71 904 71 847 q 142 961 71 961 l 1167 961 q 1242 903 1242 961 q 1235 872 1242 888 q 1210 835 1228 856 l 544 29 z "},"8":{"ha":1426,"x_min":118,"x_max":1310,"o":"m 1310 211 q 953 0 1310 0 l 474 0 q 118 211 118 0 l 118 308 q 247 488 118 429 q 132 653 132 544 l 132 732 q 497 961 132 961 l 931 961 q 1294 732 1294 961 l 1294 653 q 1179 488 1294 544 q 1310 308 1310 429 l 1310 211 m 1158 313 q 946 429 1158 429 l 481 429 q 268 313 268 429 l 268 224 q 481 114 268 114 l 946 114 q 1158 224 1158 114 l 1158 313 m 1144 728 q 932 847 1144 847 l 494 847 q 282 728 282 847 l 282 650 q 485 538 282 538 l 942 538 q 1144 650 1144 538 l 1144 728 z "},"9":{"ha":1376,"x_min":100,"x_max":1246,"o":"m 643 0 q 574 57 574 0 q 643 114 574 114 l 842 114 q 1096 261 1096 114 l 1096 354 l 532 354 q 100 618 100 354 l 100 697 q 528 961 100 961 l 833 961 q 1246 689 1246 961 l 1246 258 q 844 0 1246 0 l 643 0 m 250 619 q 526 467 250 467 l 1096 467 l 1096 685 q 826 847 1096 847 l 522 847 q 250 693 250 847 l 250 619 z "},"\u0017":{"ha":518,"x_min":0,"x_max":0,"o":""}," ":{"ha":518,"x_min":0,"x_max":0,"o":""},"!":{"ha":440,"x_min":138,"x_max":303,"o":"m 144 919 q 221 978 144 978 q 294 919 294 978 l 294 278 q 221 218 294 218 q 144 278 144 218 l 144 919 m 303 61 q 219 -7 303 -7 q 138 61 138 -7 q 221 129 138 129 q 303 61 303 129 z "},"\"":{"ha":696,"x_min":115,"x_max":581,"o":"m 115 586 m 581 640 q 513 586 581 586 q 442 640 442 586 l 442 932 q 510 988 442 988 q 581 932 581 988 l 581 640 m 254 640 q 186 586 254 586 q 115 640 115 586 l 115 932 q 183 988 115 988 q 254 932 254 988 l 254 640 z "},"#":{"ha":1211,"x_min":71,"x_max":1140,"o":"m 788 271 l 713 38 q 686 1 703 8 q 653 -7 669 -7 q 583 39 583 -7 q 585 53 583 46 q 592 74 588 61 l 656 271 l 415 271 l 340 38 q 314 1 331 8 q 281 -7 297 -7 q 211 39 211 -7 q 214 53 211 46 q 219 74 217 61 l 283 271 l 142 271 q 71 325 71 271 q 142 379 71 379 l 318 379 l 383 579 l 222 579 q 153 635 153 579 q 222 689 153 689 l 419 689 l 496 924 q 519 960 504 951 q 557 968 535 968 q 606 956 589 968 q 624 924 624 944 q 622 911 622 918 q 617 889 622 904 l 551 689 l 792 689 l 868 924 q 891 960 876 951 q 929 968 906 968 q 978 956 961 968 q 996 924 996 944 q 994 911 996 918 q 988 889 993 904 l 922 689 l 1071 689 q 1140 635 1140 689 q 1071 579 1140 579 l 888 579 l 822 379 l 990 379 q 1060 325 1060 379 q 990 271 1060 271 l 788 271 m 451 379 l 690 379 l 756 579 l 515 579 l 451 379 z "},"$":{"ha":1261,"x_min":104,"x_max":1161,"o":"m 1161 221 q 739 0 1161 0 l 699 0 l 699 -58 q 635 -111 699 -111 q 572 -58 572 -111 l 572 0 l 175 0 q 104 57 104 0 q 175 114 104 114 l 572 114 l 572 440 l 490 440 q 111 646 111 440 l 111 747 q 500 961 111 961 l 572 961 l 572 1019 q 635 1071 572 1071 q 699 1019 699 1071 l 699 553 l 742 553 q 1161 333 1161 553 l 1161 221 m 699 440 l 699 114 l 739 114 q 1010 229 1010 114 l 1010 328 q 753 440 1010 440 l 699 440 m 261 656 q 489 553 261 553 l 572 553 l 572 847 l 501 847 q 261 742 261 847 l 261 656 z "},"%":{"ha":1693,"x_min":85,"x_max":1607,"o":"m 85 0 m 465 17 q 439 -2 451 3 q 414 -7 426 -7 q 372 6 388 -7 q 356 42 356 18 q 375 81 356 61 l 1221 944 q 1271 968 1244 968 q 1315 956 1299 968 q 1331 919 1331 943 q 1313 881 1331 903 l 465 17 m 1490 375 q 1379 440 1490 440 l 1221 440 q 1114 375 1114 440 l 1114 161 q 1235 89 1114 89 l 1371 89 q 1490 161 1490 89 l 1490 375 m 1221 0 q 997 150 997 0 l 997 386 q 1218 529 997 529 l 1386 529 q 1607 386 1607 529 l 1607 150 q 1383 0 1607 0 l 1221 0 m 578 807 q 467 872 578 872 l 308 872 q 201 807 201 872 l 201 593 q 322 521 201 521 l 458 521 q 578 593 578 521 l 578 807 m 308 432 q 85 582 85 432 l 85 818 q 306 961 85 961 l 474 961 q 694 818 694 961 l 694 582 q 471 432 694 432 l 308 432 z "},"&":{"ha":1396,"x_min":100,"x_max":1301,"o":"m 1085 64 q 956 16 1029 32 q 794 0 882 0 l 438 0 q 100 208 100 0 l 100 303 q 144 419 100 369 q 276 497 189 469 l 344 518 l 274 563 q 219 622 236 586 q 201 707 201 658 l 201 794 q 515 961 201 961 l 676 961 q 982 794 982 961 l 982 711 q 829 553 982 599 l 628 492 l 1067 224 q 1088 325 1088 267 l 1088 458 q 1161 515 1088 515 q 1235 458 1235 515 l 1235 338 q 1182 154 1235 228 l 1265 104 q 1293 81 1285 93 q 1301 50 1301 69 q 1283 8 1301 24 q 1229 -7 1265 -7 q 1198 -2 1211 -7 q 1169 13 1185 3 l 1085 64 m 814 113 q 968 136 904 113 l 468 443 l 347 406 q 249 299 249 375 l 249 217 q 442 113 249 113 l 814 113 m 347 717 q 389 636 347 661 l 503 567 l 754 644 q 836 718 836 669 l 836 776 q 678 850 836 850 l 513 850 q 347 776 347 850 l 347 717 z "},"'":{"ha":371,"x_min":115,"x_max":254,"o":"m 254 640 q 186 586 254 586 q 115 640 115 586 l 115 932 q 183 988 115 988 q 254 932 254 988 l 254 640 z "},"(":{"ha":699,"x_min":214,"x_max":667,"o":"m 522 -315 q 214 53 214 -315 l 214 886 q 522 1256 214 1256 l 606 1256 q 667 1201 667 1256 q 606 1146 667 1146 l 517 1146 q 339 890 339 1146 l 339 50 q 517 -207 339 -207 l 606 -207 q 667 -261 667 -207 q 606 -315 667 -315 l 522 -315 z "},")":{"ha":699,"x_min":32,"x_max":485,"o":"m 176 1256 q 485 888 485 1256 l 485 54 q 176 -315 485 -315 l 93 -315 q 32 -261 32 -315 q 93 -206 32 -206 l 182 -206 q 360 50 360 -206 l 360 890 q 182 1147 360 1147 l 93 1147 q 32 1201 32 1147 q 93 1256 32 1256 l 176 1256 z "},"*":{"ha":818,"x_min":68,"x_max":747,"o":"m 643 433 q 610 455 631 440 q 563 488 589 469 q 508 527 536 506 q 451 571 479 549 q 466 464 461 506 q 474 397 471 422 q 477 360 476 372 q 478 344 478 349 q 463 294 478 313 q 408 276 449 276 q 353 294 368 276 q 339 344 339 313 q 340 360 339 349 q 343 397 340 372 q 351 465 346 422 q 367 572 357 507 q 288 513 325 540 q 221 465 251 485 q 169 433 190 444 q 138 422 147 422 q 113 429 125 422 q 90 448 100 436 q 74 474 81 460 q 68 501 68 488 q 77 531 68 517 q 101 556 86 546 q 121 567 108 561 q 157 581 133 572 q 220 606 181 590 q 322 646 260 621 q 257 672 290 658 q 193 699 224 686 q 138 722 163 711 q 100 742 113 733 q 68 794 68 760 q 75 824 68 808 q 92 850 82 839 q 113 869 101 861 q 136 876 125 876 q 167 864 144 876 q 222 830 190 851 q 291 781 253 808 q 367 722 329 753 q 351 831 357 789 q 343 899 346 874 q 340 938 340 925 q 339 954 339 950 q 353 1004 339 986 q 408 1022 368 1022 q 463 1004 449 1022 q 478 953 478 986 q 477 937 478 949 q 474 900 476 925 q 466 833 471 875 q 451 725 461 790 q 526 783 489 756 q 594 832 563 811 q 648 865 625 853 q 681 876 671 876 q 702 869 690 876 q 724 850 714 861 q 740 824 733 839 q 747 794 747 808 q 731 757 747 774 q 683 724 715 740 q 604 688 651 707 q 494 646 557 669 q 594 606 556 621 q 658 581 633 590 q 694 567 682 572 q 714 556 706 561 q 738 531 729 546 q 747 501 747 517 q 741 474 747 488 q 724 448 735 460 q 701 429 714 436 q 678 422 689 422 q 662 425 669 422 q 643 433 654 428 z "},"+":{"ha":1007,"x_min":90,"x_max":915,"o":"m 440 429 l 160 429 q 90 485 90 429 q 160 539 90 539 l 440 539 l 440 813 q 503 874 440 874 q 567 813 567 874 l 567 539 l 846 539 q 915 485 915 539 q 846 429 915 429 l 567 429 l 567 153 q 503 92 567 92 q 440 153 440 92 l 440 429 z "},",":{"ha":400,"x_min":108,"x_max":281,"o":"m 228 -128 q 163 -176 213 -176 q 108 -129 108 -176 q 113 -76 108 -114 l 126 61 q 147 110 129 93 q 203 126 165 126 q 281 64 281 126 q 278 41 281 53 q 269 11 275 29 l 228 -128 z "},"-":{"ha":767,"x_min":85,"x_max":682,"o":"m 153 372 q 85 429 85 372 q 153 482 85 482 l 613 482 q 682 429 682 482 q 613 372 682 372 l 153 372 z "},".":{"ha":404,"x_min":119,"x_max":285,"o":"m 285 61 q 201 -7 285 -7 q 119 61 119 -7 q 203 129 119 129 q 285 61 285 129 z "},"/":{"ha":696,"x_min":32,"x_max":664,"o":"m 538 1128 q 601 1171 554 1171 q 647 1160 629 1171 q 664 1125 664 1149 q 663 1110 664 1118 q 656 1090 661 1103 l 158 -196 q 96 -239 140 -239 q 32 -193 32 -239 q 33 -178 32 -186 q 40 -158 35 -171 l 538 1128 z "},":":{"ha":404,"x_min":119,"x_max":285,"o":"m 119 76 m 285 543 q 201 475 285 475 q 119 543 119 475 q 203 611 119 611 q 285 543 285 611 m 285 144 q 201 76 285 76 q 119 144 119 76 q 203 213 119 213 q 285 144 285 213 z "},";":{"ha":404,"x_min":108,"x_max":285,"o":"m 108 0 m 228 -44 q 163 -93 213 -93 q 108 -46 108 -93 q 113 7 108 -31 l 126 144 q 147 193 129 176 q 203 210 165 210 q 281 147 281 210 q 278 124 281 136 q 269 94 275 113 l 228 -44 m 285 543 q 201 475 285 475 q 119 543 119 475 q 203 611 119 611 q 285 543 285 611 z "},"<":{"ha":999,"x_min":90,"x_max":907,"o":"m 136 419 q 90 479 90 438 q 136 539 90 521 l 808 794 q 846 803 825 803 q 891 790 875 803 q 907 753 907 776 q 898 725 907 738 q 869 706 889 713 l 281 479 l 869 251 q 907 204 907 236 q 891 169 907 182 q 846 156 875 156 q 808 163 826 156 l 136 419 z "},"=":{"ha":1007,"x_min":90,"x_max":915,"o":"m 160 285 q 90 340 90 285 q 160 393 90 393 l 846 393 q 915 340 915 393 q 846 285 915 285 l 160 285 m 160 574 q 90 629 90 574 q 160 682 90 682 l 846 682 q 915 629 915 682 q 846 574 915 574 l 160 574 z "},">":{"ha":999,"x_min":90,"x_max":907,"o":"m 861 547 q 897 523 886 538 q 907 488 907 508 q 897 453 907 468 q 861 428 886 438 l 190 172 q 151 164 171 164 q 106 177 122 164 q 90 214 90 190 q 129 261 90 244 l 718 488 l 129 715 q 90 763 90 729 q 106 798 90 785 q 151 811 122 811 q 190 804 169 811 l 861 547 z "},"?":{"ha":1031,"x_min":146,"x_max":929,"o":"m 929 663 q 589 475 929 475 l 503 475 q 297 371 297 475 l 297 269 q 229 218 297 218 q 160 271 160 218 l 160 392 q 483 581 160 581 l 579 581 q 783 669 783 581 l 783 768 q 579 857 783 857 l 413 857 q 343 914 343 857 q 413 971 343 971 l 572 971 q 929 775 929 971 l 929 663 m 313 61 q 229 -7 313 -7 q 146 61 146 -7 q 229 129 146 129 q 313 61 313 129 z "},"@":{"ha":1315,"x_min":138,"x_max":1178,"o":"m 681 99 q 418 294 418 99 l 418 403 q 667 592 418 592 l 829 592 q 882 550 882 592 l 882 190 l 915 190 q 1063 297 1063 190 l 1063 668 q 915 764 1063 764 l 388 764 q 253 668 253 764 l 253 25 q 401 -81 253 -81 l 515 -81 q 569 -128 569 -81 q 515 -174 569 -174 l 390 -174 q 138 22 138 -174 l 138 669 q 386 857 138 857 l 915 857 q 1178 669 1178 857 l 1178 294 q 915 99 1178 99 l 681 99 m 533 296 q 685 190 533 190 l 768 190 l 768 492 q 757 499 768 499 l 671 499 q 533 401 533 499 l 533 296 z "},"A":{"ha":1439,"x_min":78,"x_max":1363,"o":"m 1071 257 l 369 257 l 226 33 q 154 -7 200 -7 q 99 8 119 -7 q 78 50 78 22 q 81 70 78 61 q 93 93 83 79 l 643 931 q 676 958 656 950 q 719 968 696 967 q 793 931 768 968 l 1344 94 q 1359 71 1356 81 q 1363 50 1363 61 q 1342 8 1363 22 q 1286 -7 1321 -7 q 1215 33 1242 -7 l 1071 257 m 439 364 l 1003 364 l 719 803 l 439 364 z "},"B":{"ha":1390,"x_min":138,"x_max":1275,"o":"m 1275 211 q 918 0 1275 0 l 204 0 q 138 54 138 0 l 138 907 q 204 961 138 961 l 896 961 q 1260 732 1260 961 l 1260 653 q 1144 488 1260 544 q 1275 308 1275 429 l 1275 211 m 1125 314 q 913 431 1125 431 l 288 431 l 288 124 q 299 114 288 114 l 913 114 q 1125 224 1125 114 l 1125 314 m 1111 728 q 897 847 1111 847 l 299 847 q 288 838 288 847 l 288 538 l 908 538 q 1111 650 1111 538 l 1111 728 z "},"C":{"ha":1240,"x_min":133,"x_max":1135,"o":"m 540 0 q 133 267 133 0 l 133 699 q 533 961 133 961 l 1065 961 q 1135 904 1135 961 q 1065 847 1135 847 l 536 847 q 283 696 283 847 l 283 271 q 547 114 283 114 l 1065 114 q 1135 57 1135 114 q 1065 0 1135 0 l 540 0 z "},"D":{"ha":1417,"x_min":138,"x_max":1286,"o":"m 1136 689 q 860 847 1136 847 l 299 847 q 288 839 288 847 l 288 122 q 299 114 288 114 l 858 114 q 1136 272 1136 114 l 1136 689 m 204 0 q 138 49 138 0 l 138 913 q 201 961 138 961 l 854 961 q 1286 693 1286 961 l 1286 268 q 854 0 1286 0 l 204 0 z "},"E":{"ha":1290,"x_min":133,"x_max":1182,"o":"m 540 0 q 133 267 133 0 l 133 699 q 533 961 133 961 l 732 961 q 801 904 801 961 q 732 847 801 847 l 536 847 q 283 696 283 847 l 283 539 l 1111 539 q 1178 485 1178 539 q 1111 431 1178 431 l 283 431 l 283 271 q 547 114 283 114 l 1111 114 q 1182 57 1182 114 q 1111 0 1182 0 l 540 0 z "},"F":{"ha":1261,"x_min":135,"x_max":1176,"o":"m 135 703 q 535 961 135 961 l 699 961 q 768 904 768 961 q 699 847 768 847 l 536 847 q 285 700 285 847 l 285 532 l 1108 532 q 1176 475 1176 532 q 1108 418 1176 418 l 285 418 l 285 51 q 210 -7 285 -7 q 135 51 135 -7 l 135 703 z "},"G":{"ha":1393,"x_min":133,"x_max":1261,"o":"m 540 0 q 133 272 133 0 l 133 703 q 533 961 133 961 l 724 961 q 794 904 794 961 q 724 847 794 847 l 536 847 q 283 700 283 847 l 283 276 q 547 114 283 114 l 847 114 q 1111 276 1111 114 l 1111 539 q 1186 597 1111 597 q 1261 539 1261 597 l 1261 272 q 854 0 1261 0 l 540 0 z "},"H":{"ha":1419,"x_min":138,"x_max":1282,"o":"m 1132 418 l 288 418 l 288 51 q 211 -7 288 -7 q 138 51 138 -7 l 138 910 q 215 968 138 968 q 288 910 288 968 l 288 532 l 1132 532 l 1132 911 q 1206 968 1132 968 q 1282 911 1282 968 l 1282 51 q 1206 -7 1282 -7 q 1132 51 1132 -7 l 1132 418 z "},"I":{"ha":424,"x_min":138,"x_max":288,"o":"m 138 910 q 215 968 138 968 q 288 910 288 968 l 288 51 q 211 -7 288 -7 q 138 51 138 -7 l 138 910 z "},"J":{"ha":788,"x_min":71,"x_max":653,"o":"m 140 0 q 71 57 71 0 q 140 114 71 114 l 239 114 q 503 276 503 114 l 503 910 q 578 968 503 968 q 653 910 653 968 l 653 272 q 246 0 653 0 l 140 0 z "},"K":{"ha":1251,"x_min":138,"x_max":1149,"o":"m 288 401 l 288 51 q 213 -7 288 -7 q 138 51 138 -7 l 138 911 q 213 968 138 968 q 288 911 288 968 l 288 569 l 999 951 q 1057 968 1029 968 q 1109 953 1090 968 q 1128 911 1128 939 q 1120 883 1128 897 q 1090 857 1113 868 l 378 489 l 1104 110 q 1140 83 1131 96 q 1149 51 1149 71 q 1128 8 1149 24 q 1071 -7 1108 -7 q 1046 -4 1060 -7 q 1013 11 1032 -1 l 288 401 z "},"L":{"ha":1267,"x_min":138,"x_max":1196,"o":"m 544 0 q 138 272 138 0 l 138 910 q 211 968 138 968 q 288 910 288 968 l 288 276 q 551 114 288 114 l 1126 114 q 1196 57 1196 114 q 1126 0 1196 0 l 544 0 z "},"M":{"ha":1785,"x_min":138,"x_max":1649,"o":"m 1499 714 l 969 31 q 940 4 958 15 q 892 -7 921 -7 q 844 4 863 -7 q 814 31 825 15 l 288 713 l 288 51 q 211 -7 288 -7 q 138 51 138 -7 l 138 904 q 213 968 138 968 q 264 957 244 968 q 299 926 283 946 l 892 156 l 1488 925 q 1522 956 1503 944 q 1572 968 1540 968 q 1649 904 1649 968 l 1649 51 q 1574 -7 1649 -7 q 1499 51 1499 -7 l 1499 714 z "},"N":{"ha":1415,"x_min":138,"x_max":1276,"o":"m 215 968 q 254 960 238 968 q 289 938 271 953 l 1126 199 l 1126 911 q 1201 968 1126 968 q 1276 911 1276 968 l 1276 51 q 1197 -7 1276 -7 q 1158 1 1174 -7 q 1124 25 1142 10 l 288 764 l 288 51 q 211 -7 288 -7 q 138 51 138 -7 l 138 908 q 215 968 138 968 z "},"O":{"ha":1375,"x_min":133,"x_max":1243,"o":"m 1093 693 q 840 847 1093 847 l 536 847 q 283 693 283 847 l 283 271 q 539 114 283 114 l 838 114 q 1093 271 1093 114 l 1093 693 m 540 0 q 133 267 133 0 l 133 696 q 533 961 133 961 l 843 961 q 1243 696 1243 961 l 1243 267 q 836 0 1243 0 l 540 0 z "},"P":{"ha":1385,"x_min":138,"x_max":1286,"o":"m 1286 578 q 854 310 1286 310 l 288 310 l 288 51 q 211 -7 288 -7 q 138 51 138 -7 l 138 913 q 201 961 138 961 l 854 961 q 1286 693 1286 961 l 1286 578 m 288 424 l 858 424 q 1136 582 1136 424 l 1136 689 q 860 847 1136 847 l 299 847 q 288 838 288 847 l 288 424 z "},"Q":{"ha":1375,"x_min":133,"x_max":1243,"o":"m 922 6 q 881 3 903 4 q 836 3 860 3 l 540 3 q 133 271 133 3 l 133 699 q 533 961 133 961 l 843 961 q 1243 699 1243 961 l 1243 271 q 1101 47 1243 111 l 1200 -21 q 1243 -75 1243 -47 q 1222 -117 1243 -103 q 1161 -132 1200 -132 q 1137 -128 1151 -132 q 1103 -112 1122 -125 l 922 6 m 1093 696 q 840 847 1093 847 l 536 847 q 283 696 283 847 l 283 271 q 547 114 283 114 l 829 114 q 1093 271 1093 114 l 1093 696 z "},"R":{"ha":1396,"x_min":138,"x_max":1286,"o":"m 288 376 l 288 51 q 211 -7 288 -7 q 138 51 138 -7 l 138 913 q 201 961 138 961 l 854 961 q 1286 725 1286 961 l 1286 622 q 854 390 1286 390 l 522 390 l 1167 107 q 1208 53 1208 89 q 1188 9 1208 25 q 1132 -7 1168 -7 q 1106 -4 1117 -7 q 1079 7 1096 -1 l 288 376 m 288 496 l 858 496 q 1136 622 1136 496 l 1136 722 q 860 847 1136 847 l 299 847 q 288 838 288 847 l 288 496 z "},"S":{"ha":1261,"x_min":104,"x_max":1161,"o":"m 1161 221 q 739 0 1161 0 l 175 0 q 104 57 104 0 q 175 114 104 114 l 739 114 q 1010 229 1010 114 l 1010 328 q 753 440 1010 440 l 490 440 q 111 646 111 440 l 111 747 q 500 961 111 961 l 656 961 q 725 904 725 961 q 656 847 725 847 l 501 847 q 261 742 261 847 l 261 656 q 489 553 261 553 l 742 553 q 1161 333 1161 553 l 1161 221 z "},"T":{"ha":1189,"x_min":71,"x_max":1118,"o":"m 519 847 l 140 847 q 71 904 71 847 q 140 961 71 961 l 1047 961 q 1118 906 1118 961 q 1047 847 1118 847 l 669 847 l 669 51 q 596 -7 669 -7 q 519 51 519 -7 l 519 847 z "},"U":{"ha":1401,"x_min":135,"x_max":1265,"o":"m 542 0 q 135 272 135 0 l 135 910 q 210 968 135 968 q 285 910 285 968 l 285 276 q 549 114 285 114 l 851 114 q 1114 276 1114 114 l 1114 910 q 1190 968 1114 968 q 1265 910 1265 968 l 1265 272 q 858 0 1265 0 l 542 0 z "},"V":{"ha":1439,"x_min":78,"x_max":1363,"o":"m 154 968 q 224 928 199 968 l 718 157 l 1214 928 q 1285 968 1239 968 q 1342 953 1321 968 q 1363 911 1363 939 q 1346 867 1363 893 l 796 31 q 763 2 783 11 q 721 -7 743 -7 q 646 31 671 -7 l 93 868 q 81 891 83 882 q 78 911 78 900 q 98 953 78 939 q 154 968 118 968 z "},"W":{"ha":1817,"x_min":79,"x_max":1738,"o":"m 908 968 q 958 955 940 968 q 986 919 975 942 l 1311 208 l 1588 922 q 1663 968 1604 968 q 1717 953 1696 968 q 1738 910 1738 938 q 1736 894 1738 903 q 1728 871 1735 886 l 1399 50 q 1368 6 1385 19 q 1318 -7 1351 -7 q 1264 8 1282 -7 q 1233 50 1246 22 l 908 753 l 583 50 q 553 8 571 22 q 499 -7 535 -7 q 449 6 465 -7 q 418 50 432 19 l 89 871 q 81 894 82 886 q 79 910 79 903 q 99 953 79 938 q 154 968 119 968 q 202 957 185 968 q 229 922 219 946 l 504 210 l 831 919 q 858 955 842 942 q 908 968 875 968 z "},"X":{"ha":1346,"x_min":103,"x_max":1238,"o":"m 668 393 l 242 17 q 209 -3 225 1 q 178 -7 193 -7 q 123 8 143 -7 q 103 47 103 22 q 109 75 103 64 q 133 101 115 86 l 565 483 l 142 856 q 117 885 122 872 q 111 908 111 897 q 131 952 111 936 q 188 968 151 968 q 220 963 206 968 q 251 943 235 958 l 674 571 l 1097 943 q 1161 968 1126 968 q 1214 953 1193 968 q 1235 914 1235 939 q 1204 860 1235 886 l 776 481 l 1206 104 q 1232 74 1226 85 q 1238 53 1238 63 q 1217 9 1238 25 q 1160 -7 1196 -7 q 1127 -2 1142 -7 q 1096 18 1113 3 l 668 393 z "},"Y":{"ha":1246,"x_min":67,"x_max":1176,"o":"m 697 421 l 697 51 q 622 -7 697 -7 q 546 51 546 -7 l 546 421 l 92 861 q 73 883 79 872 q 67 908 67 893 q 88 952 67 936 q 144 968 108 968 q 181 961 167 968 q 210 939 194 954 l 622 531 l 1036 940 q 1065 961 1050 954 q 1103 968 1079 968 q 1156 952 1135 968 q 1176 908 1176 936 q 1169 883 1176 893 q 1151 861 1163 872 l 697 421 z "},"Z":{"ha":1281,"x_min":117,"x_max":1171,"o":"m 193 0 q 135 15 154 0 q 117 58 117 31 q 125 92 117 78 q 154 126 133 107 l 943 847 l 201 847 q 128 904 128 847 q 203 961 128 961 l 1096 961 q 1171 907 1171 961 q 1160 873 1171 889 q 1132 842 1149 857 l 339 114 l 1096 114 q 1171 57 1171 114 q 1094 0 1171 0 l 193 0 z "},"[":{"ha":699,"x_min":214,"x_max":667,"o":"m 275 -315 q 214 -267 214 -315 l 214 1207 q 275 1256 214 1256 l 606 1256 q 667 1201 667 1256 q 606 1146 667 1146 l 353 1146 q 339 1135 339 1146 l 339 -194 q 353 -207 339 -207 l 606 -207 q 667 -261 667 -207 q 606 -315 667 -315 l 275 -315 z "},"\\":{"ha":696,"x_min":32,"x_max":664,"o":"m 656 -158 q 661 -178 660 -171 q 664 -193 663 -186 q 600 -239 664 -239 q 538 -196 553 -239 l 40 1090 q 33 1110 35 1103 q 32 1125 32 1118 q 49 1160 32 1149 q 94 1171 65 1171 q 158 1128 142 1171 l 656 -158 z "},"]":{"ha":699,"x_min":32,"x_max":485,"o":"m 424 1256 q 485 1207 485 1256 l 485 -267 q 424 -315 485 -315 l 93 -315 q 32 -261 32 -315 q 93 -206 32 -206 l 346 -206 q 360 -194 360 -206 l 360 1135 q 346 1147 360 1147 l 93 1147 q 32 1201 32 1147 q 93 1256 32 1256 l 424 1256 z "},"^":{"ha":999,"x_min":117,"x_max":876,"o":"m 497 861 l 231 381 q 175 349 211 349 q 133 361 150 349 q 117 396 117 374 q 119 411 117 404 q 125 425 122 418 l 438 988 q 463 1014 447 1006 q 497 1022 478 1022 q 557 988 536 1022 l 868 425 q 876 396 876 413 q 861 361 876 374 q 819 349 846 349 q 765 381 782 349 l 497 861 z "},"_":{"ha":990,"x_min":-64,"x_max":1051,"o":"m 3 -225 q -64 -168 -64 -225 q 3 -114 -64 -114 l 986 -114 q 1051 -169 1051 -114 q 986 -225 1051 -225 l 3 -225 z "},"`":{"ha":515,"x_min":61,"x_max":454,"o":"m 85 978 q 67 996 74 988 q 63 1019 61 1004 q 140 1072 63 1072 q 175 1068 160 1072 q 201 1050 190 1064 l 438 808 q 454 772 454 788 q 392 724 454 724 q 364 728 376 724 q 338 746 351 733 l 85 978 z "},"a":{"ha":1256,"x_min":96,"x_max":1128,"o":"m 393 0 q 96 185 96 0 l 96 264 q 393 447 96 447 l 983 447 l 983 468 q 813 565 983 565 l 617 565 q 547 619 547 565 q 617 675 547 675 l 813 675 q 1128 468 1128 675 l 1128 196 q 825 0 1128 0 l 393 0 m 817 108 q 983 200 983 108 l 983 351 l 404 351 q 242 267 242 351 l 242 194 q 404 108 242 108 l 817 108 z "},"b":{"ha":1254,"x_min":131,"x_max":1126,"o":"m 489 0 q 131 219 131 0 l 131 929 q 204 988 131 988 q 278 929 278 988 l 278 675 l 768 675 q 1126 454 1126 675 l 1126 219 q 768 0 1126 0 l 489 0 m 278 561 l 278 218 q 483 113 278 113 l 772 113 q 978 218 978 113 l 978 456 q 772 561 978 561 l 278 561 z "},"c":{"ha":1142,"x_min":126,"x_max":1039,"o":"m 486 0 q 126 219 126 0 l 126 454 q 486 675 126 675 l 967 675 q 1039 618 1039 675 q 967 561 1039 561 l 481 561 q 275 456 275 561 l 275 218 q 481 113 275 113 l 967 113 q 1039 57 1039 113 q 967 0 1039 0 l 486 0 z "},"d":{"ha":1265,"x_min":132,"x_max":1129,"o":"m 490 0 q 132 219 132 0 l 132 454 q 490 675 132 675 l 981 675 l 981 929 q 1056 988 981 988 q 1129 929 1129 988 l 1129 219 q 771 0 1129 0 l 490 0 m 775 113 q 981 218 981 113 l 981 561 l 486 561 q 281 456 281 561 l 281 218 q 486 113 281 113 l 775 113 z "},"e":{"ha":1225,"x_min":126,"x_max":1126,"o":"m 272 292 l 272 207 q 465 108 272 108 l 671 108 q 740 54 740 108 q 671 0 740 0 l 465 0 q 126 206 126 0 l 126 478 q 429 675 126 675 l 831 675 q 1126 497 1126 675 l 1126 342 q 1063 292 1126 292 l 272 292 m 272 388 l 969 388 q 981 397 981 388 l 981 469 q 819 565 981 565 l 438 565 q 272 469 272 565 l 272 388 z "},"f":{"ha":739,"x_min":133,"x_max":660,"o":"m 281 561 l 281 51 q 210 -7 281 -7 q 133 51 133 -7 l 133 776 q 472 985 133 985 l 590 985 q 660 931 660 985 q 590 875 660 875 l 472 875 q 281 778 281 875 l 281 669 l 590 669 q 660 615 660 669 q 590 561 660 561 l 281 561 z "},"g":{"ha":1256,"x_min":126,"x_max":1124,"o":"m 575 -233 q 506 -179 506 -233 q 575 -125 506 -125 l 785 -125 q 976 -28 976 -125 l 976 21 l 486 21 q 126 240 126 21 l 126 454 q 486 675 126 675 l 764 675 q 1124 454 1124 675 l 1124 -26 q 785 -233 1124 -233 l 575 -233 m 275 222 q 472 128 275 128 l 976 128 l 976 457 q 779 561 976 561 l 472 561 q 275 457 275 561 l 275 222 z "},"h":{"ha":1258,"x_min":133,"x_max":1129,"o":"m 981 457 q 785 561 981 561 l 281 561 l 281 51 q 207 -7 281 -7 q 133 51 133 -7 l 133 929 q 207 988 133 988 q 281 929 281 988 l 281 675 l 771 675 q 1129 454 1129 675 l 1129 51 q 1056 -7 1129 -7 q 981 51 981 -7 l 981 457 z "},"i":{"ha":414,"x_min":126,"x_max":288,"o":"m 126 0 m 133 624 q 207 682 133 682 q 281 624 281 682 l 281 51 q 207 -7 281 -7 q 133 51 133 -7 l 133 624 m 288 847 q 207 781 288 781 q 126 847 126 781 q 207 914 126 914 q 288 847 288 914 z "},"j":{"ha":679,"x_min":-4,"x_max":554,"o":"m 0 0 m 68 -233 q -4 -176 -4 -233 q 68 -121 -4 -121 l 192 -121 q 399 -15 399 -121 l 399 624 q 472 682 399 682 q 546 624 546 682 l 546 -14 q 186 -233 546 -233 l 68 -233 m 554 847 q 474 781 554 781 q 393 847 393 781 q 474 914 393 914 q 554 847 554 914 z "},"k":{"ha":1114,"x_min":133,"x_max":1011,"o":"m 281 267 l 281 51 q 207 -7 281 -7 q 133 51 133 -7 l 133 931 q 207 988 133 988 q 281 931 281 988 l 281 425 l 872 664 q 907 678 893 672 q 938 682 921 683 q 992 667 972 682 q 1011 625 1011 653 q 1001 593 1011 606 q 964 569 990 581 l 386 346 l 967 104 q 1003 78 994 92 q 1011 50 1011 64 q 933 -7 1011 -7 q 903 -2 915 -7 q 865 14 890 3 l 281 267 z "},"l":{"ha":414,"x_min":133,"x_max":281,"o":"m 133 929 q 207 988 133 988 q 281 929 281 988 l 281 51 q 207 -7 281 -7 q 133 51 133 -7 l 133 929 z "},"m":{"ha":1575,"x_min":131,"x_max":1446,"o":"m 1299 460 q 1132 561 1299 561 l 1032 561 q 860 460 860 561 l 860 51 q 788 -7 860 -7 q 714 51 714 -7 l 714 460 q 543 561 714 561 l 443 561 q 278 460 278 561 l 278 51 q 204 -7 278 -7 q 131 51 131 -7 l 131 460 q 447 675 131 675 l 549 675 q 788 594 704 675 q 1026 675 872 675 l 1128 675 q 1446 460 1446 675 l 1446 51 q 1372 -7 1446 -7 q 1299 51 1299 -7 l 1299 460 z "},"n":{"ha":1246,"x_min":131,"x_max":1115,"o":"m 968 454 q 761 561 968 561 l 483 561 q 278 454 278 561 l 278 51 q 204 -7 278 -7 q 131 51 131 -7 l 131 454 q 489 675 131 675 l 757 675 q 1115 454 1115 675 l 1115 51 q 1042 -7 1115 -7 q 968 51 968 -7 l 968 454 z "},"o":{"ha":1240,"x_min":126,"x_max":1114,"o":"m 486 0 q 126 219 126 0 l 126 454 q 486 675 126 675 l 754 675 q 1114 454 1114 675 l 1114 219 q 754 0 1114 0 l 486 0 m 965 456 q 758 561 965 561 l 481 561 q 275 456 275 561 l 275 218 q 481 113 275 113 l 758 113 q 965 218 965 113 l 965 456 z "},"p":{"ha":1254,"x_min":131,"x_max":1126,"o":"m 278 0 l 278 -183 q 204 -242 278 -242 q 131 -183 131 -242 l 131 454 q 489 675 131 675 l 768 675 q 1126 454 1126 675 l 1126 219 q 768 0 1126 0 l 278 0 m 278 113 l 772 113 q 978 218 978 113 l 978 456 q 772 561 978 561 l 483 561 q 278 456 278 561 l 278 113 z "},"q":{"ha":1256,"x_min":126,"x_max":1124,"o":"m 976 0 l 486 0 q 126 219 126 0 l 126 454 q 486 675 126 675 l 765 675 q 1124 454 1124 675 l 1124 -183 q 1050 -242 1124 -242 q 976 -183 976 -242 l 976 0 m 275 218 q 481 113 275 113 l 976 113 l 976 456 q 771 561 976 561 l 481 561 q 275 456 275 561 l 275 218 z "},"r":{"ha":753,"x_min":131,"x_max":667,"o":"m 131 454 q 489 675 131 675 l 596 675 q 667 618 667 675 q 596 561 667 561 l 483 561 q 278 457 278 561 l 278 51 q 204 -7 278 -7 q 131 51 131 -7 l 131 454 z "},"s":{"ha":1136,"x_min":99,"x_max":1026,"o":"m 1026 156 q 710 0 1026 0 l 168 0 q 99 54 99 0 q 168 108 99 108 l 710 108 q 881 156 881 108 l 881 233 q 710 281 881 281 l 424 281 q 107 432 107 281 l 107 497 q 433 675 107 675 l 624 675 q 694 619 694 675 q 676 578 694 592 q 624 565 657 565 l 433 565 q 251 497 251 565 l 251 436 q 432 379 251 379 l 718 379 q 1026 238 1026 379 l 1026 156 z "},"t":{"ha":750,"x_min":85,"x_max":665,"o":"m 357 561 l 357 51 q 285 -7 357 -7 q 210 51 210 -7 l 210 561 l 153 561 q 85 615 85 561 q 153 669 85 669 l 210 669 l 210 797 q 282 856 210 856 q 357 797 357 856 l 357 669 l 596 669 q 665 615 665 669 q 596 561 665 561 l 357 561 z "},"u":{"ha":1232,"x_min":131,"x_max":1101,"o":"m 489 0 q 131 219 131 0 l 131 624 q 204 682 131 682 q 278 624 278 682 l 278 218 q 483 113 278 113 l 747 113 q 953 218 953 113 l 953 624 q 1026 682 953 682 q 1101 624 1101 682 l 1101 219 q 743 0 1101 0 l 489 0 z "},"v":{"ha":1254,"x_min":71,"x_max":1182,"o":"m 700 28 q 664 -1 682 6 q 624 -7 646 -7 q 585 0 601 -7 q 553 28 569 7 l 89 583 q 74 605 78 596 q 71 622 71 614 q 92 666 71 650 q 147 682 113 682 q 185 674 171 682 q 213 651 200 667 l 625 149 l 1042 651 q 1069 674 1054 667 q 1107 682 1083 682 q 1161 667 1140 682 q 1182 624 1182 651 q 1178 605 1182 614 q 1164 583 1175 596 l 700 28 z "},"w":{"ha":1546,"x_min":78,"x_max":1471,"o":"m 774 682 q 819 671 801 682 q 847 638 836 660 l 1093 178 l 1326 640 q 1351 670 1336 658 q 1397 682 1367 682 q 1451 667 1431 682 q 1471 625 1471 651 q 1461 590 1471 610 l 1168 39 q 1140 4 1156 15 q 1094 -7 1124 -7 q 1022 38 1046 -7 l 774 492 l 526 38 q 497 3 513 14 q 454 -7 481 -7 q 408 4 424 -7 q 381 39 392 15 l 86 590 q 79 608 81 601 q 78 625 78 615 q 98 667 78 651 q 151 682 118 682 q 197 671 181 682 q 224 640 214 660 l 454 179 l 700 638 q 728 671 711 660 q 774 682 746 682 z "},"x":{"ha":1214,"x_min":107,"x_max":1107,"o":"m 607 264 l 238 13 q 179 -7 208 -8 q 107 49 107 -7 q 114 72 107 60 q 140 99 121 85 l 496 342 l 161 574 q 133 601 140 588 q 126 626 126 615 q 201 682 126 682 q 234 677 221 682 q 263 661 247 672 l 617 415 l 976 661 q 1005 677 992 672 q 1035 682 1018 682 q 1107 625 1107 682 q 1101 603 1106 615 q 1074 575 1096 590 l 728 339 l 1072 101 q 1099 73 1092 86 q 1107 49 1107 60 q 1032 -7 1107 -7 q 1000 -3 1015 -7 q 969 14 985 1 l 607 264 z "},"y":{"ha":1251,"x_min":131,"x_max":1118,"o":"m 569 -233 q 500 -179 500 -233 q 569 -125 500 -125 l 779 -125 q 971 -26 971 -125 l 971 21 l 489 21 q 131 272 131 21 l 131 624 q 204 682 131 682 q 278 624 278 682 l 278 265 q 474 128 278 128 l 971 128 l 971 624 q 1043 682 971 682 q 1118 624 1118 682 l 1118 -26 q 779 -233 1118 -233 l 569 -233 z "},"z":{"ha":1228,"x_min":100,"x_max":1118,"o":"m 176 0 q 100 60 100 0 q 142 121 100 93 l 832 561 l 201 561 q 128 618 128 561 q 200 675 128 675 l 1013 675 q 1067 660 1049 675 q 1086 618 1086 644 q 1076 584 1086 600 q 1047 557 1065 568 l 350 113 l 1044 113 q 1118 57 1118 113 q 1043 0 1118 0 l 176 0 z "},"{":{"ha":699,"x_min":94,"x_max":668,"o":"m 532 -315 q 314 -74 314 -315 l 314 333 q 215 415 314 415 l 156 415 q 94 471 94 415 q 156 526 94 526 l 215 526 q 314 608 314 526 l 314 1014 q 532 1256 314 1256 l 606 1256 q 668 1201 668 1256 q 606 1146 668 1146 l 536 1146 q 440 1011 440 1146 l 440 615 q 351 471 440 522 q 440 325 440 421 l 440 -72 q 536 -207 440 -207 l 606 -207 q 668 -261 668 -207 q 606 -315 668 -315 l 532 -315 z "},"|":{"ha":526,"x_min":200,"x_max":326,"o":"m 200 1121 q 264 1172 200 1172 q 326 1121 326 1172 l 326 -189 q 264 -240 326 -240 q 200 -189 200 -240 l 200 1121 z "},"}":{"ha":699,"x_min":31,"x_max":604,"o":"m 167 1256 q 385 1014 385 1256 l 385 607 q 483 525 385 525 l 543 525 q 604 469 604 525 q 543 414 604 414 l 483 414 q 385 332 385 414 l 385 -74 q 167 -315 385 -315 l 93 -315 q 31 -261 31 -315 q 93 -206 31 -206 l 163 -206 q 258 -71 258 -206 l 258 325 q 347 469 258 419 q 258 615 258 519 l 258 1013 q 163 1147 258 1147 l 93 1147 q 31 1201 31 1147 q 93 1256 31 1256 l 167 1256 z "},"~":{"ha":1042,"x_min":93,"x_max":944,"o":"m 901 444 q 816 383 865 404 q 700 363 767 363 q 592 384 638 363 q 506 431 546 406 q 425 477 465 456 q 332 499 385 499 q 256 474 283 499 q 211 411 229 450 q 187 388 204 396 q 154 381 169 381 q 93 436 93 381 q 117 503 96 471 q 172 558 139 535 q 249 594 206 581 q 339 608 292 608 q 447 587 401 608 q 532 540 492 565 q 613 492 572 514 q 707 471 654 471 q 782 496 753 471 q 826 558 811 521 q 851 583 836 575 q 883 590 867 590 q 944 535 944 590 q 932 487 944 510 q 901 444 919 464 z "}," ":{"ha":518,"x_min":0,"x_max":0,"o":""},"¡":{"ha":440,"x_min":138,"x_max":303,"o":"m 296 -201 q 219 -260 296 -260 q 146 -201 146 -260 l 146 440 q 219 500 146 500 q 296 440 296 500 l 296 -201 m 138 657 q 221 725 138 725 q 303 657 303 725 q 219 589 303 589 q 138 657 138 589 z "},"¢":{"ha":1240,"x_min":133,"x_max":1135,"o":"m 751 0 l 751 -58 q 688 -111 751 -111 q 625 -58 625 -111 l 625 0 l 540 0 q 133 267 133 0 l 133 699 q 533 961 133 961 l 625 961 l 625 1019 q 688 1071 625 1071 q 751 1019 751 1071 l 751 961 l 1065 961 q 1135 904 1135 961 q 1065 847 1135 847 l 751 847 l 751 114 l 1065 114 q 1135 57 1135 114 q 1065 0 1135 0 l 751 0 m 283 271 q 547 114 283 114 l 625 114 l 625 847 l 536 847 q 283 696 283 847 l 283 271 z "},"£":{"ha":1279,"x_min":58,"x_max":1181,"o":"m 336 429 l 336 122 q 347 114 336 114 l 1110 114 q 1181 57 1181 114 q 1110 0 1181 0 l 253 0 q 185 49 185 0 l 185 429 l 126 429 q 58 485 58 429 q 126 539 58 539 l 185 539 l 185 703 q 575 961 185 961 l 749 961 q 819 904 819 961 q 749 847 819 847 l 575 847 q 336 697 336 847 l 336 539 l 882 539 q 950 485 950 539 q 882 429 950 429 l 336 429 z "},"¤":{"ha":1079,"x_min":50,"x_max":1028,"o":"m 694 242 q 576 228 647 228 l 494 228 q 381 240 428 228 l 161 17 q 135 -2 147 3 q 110 -7 122 -7 q 67 6 83 -7 q 51 42 51 18 q 71 81 51 61 l 283 297 q 257 392 257 333 l 257 567 q 283 658 257 624 l 67 881 q 50 919 50 904 q 66 956 50 943 q 108 968 82 968 q 158 944 132 968 l 381 718 q 494 731 428 731 l 576 731 q 694 717 647 731 l 918 944 q 968 968 942 968 q 1011 956 994 968 q 1028 919 1028 943 q 1022 901 1028 911 q 1010 881 1017 892 l 788 654 q 813 567 813 618 l 813 392 q 788 303 813 338 l 1006 81 q 1025 42 1025 61 q 1009 6 1025 18 q 967 -7 993 -7 q 941 -2 954 -7 q 915 17 928 3 l 694 242 m 690 561 q 574 639 690 639 l 494 639 q 379 561 379 639 l 379 397 q 494 319 379 319 l 574 319 q 690 397 690 319 l 690 561 z "},"¥":{"ha":1203,"x_min":63,"x_max":1139,"o":"m 672 185 l 672 49 q 601 -7 672 -7 q 529 49 529 -7 l 529 185 l 231 185 q 174 231 174 185 q 231 274 174 274 l 529 274 l 529 419 l 231 419 q 174 464 174 419 q 231 508 174 508 l 456 508 l 86 868 q 69 888 75 879 q 63 913 63 897 q 83 953 63 939 q 136 968 103 968 q 169 962 156 968 q 197 942 183 956 l 601 543 l 1004 942 q 1031 962 1018 956 q 1064 968 1044 968 q 1118 953 1097 968 q 1139 913 1139 939 q 1133 888 1139 897 q 1117 868 1128 878 l 744 508 l 983 508 q 1042 464 1042 508 q 983 419 1042 419 l 672 419 l 672 274 l 983 274 q 1042 231 1042 274 q 983 185 1042 185 l 672 185 z "},"¦":{"ha":526,"x_min":200,"x_max":326,"o":"m 200 1121 q 264 1172 200 1172 q 326 1121 326 1172 l 326 575 q 264 524 326 524 q 200 575 200 524 l 200 1121 m 200 357 q 264 408 200 408 q 326 357 326 408 l 326 -189 q 264 -240 326 -240 q 200 -189 200 -240 l 200 357 z "},"§":{"ha":1086,"x_min":138,"x_max":949,"o":"m 457 -233 q 389 -179 389 -233 q 457 -126 389 -126 l 622 -126 q 808 -11 808 -126 l 808 100 l 469 100 q 138 324 138 100 l 138 757 q 469 981 138 981 l 629 981 q 697 926 697 981 q 629 874 697 874 l 456 874 q 278 758 278 874 l 278 646 l 617 646 q 949 424 949 646 l 949 -11 q 617 -233 949 -233 l 457 -233 m 278 322 q 465 208 278 208 l 808 208 l 808 426 q 622 539 808 539 l 278 539 l 278 322 z "},"¨":{"ha":617,"x_min":63,"x_max":556,"o":"m 556 847 q 472 781 556 781 q 392 847 392 781 q 472 914 392 914 q 556 847 556 914 m 224 847 q 143 781 224 781 q 63 847 63 781 q 143 914 63 914 q 224 847 224 914 z "},"©":{"ha":1210,"x_min":90,"x_max":1119,"o":"m 493 0 q 90 314 90 0 l 90 647 q 493 961 90 961 l 717 961 q 1119 647 1119 961 l 1119 314 q 717 0 1119 0 l 493 0 m 1049 647 q 717 900 1049 900 l 493 900 q 160 647 160 900 l 160 314 q 493 61 160 61 l 717 61 q 1049 314 1049 61 l 1049 647 m 544 253 q 342 386 342 253 l 342 600 q 540 731 342 731 l 806 731 q 839 703 839 731 q 806 674 839 674 l 542 674 q 415 599 415 674 l 415 388 q 547 310 415 310 l 806 310 q 839 281 839 310 q 806 253 839 253 l 544 253 z "},"ª":{"ha":818,"x_min":96,"x_max":715,"o":"m 275 503 q 96 614 96 503 l 96 661 q 275 771 96 771 l 629 771 l 629 783 q 526 842 629 842 l 408 842 q 367 875 367 842 q 408 908 367 908 l 526 908 q 715 783 715 908 l 715 621 q 533 503 715 503 l 275 503 m 529 568 q 629 622 629 568 l 629 714 l 282 714 q 183 663 183 714 l 183 619 q 282 568 183 568 l 529 568 z "},"«":{"ha":779,"x_min":93,"x_max":686,"o":"m 93 0 m 388 301 q 378 324 381 317 q 376 338 376 332 q 378 351 376 344 q 388 374 381 358 l 564 642 q 593 674 576 667 q 626 682 610 682 q 670 670 654 682 q 686 638 686 658 q 684 626 686 633 q 675 604 682 618 l 499 338 l 675 71 q 684 49 682 56 q 686 36 686 42 q 670 4 686 15 q 626 -7 654 -7 q 593 0 610 -7 q 564 33 576 7 l 388 301 m 104 301 q 95 324 97 317 q 93 338 93 332 q 95 351 93 344 q 104 374 97 358 l 281 642 q 310 674 293 667 q 343 682 326 682 q 387 670 371 682 q 403 638 403 658 q 401 626 403 633 q 392 604 399 618 l 215 338 l 392 71 q 401 49 399 56 q 403 36 403 42 q 387 4 403 15 q 343 -7 371 -7 q 310 0 326 -7 q 281 33 293 7 l 104 301 z "},"¬":{"ha":1007,"x_min":90,"x_max":915,"o":"m 789 540 l 160 540 q 90 596 90 540 q 160 650 90 650 l 846 650 q 915 594 915 650 l 915 54 q 853 -7 915 -7 q 789 54 789 -7 l 789 540 z "},"®":{"ha":1210,"x_min":90,"x_max":1119,"o":"m 493 0 q 90 314 90 0 l 90 647 q 493 961 90 961 l 717 961 q 1119 647 1119 961 l 1119 314 q 717 0 1119 0 l 493 0 m 1049 647 q 717 900 1049 900 l 493 900 q 160 647 160 900 l 160 314 q 493 61 160 61 l 717 61 q 1049 314 1049 61 l 1049 647 m 411 439 l 411 278 q 374 250 411 250 q 336 278 336 250 l 336 707 q 368 731 336 731 l 693 731 q 908 614 908 731 l 908 563 q 693 447 908 447 l 526 447 l 849 306 q 869 279 869 297 q 831 250 869 250 q 806 256 818 250 l 411 439 m 411 500 l 694 500 q 833 563 833 500 l 833 613 q 696 674 833 674 l 417 674 q 411 669 411 674 l 411 500 z "},"¯":{"ha":893,"x_min":63,"x_max":831,"o":"m 126 797 q 63 847 63 797 q 126 897 63 897 l 767 897 q 831 847 831 897 q 767 797 831 797 l 126 797 z "},"°":{"ha":774,"x_min":108,"x_max":664,"o":"m 346 571 q 108 735 108 571 l 108 910 q 346 1074 108 1074 l 426 1074 q 664 910 664 1074 l 664 735 q 426 571 664 571 l 346 571 m 540 904 q 425 982 540 982 l 346 982 q 229 904 229 982 l 229 740 q 346 663 229 663 l 425 663 q 540 740 540 663 l 540 904 z "},"±":{"ha":1007,"x_min":90,"x_max":915,"o":"m 90 0 m 440 533 l 160 533 q 90 589 90 533 q 160 643 90 643 l 440 643 l 440 917 q 503 978 440 978 q 567 917 567 978 l 567 643 l 846 643 q 915 589 915 643 q 846 533 915 533 l 567 533 l 567 257 q 503 196 567 196 q 440 257 440 196 l 440 533 m 160 0 q 90 56 90 0 q 160 108 90 108 l 846 108 q 915 56 915 108 q 846 0 915 0 l 160 0 z "},"²":{"ha":863,"x_min":107,"x_max":757,"o":"m 107 432 m 157 432 q 107 467 107 432 l 107 608 q 319 735 107 735 l 535 735 q 640 783 640 735 l 640 822 q 563 872 640 872 l 426 872 q 376 917 376 872 q 426 961 376 961 l 576 961 q 757 831 757 961 l 757 775 q 550 650 757 650 l 326 650 q 224 599 224 650 l 224 528 q 233 521 224 521 l 707 521 q 757 476 757 521 q 707 432 757 432 l 157 432 z "},"³":{"ha":849,"x_min":100,"x_max":742,"o":"m 100 432 m 742 557 q 547 432 742 432 l 151 432 q 100 476 100 432 q 151 521 100 521 l 543 521 q 625 571 625 521 l 625 607 q 543 656 625 656 l 153 656 q 104 700 104 656 q 153 742 104 742 l 529 742 q 618 790 618 742 l 618 818 q 529 872 618 872 l 425 872 q 375 917 375 872 q 425 961 375 961 l 532 961 q 735 829 735 961 l 735 790 q 685 703 735 733 q 742 610 742 671 l 742 557 z "},"´":{"ha":515,"x_min":63,"x_max":454,"o":"m 179 746 q 152 728 164 732 q 125 724 140 724 q 63 772 63 724 q 79 807 63 790 l 315 1050 q 375 1072 336 1072 q 454 1019 454 1072 q 449 997 454 1006 q 432 978 443 988 l 179 746 z "},"¶":{"ha":1149,"x_min":75,"x_max":1011,"o":"m 501 456 l 382 456 q 75 667 75 456 l 75 747 q 382 961 75 961 l 947 961 q 1011 913 1011 961 l 1011 -187 q 944 -239 1011 -239 q 876 -187 876 -239 l 876 456 l 636 456 l 636 -187 q 569 -239 636 -239 q 501 -187 501 -239 l 501 456 m 210 667 q 379 557 210 557 l 876 557 l 876 850 q 865 858 876 858 l 379 858 q 210 749 210 858 l 210 667 z "},"·":{"ha":404,"x_min":119,"x_max":285,"o":"m 119 365 m 285 433 q 201 365 285 365 q 119 433 119 365 q 203 501 119 501 q 285 433 285 501 z "},"¸":{"ha":479,"x_min":63,"x_max":417,"o":"m 417 -136 q 169 -315 417 -315 l 121 -315 q 63 -269 63 -315 q 121 -224 63 -224 l 169 -224 q 294 -137 294 -224 l 294 -72 q 356 -25 294 -25 q 417 -72 417 -25 l 417 -136 z "},"¹":{"ha":347,"x_min":115,"x_max":232,"o":"m 115 428 m 115 924 q 174 964 115 964 q 232 924 232 964 l 232 468 q 172 428 232 428 q 115 468 115 428 l 115 924 z "},"º":{"ha":779,"x_min":96,"x_max":688,"o":"m 311 503 q 96 635 96 503 l 96 775 q 311 908 96 908 l 472 908 q 688 775 688 908 l 688 635 q 472 503 688 503 l 311 503 m 599 776 q 475 839 599 839 l 308 839 q 185 776 185 839 l 185 633 q 308 571 185 571 l 475 571 q 599 633 599 571 l 599 776 z "},"»":{"ha":779,"x_min":93,"x_max":686,"o":"m 93 0 m 499 33 q 469 1 486 8 q 436 -7 453 -7 q 393 4 410 -7 q 376 36 376 15 q 378 49 376 42 q 388 71 381 56 l 564 338 l 388 604 q 378 626 381 618 q 376 638 376 633 q 393 670 376 658 q 436 682 410 682 q 469 674 453 682 q 499 642 486 667 l 675 374 q 684 351 682 358 q 686 338 686 343 q 684 324 686 331 q 675 301 682 317 l 499 33 m 215 33 q 186 1 203 8 q 153 -7 169 -7 q 110 4 126 -7 q 93 36 93 15 q 95 49 93 42 q 104 71 97 56 l 281 338 l 104 604 q 95 626 97 618 q 93 638 93 633 q 110 670 93 658 q 153 682 126 682 q 186 674 169 682 q 215 642 203 667 l 392 374 q 401 351 399 358 q 403 338 403 343 q 401 324 403 331 q 392 301 399 317 l 215 33 z "},"¼":{"ha":1474,"x_min":61,"x_max":1389,"o":"m 61 0 m 171 17 q 144 -2 157 3 q 119 -7 132 -7 q 77 6 93 -7 q 61 42 61 18 q 81 81 61 61 l 926 944 q 976 968 950 968 q 1020 956 1004 968 q 1036 919 1036 943 q 1018 881 1036 903 l 171 17 m 169 924 q 228 964 169 964 q 286 924 286 964 l 286 468 q 226 428 286 428 q 169 468 169 428 l 169 924 m 1272 149 l 801 149 q 751 183 751 149 l 751 492 q 810 532 751 532 q 868 492 868 532 l 868 244 q 878 238 868 238 l 1272 238 l 1272 492 q 1331 532 1272 532 q 1389 492 1389 532 l 1389 36 q 1331 -4 1389 -4 q 1272 36 1272 -4 l 1272 149 z "},"½":{"ha":1350,"x_min":61,"x_max":1268,"o":"m 61 0 m 171 17 q 144 -2 157 3 q 119 -7 132 -7 q 77 6 93 -7 q 61 42 61 18 q 81 81 61 61 l 926 944 q 976 968 950 968 q 1020 956 1004 968 q 1036 919 1036 943 q 1018 881 1036 903 l 171 17 m 169 924 q 228 964 169 964 q 286 924 286 964 l 286 468 q 226 428 286 428 q 169 468 169 428 l 169 924 m 668 0 q 618 35 618 0 l 618 176 q 831 303 618 303 l 1046 303 q 1151 351 1151 303 l 1151 390 q 1074 440 1151 440 l 938 440 q 888 485 888 440 q 938 529 888 529 l 1088 529 q 1268 399 1268 529 l 1268 343 q 1061 218 1268 218 l 838 218 q 735 167 735 218 l 735 96 q 744 89 735 89 l 1218 89 q 1268 44 1268 89 q 1218 0 1268 0 l 668 0 z "},"¾":{"ha":1817,"x_min":83,"x_max":1732,"o":"m 83 0 m 514 17 q 488 -2 500 3 q 463 -7 475 -7 q 420 6 436 -7 q 404 42 404 18 q 424 81 404 61 l 1269 944 q 1319 968 1293 968 q 1363 956 1347 968 q 1379 919 1379 943 q 1361 881 1379 903 l 514 17 m 1615 149 l 1144 149 q 1094 183 1094 149 l 1094 492 q 1153 532 1094 532 q 1211 492 1211 532 l 1211 244 q 1221 238 1211 238 l 1615 238 l 1615 492 q 1674 532 1615 532 q 1732 492 1732 532 l 1732 36 q 1674 -4 1732 -4 q 1615 36 1615 -4 l 1615 149 m 725 557 q 531 432 725 432 l 135 432 q 83 476 83 432 q 135 521 83 521 l 526 521 q 608 571 608 521 l 608 607 q 526 656 608 656 l 136 656 q 88 700 88 656 q 136 742 88 742 l 513 742 q 601 790 601 742 l 601 818 q 513 872 601 872 l 408 872 q 358 917 358 872 q 408 961 358 961 l 515 961 q 718 829 718 961 l 718 790 q 668 703 718 733 q 725 610 725 671 l 725 557 z "},"¿":{"ha":1031,"x_min":101,"x_max":885,"o":"m 101 56 q 442 243 101 243 l 528 243 q 733 347 733 243 l 733 449 q 801 500 733 500 q 871 447 871 500 l 871 326 q 547 138 871 138 l 451 138 q 247 49 247 138 l 247 -50 q 451 -139 247 -139 l 618 -139 q 688 -196 688 -139 q 618 -253 688 -253 l 458 -253 q 101 -57 101 -253 l 101 56 m 718 657 q 801 725 718 725 q 885 657 885 725 q 801 589 885 589 q 718 657 718 589 z "},"À":{"ha":1439,"x_min":78,"x_max":1363,"o":"m 78 0 m 1071 257 l 369 257 l 226 33 q 154 -7 200 -7 q 99 8 119 -7 q 78 50 78 22 q 81 70 78 61 q 93 93 83 79 l 643 931 q 676 958 656 950 q 719 968 696 967 q 793 931 768 968 l 1344 94 q 1359 71 1356 81 q 1363 50 1363 61 q 1342 8 1363 22 q 1286 -7 1321 -7 q 1215 33 1242 -7 l 1071 257 m 439 364 l 1003 364 l 719 803 l 439 364 m 490 1257 q 473 1275 479 1267 q 468 1299 467 1283 q 546 1351 468 1351 q 581 1347 565 1351 q 607 1329 596 1343 l 843 1088 q 860 1051 860 1067 q 797 1003 860 1003 q 769 1008 782 1003 q 743 1025 757 1013 l 490 1257 z "},"Á":{"ha":1439,"x_min":78,"x_max":1363,"o":"m 78 0 m 1071 257 l 369 257 l 226 33 q 154 -7 200 -7 q 99 8 119 -7 q 78 50 78 22 q 81 70 78 61 q 93 93 83 79 l 643 931 q 676 958 656 950 q 719 968 696 967 q 793 931 768 968 l 1344 94 q 1359 71 1356 81 q 1363 50 1363 61 q 1342 8 1363 22 q 1286 -7 1321 -7 q 1215 33 1242 -7 l 1071 257 m 439 364 l 1003 364 l 719 803 l 439 364 m 642 1025 q 615 1007 626 1011 q 588 1003 603 1003 q 525 1051 525 1003 q 542 1086 525 1069 l 778 1329 q 838 1351 799 1351 q 917 1299 917 1351 q 911 1276 917 1285 q 894 1257 906 1267 l 642 1025 z "},"Â":{"ha":1439,"x_min":78,"x_max":1363,"o":"m 78 0 m 1071 257 l 369 257 l 226 33 q 154 -7 200 -7 q 99 8 119 -7 q 78 50 78 22 q 81 70 78 61 q 93 93 83 79 l 643 931 q 676 958 656 950 q 719 968 696 967 q 793 931 768 968 l 1344 94 q 1359 71 1356 81 q 1363 50 1363 61 q 1342 8 1363 22 q 1286 -7 1321 -7 q 1215 33 1242 -7 l 1071 257 m 439 364 l 1003 364 l 719 803 l 439 364 m 719 1215 l 568 1028 q 543 1009 558 1015 q 513 1003 528 1003 q 450 1053 450 1003 q 452 1067 449 1060 q 467 1089 456 1075 l 663 1328 q 688 1344 672 1339 q 719 1351 703 1350 q 751 1345 736 1351 q 778 1326 767 1339 l 974 1089 q 988 1067 985 1075 q 992 1053 992 1060 q 928 1003 992 1003 q 872 1028 893 1003 l 719 1215 z "},"Ã":{"ha":1439,"x_min":78,"x_max":1363,"o":"m 78 0 m 1071 257 l 369 257 l 226 33 q 154 -7 200 -7 q 99 8 119 -7 q 78 50 78 22 q 81 70 78 61 q 93 93 83 79 l 643 931 q 676 958 656 950 q 719 968 696 967 q 793 931 768 968 l 1344 94 q 1359 71 1356 81 q 1363 50 1363 61 q 1342 8 1363 22 q 1286 -7 1321 -7 q 1215 33 1242 -7 l 1071 257 m 439 364 l 1003 364 l 719 803 l 439 364 m 399 1076 q 335 1126 335 1076 q 399 1176 335 1176 l 1039 1176 q 1103 1126 1103 1176 q 1039 1076 1103 1076 l 399 1076 z "},"Ä":{"ha":1439,"x_min":78,"x_max":1363,"o":"m 78 0 m 1071 257 l 369 257 l 226 33 q 154 -7 200 -7 q 99 8 119 -7 q 78 50 78 22 q 81 70 78 61 q 93 93 83 79 l 643 931 q 676 958 656 950 q 719 968 696 967 q 793 931 768 968 l 1344 94 q 1359 71 1356 81 q 1363 50 1363 61 q 1342 8 1363 22 q 1286 -7 1321 -7 q 1215 33 1242 -7 l 1071 257 m 439 364 l 1003 364 l 719 803 l 439 364 m 965 1126 q 882 1060 965 1060 q 801 1126 801 1060 q 882 1193 801 1193 q 965 1126 965 1193 m 633 1126 q 553 1060 633 1060 q 472 1126 472 1060 q 553 1193 472 1193 q 633 1126 633 1193 z "},"Å":{"ha":1439,"x_min":78,"x_max":1363,"o":"m 78 0 m 1071 257 l 369 257 l 226 33 q 154 -7 200 -7 q 99 8 119 -7 q 78 50 78 22 q 81 70 78 61 q 93 93 83 79 l 643 931 q 676 958 656 950 q 719 968 696 967 q 793 931 768 968 l 1344 94 q 1359 71 1356 81 q 1363 50 1363 61 q 1342 8 1363 22 q 1286 -7 1321 -7 q 1215 33 1242 -7 l 1071 257 m 439 364 l 1003 364 l 719 803 l 439 364 m 671 1007 q 525 1146 525 1007 l 525 1211 q 671 1351 525 1351 l 763 1351 q 908 1211 908 1351 l 908 1146 q 763 1007 908 1007 l 671 1007 m 810 1214 q 757 1275 810 1275 l 676 1275 q 624 1214 624 1275 l 624 1144 q 676 1085 624 1085 l 757 1085 q 810 1144 810 1085 l 810 1214 z "},"Æ":{"ha":2008,"x_min":78,"x_max":1901,"o":"m 1260 0 q 853 257 863 0 l 369 257 l 226 33 q 154 -7 200 -7 q 78 50 78 -7 q 82 74 78 64 q 97 100 86 83 l 640 922 q 721 961 665 961 l 1450 961 q 1521 904 1521 961 q 1450 847 1521 847 l 1003 847 l 1003 539 l 1831 539 q 1897 485 1897 539 q 1831 431 1897 431 l 1003 431 l 1003 276 q 1267 114 1003 114 l 1832 114 q 1901 57 1901 114 q 1832 0 1901 0 l 1260 0 m 439 364 l 853 364 l 853 847 l 750 847 l 439 364 z "},"Ç":{"ha":1240,"x_min":133,"x_max":1135,"o":"m 133 0 m 540 0 q 133 267 133 0 l 133 699 q 533 961 133 961 l 1065 961 q 1135 904 1135 961 q 1065 847 1135 847 l 536 847 q 283 696 283 847 l 283 271 q 547 114 283 114 l 1065 114 q 1135 57 1135 114 q 1065 0 1135 0 l 540 0 m 796 -136 q 549 -315 796 -315 l 500 -315 q 442 -269 442 -315 q 500 -224 442 -224 l 549 -224 q 674 -137 674 -224 l 674 -72 q 735 -25 674 -25 q 796 -72 796 -25 l 796 -136 z "},"È":{"ha":1290,"x_min":133,"x_max":1182,"o":"m 133 0 m 540 0 q 133 267 133 0 l 133 699 q 533 961 133 961 l 732 961 q 801 904 801 961 q 732 847 801 847 l 536 847 q 283 696 283 847 l 283 539 l 1111 539 q 1178 485 1178 539 q 1111 431 1178 431 l 283 431 l 283 271 q 547 114 283 114 l 1111 114 q 1182 57 1182 114 q 1111 0 1182 0 l 540 0 m 390 1257 q 373 1275 379 1267 q 368 1299 367 1283 q 446 1351 368 1351 q 481 1347 465 1351 q 507 1329 496 1343 l 743 1088 q 760 1051 760 1067 q 697 1003 760 1003 q 669 1008 682 1003 q 643 1025 657 1013 l 390 1257 z "},"É":{"ha":1290,"x_min":133,"x_max":1182,"o":"m 133 0 m 540 0 q 133 267 133 0 l 133 699 q 533 961 133 961 l 732 961 q 801 904 801 961 q 732 847 801 847 l 536 847 q 283 696 283 847 l 283 539 l 1111 539 q 1178 485 1178 539 q 1111 431 1178 431 l 283 431 l 283 271 q 547 114 283 114 l 1111 114 q 1182 57 1182 114 q 1111 0 1182 0 l 540 0 m 567 1025 q 540 1007 551 1011 q 513 1003 528 1003 q 450 1051 450 1003 q 467 1086 450 1069 l 703 1329 q 763 1351 724 1351 q 842 1299 842 1351 q 836 1276 842 1285 q 819 1257 831 1267 l 567 1025 z "},"Ê":{"ha":1290,"x_min":133,"x_max":1182,"o":"m 133 0 m 540 0 q 133 267 133 0 l 133 699 q 533 961 133 961 l 732 961 q 801 904 801 961 q 732 847 801 847 l 536 847 q 283 696 283 847 l 283 539 l 1111 539 q 1178 485 1178 539 q 1111 431 1178 431 l 283 431 l 283 271 q 547 114 283 114 l 1111 114 q 1182 57 1182 114 q 1111 0 1182 0 l 540 0 m 603 1215 l 451 1028 q 426 1009 442 1015 q 396 1003 411 1003 q 333 1053 333 1003 q 335 1067 332 1060 q 350 1089 339 1075 l 546 1328 q 571 1344 556 1339 q 603 1351 586 1350 q 635 1345 619 1351 q 661 1326 650 1339 l 857 1089 q 872 1067 868 1075 q 875 1053 875 1060 q 811 1003 875 1003 q 756 1028 776 1003 l 603 1215 z "},"Ë":{"ha":1290,"x_min":133,"x_max":1182,"o":"m 133 0 m 540 0 q 133 267 133 0 l 133 699 q 533 961 133 961 l 732 961 q 801 904 801 961 q 732 847 801 847 l 536 847 q 283 696 283 847 l 283 539 l 1111 539 q 1178 485 1178 539 q 1111 431 1178 431 l 283 431 l 283 271 q 547 114 283 114 l 1111 114 q 1182 57 1182 114 q 1111 0 1182 0 l 540 0 m 867 1126 q 783 1060 867 1060 q 703 1126 703 1060 q 783 1193 703 1193 q 867 1126 867 1193 m 535 1126 q 454 1060 535 1060 q 374 1126 374 1060 q 454 1193 374 1193 q 535 1126 535 1193 z "},"Ì":{"ha":465,"x_min":-1,"x_max":392,"o":"m 0 0 m 176 910 q 254 968 176 968 q 326 910 326 968 l 326 51 q 250 -7 326 -7 q 176 51 176 -7 l 176 910 m 22 1257 q 5 1275 11 1267 q 0 1299 -1 1283 q 78 1351 0 1351 q 113 1347 97 1351 q 139 1329 128 1343 l 375 1088 q 392 1051 392 1067 q 329 1003 392 1003 q 301 1008 314 1003 q 275 1025 289 1013 l 22 1257 z "},"Í":{"ha":464,"x_min":72,"x_max":464,"o":"m 72 0 m 138 910 q 215 968 138 968 q 288 910 288 968 l 288 51 q 211 -7 288 -7 q 138 51 138 -7 l 138 910 m 189 1025 q 162 1007 174 1011 q 135 1003 150 1003 q 72 1051 72 1003 q 89 1086 72 1069 l 325 1329 q 385 1351 346 1351 q 464 1299 464 1351 q 458 1276 464 1285 q 442 1257 453 1267 l 189 1025 z "},"Î":{"ha":542,"x_min":-1,"x_max":542,"o":"m 0 0 m 196 910 q 274 968 196 968 q 346 910 346 968 l 346 51 q 269 -7 346 -7 q 196 51 196 -7 l 196 910 m 269 1215 l 118 1028 q 93 1009 108 1015 q 63 1003 78 1003 q 0 1053 0 1003 q 2 1067 -1 1060 q 17 1089 6 1075 l 213 1328 q 238 1344 222 1339 q 269 1351 253 1350 q 301 1345 286 1351 q 328 1326 317 1339 l 524 1089 q 538 1067 535 1075 q 542 1053 542 1060 q 478 1003 542 1003 q 422 1028 443 1003 l 269 1215 z "},"Ï":{"ha":494,"x_min":0,"x_max":493,"o":"m 0 0 m 172 910 q 250 968 172 968 q 322 910 322 968 l 322 51 q 246 -7 322 -7 q 172 51 172 -7 l 172 910 m 493 1126 q 410 1060 493 1060 q 329 1126 329 1060 q 410 1193 329 1193 q 493 1126 493 1193 m 161 1126 q 81 1060 161 1060 q 0 1126 0 1060 q 81 1193 0 1193 q 161 1126 161 1193 z "},"Ð":{"ha":1461,"x_min":63,"x_max":1331,"o":"m 249 0 q 182 49 182 0 l 182 431 l 128 431 q 63 485 63 431 q 128 539 63 539 l 182 539 l 182 913 q 246 961 182 961 l 899 961 q 1331 693 1331 961 l 1331 268 q 899 0 1331 0 l 249 0 m 1181 689 q 904 847 1181 847 l 343 847 q 332 839 332 847 l 332 539 l 713 539 q 779 485 779 539 q 713 431 779 431 l 332 431 l 332 122 q 343 114 332 114 l 903 114 q 1181 272 1181 114 l 1181 689 z "},"Ñ":{"ha":1415,"x_min":138,"x_max":1276,"o":"m 138 0 m 215 968 q 254 960 238 968 q 289 938 271 953 l 1126 199 l 1126 911 q 1201 968 1126 968 q 1276 911 1276 968 l 1276 51 q 1197 -7 1276 -7 q 1158 1 1174 -7 q 1124 25 1142 10 l 288 764 l 288 51 q 211 -7 288 -7 q 138 51 138 -7 l 138 908 q 215 968 138 968 m 386 1076 q 322 1126 322 1076 q 386 1176 322 1176 l 1026 1176 q 1090 1126 1090 1176 q 1026 1076 1090 1076 l 386 1076 z "},"Ò":{"ha":1375,"x_min":133,"x_max":1243,"o":"m 133 0 m 1093 693 q 840 847 1093 847 l 536 847 q 283 693 283 847 l 283 271 q 539 114 283 114 l 838 114 q 1093 271 1093 114 l 1093 693 m 540 0 q 133 267 133 0 l 133 696 q 533 961 133 961 l 843 961 q 1243 696 1243 961 l 1243 267 q 836 0 1243 0 l 540 0 m 461 1257 q 444 1275 450 1267 q 439 1299 438 1283 q 517 1351 439 1351 q 551 1347 536 1351 q 578 1329 567 1343 l 814 1088 q 831 1051 831 1067 q 768 1003 831 1003 q 740 1008 753 1003 q 714 1025 728 1013 l 461 1257 z "},"Ó":{"ha":1375,"x_min":133,"x_max":1243,"o":"m 133 0 m 1093 693 q 840 847 1093 847 l 536 847 q 283 693 283 847 l 283 271 q 539 114 283 114 l 838 114 q 1093 271 1093 114 l 1093 693 m 540 0 q 133 267 133 0 l 133 696 q 533 961 133 961 l 843 961 q 1243 696 1243 961 l 1243 267 q 836 0 1243 0 l 540 0 m 663 1025 q 635 1007 647 1011 q 608 1003 624 1003 q 546 1051 546 1003 q 563 1086 546 1069 l 799 1329 q 858 1351 819 1351 q 938 1299 938 1351 q 932 1276 938 1285 q 915 1257 926 1267 l 663 1025 z "},"Ô":{"ha":1375,"x_min":133,"x_max":1243,"o":"m 133 0 m 1093 693 q 840 847 1093 847 l 536 847 q 283 693 283 847 l 283 271 q 539 114 283 114 l 838 114 q 1093 271 1093 114 l 1093 693 m 540 0 q 133 267 133 0 l 133 696 q 533 961 133 961 l 843 961 q 1243 696 1243 961 l 1243 267 q 836 0 1243 0 l 540 0 m 689 1215 l 538 1028 q 513 1009 528 1015 q 482 1003 497 1003 q 419 1053 419 1003 q 422 1067 418 1060 q 436 1089 425 1075 l 632 1328 q 657 1344 642 1339 q 689 1351 672 1350 q 721 1345 706 1351 q 747 1326 736 1339 l 943 1089 q 958 1067 954 1075 q 961 1053 961 1060 q 897 1003 961 1003 q 842 1028 863 1003 l 689 1215 z "},"Õ":{"ha":1375,"x_min":133,"x_max":1243,"o":"m 133 0 m 1093 693 q 840 847 1093 847 l 536 847 q 283 693 283 847 l 283 271 q 539 114 283 114 l 838 114 q 1093 271 1093 114 l 1093 693 m 540 0 q 133 267 133 0 l 133 696 q 533 961 133 961 l 843 961 q 1243 696 1243 961 l 1243 267 q 836 0 1243 0 l 540 0 m 367 1076 q 303 1126 303 1076 q 367 1176 303 1176 l 1007 1176 q 1071 1126 1071 1176 q 1007 1076 1071 1076 l 367 1076 z "},"Ö":{"ha":1375,"x_min":133,"x_max":1243,"o":"m 133 0 m 1093 693 q 840 847 1093 847 l 536 847 q 283 693 283 847 l 283 271 q 539 114 283 114 l 838 114 q 1093 271 1093 114 l 1093 693 m 540 0 q 133 267 133 0 l 133 696 q 533 961 133 961 l 843 961 q 1243 696 1243 961 l 1243 267 q 836 0 1243 0 l 540 0 m 933 1126 q 850 1060 933 1060 q 769 1126 769 1060 q 850 1193 769 1193 q 933 1126 933 1193 m 601 1126 q 521 1060 601 1060 q 440 1126 440 1060 q 521 1193 440 1193 q 601 1126 601 1193 z "},"×":{"ha":1007,"x_min":181,"x_max":846,"o":"m 596 481 l 825 244 q 846 203 846 224 q 824 166 846 183 q 779 149 803 149 q 728 174 750 149 l 513 394 l 299 174 q 246 147 272 147 q 201 165 222 147 q 181 203 181 183 q 201 244 181 224 l 431 481 l 201 717 q 186 738 190 728 q 182 757 182 749 q 202 794 182 776 q 247 813 222 813 q 300 788 275 813 l 514 567 l 728 788 q 778 813 753 813 q 824 794 803 813 q 844 757 844 776 q 824 717 844 738 l 596 481 z "},"Ø":{"ha":1375,"x_min":108,"x_max":1265,"o":"m 540 0 q 321 28 411 0 l 222 -75 q 195 -95 208 -90 q 169 -100 182 -100 q 125 -86 142 -100 q 108 -49 108 -72 q 113 -28 108 -39 q 128 -7 117 -18 l 213 82 q 133 267 133 149 l 133 696 q 533 961 133 961 l 843 961 q 1033 940 951 961 l 1149 1061 q 1176 1079 1161 1074 q 1203 1085 1190 1085 q 1247 1071 1229 1085 q 1265 1033 1265 1057 q 1243 993 1265 1015 l 1146 892 q 1243 696 1243 825 l 1243 267 q 836 0 1243 0 l 540 0 m 1093 693 q 1051 793 1093 756 l 414 126 q 539 114 465 114 l 838 114 q 1093 271 1093 114 l 1093 693 m 283 271 q 311 185 283 219 l 938 840 q 892 845 915 843 q 840 847 868 847 l 536 847 q 283 693 283 847 l 283 271 z "},"Ù":{"ha":1401,"x_min":135,"x_max":1265,"o":"m 135 0 m 542 0 q 135 272 135 0 l 135 910 q 210 968 135 968 q 285 910 285 968 l 285 276 q 549 114 285 114 l 851 114 q 1114 276 1114 114 l 1114 910 q 1190 968 1114 968 q 1265 910 1265 968 l 1265 272 q 858 0 1265 0 l 542 0 m 474 1257 q 456 1275 463 1267 q 451 1299 450 1283 q 529 1351 451 1351 q 564 1347 549 1351 q 590 1329 579 1343 l 826 1088 q 843 1051 843 1067 q 781 1003 843 1003 q 753 1008 765 1003 q 726 1025 740 1013 l 474 1257 z "},"Ú":{"ha":1401,"x_min":135,"x_max":1265,"o":"m 135 0 m 542 0 q 135 272 135 0 l 135 910 q 210 968 135 968 q 285 910 285 968 l 285 276 q 549 114 285 114 l 851 114 q 1114 276 1114 114 l 1114 910 q 1190 968 1114 968 q 1265 910 1265 968 l 1265 272 q 858 0 1265 0 l 542 0 m 678 1025 q 651 1007 663 1011 q 624 1003 639 1003 q 561 1051 561 1003 q 578 1086 561 1069 l 814 1329 q 874 1351 835 1351 q 953 1299 953 1351 q 947 1276 953 1285 q 931 1257 942 1267 l 678 1025 z "},"Û":{"ha":1401,"x_min":135,"x_max":1265,"o":"m 135 0 m 542 0 q 135 272 135 0 l 135 910 q 210 968 135 968 q 285 910 285 968 l 285 276 q 549 114 285 114 l 851 114 q 1114 276 1114 114 l 1114 910 q 1190 968 1114 968 q 1265 910 1265 968 l 1265 272 q 858 0 1265 0 l 542 0 m 700 1215 l 549 1028 q 524 1009 539 1015 q 493 1003 508 1003 q 431 1053 431 1003 q 433 1067 429 1060 q 447 1089 436 1075 l 643 1328 q 668 1344 653 1339 q 700 1351 683 1350 q 732 1345 717 1351 q 758 1326 747 1339 l 954 1089 q 969 1067 965 1075 q 972 1053 972 1060 q 908 1003 972 1003 q 853 1028 874 1003 l 700 1215 z "},"Ü":{"ha":1401,"x_min":135,"x_max":1265,"o":"m 135 0 m 542 0 q 135 272 135 0 l 135 910 q 210 968 135 968 q 285 910 285 968 l 285 276 q 549 114 285 114 l 851 114 q 1114 276 1114 114 l 1114 910 q 1190 968 1114 968 q 1265 910 1265 968 l 1265 272 q 858 0 1265 0 l 542 0 m 947 1126 q 864 1060 947 1060 q 783 1126 783 1060 q 864 1193 783 1193 q 947 1126 947 1193 m 615 1126 q 535 1060 615 1060 q 454 1126 454 1060 q 535 1193 454 1193 q 615 1126 615 1193 z "},"Ý":{"ha":1246,"x_min":67,"x_max":1176,"o":"m 67 0 m 697 421 l 697 51 q 622 -7 697 -7 q 546 51 546 -7 l 546 421 l 92 861 q 73 883 79 872 q 67 908 67 893 q 88 952 67 936 q 144 968 108 968 q 181 961 167 968 q 210 939 194 954 l 622 531 l 1036 940 q 1065 961 1050 954 q 1103 968 1079 968 q 1156 952 1135 968 q 1176 908 1176 936 q 1169 883 1176 893 q 1151 861 1163 872 l 697 421 m 600 1025 q 573 1007 585 1011 q 546 1003 561 1003 q 483 1051 483 1003 q 500 1086 483 1069 l 736 1329 q 796 1351 757 1351 q 875 1299 875 1351 q 869 1276 875 1285 q 853 1257 864 1267 l 600 1025 z "},"Þ":{"ha":1385,"x_min":138,"x_max":1286,"o":"m 138 910 q 215 968 138 968 q 288 910 288 968 l 288 813 l 854 813 q 1286 544 1286 813 l 1286 425 q 854 157 1286 157 l 288 157 l 288 51 q 211 -7 288 -7 q 138 51 138 -7 l 138 910 m 288 699 l 288 271 l 858 271 q 1136 429 1136 271 l 1136 540 q 858 699 1136 699 l 288 699 z "},"ß":{"ha":1353,"x_min":133,"x_max":1239,"o":"m 1239 221 q 881 0 1239 0 l 529 0 q 457 57 457 0 q 529 113 457 113 l 890 113 q 1092 219 1092 113 l 1092 313 q 922 417 1092 417 l 821 417 q 601 556 601 417 l 601 785 q 464 875 601 875 l 418 875 q 281 779 281 875 l 281 51 q 207 -7 281 -7 q 133 51 133 -7 l 133 778 q 414 985 133 985 l 472 985 q 740 783 740 985 l 740 569 q 828 526 740 526 l 928 526 q 1239 325 1239 526 l 1239 221 z "},"à":{"ha":1256,"x_min":96,"x_max":1128,"o":"m 96 0 m 393 0 q 96 185 96 0 l 96 264 q 393 447 96 447 l 983 447 l 983 468 q 813 565 983 565 l 617 565 q 547 619 547 565 q 617 675 547 675 l 813 675 q 1128 468 1128 675 l 1128 196 q 825 0 1128 0 l 393 0 m 817 108 q 983 200 983 108 l 983 351 l 404 351 q 242 267 242 351 l 242 194 q 404 108 242 108 l 817 108 m 522 978 q 505 996 511 988 q 500 1019 499 1004 q 578 1072 500 1072 q 613 1068 597 1072 q 639 1050 628 1064 l 875 808 q 892 772 892 788 q 829 724 892 724 q 801 728 814 724 q 775 746 789 733 l 522 978 z "},"á":{"ha":1256,"x_min":96,"x_max":1128,"o":"m 96 0 m 393 0 q 96 185 96 0 l 96 264 q 393 447 96 447 l 983 447 l 983 468 q 813 565 983 565 l 617 565 q 547 619 547 565 q 617 675 547 675 l 813 675 q 1128 468 1128 675 l 1128 196 q 825 0 1128 0 l 393 0 m 817 108 q 983 200 983 108 l 983 351 l 404 351 q 242 267 242 351 l 242 194 q 404 108 242 108 l 817 108 m 697 746 q 670 728 682 732 q 643 724 658 724 q 581 772 581 724 q 597 807 581 790 l 833 1050 q 893 1072 854 1072 q 972 1019 972 1072 q 967 997 972 1006 q 950 978 961 988 l 697 746 z "},"â":{"ha":1256,"x_min":96,"x_max":1128,"o":"m 96 0 m 393 0 q 96 185 96 0 l 96 264 q 393 447 96 447 l 983 447 l 983 468 q 813 565 983 565 l 617 565 q 547 619 547 565 q 617 675 547 675 l 813 675 q 1128 468 1128 675 l 1128 196 q 825 0 1128 0 l 393 0 m 817 108 q 983 200 983 108 l 983 351 l 404 351 q 242 267 242 351 l 242 194 q 404 108 242 108 l 817 108 m 735 936 l 583 749 q 558 730 574 736 q 528 724 543 724 q 465 774 465 724 q 467 788 464 781 q 482 810 471 796 l 678 1049 q 703 1065 688 1060 q 735 1072 718 1071 q 767 1066 751 1072 q 793 1047 782 1060 l 989 810 q 1003 788 1000 796 q 1007 774 1007 781 q 943 724 1007 724 q 888 749 908 724 l 735 936 z "},"ã":{"ha":1256,"x_min":96,"x_max":1128,"o":"m 96 0 m 393 0 q 96 185 96 0 l 96 264 q 393 447 96 447 l 983 447 l 983 468 q 813 565 983 565 l 617 565 q 547 619 547 565 q 617 675 547 675 l 813 675 q 1128 468 1128 675 l 1128 196 q 825 0 1128 0 l 393 0 m 817 108 q 983 200 983 108 l 983 351 l 404 351 q 242 267 242 351 l 242 194 q 404 108 242 108 l 817 108 m 415 797 q 351 847 351 797 q 415 897 351 897 l 1056 897 q 1119 847 1119 897 q 1056 797 1119 797 l 415 797 z "},"ä":{"ha":1256,"x_min":96,"x_max":1128,"o":"m 96 0 m 393 0 q 96 185 96 0 l 96 264 q 393 447 96 447 l 983 447 l 983 468 q 813 565 983 565 l 617 565 q 547 619 547 565 q 617 675 547 675 l 813 675 q 1128 468 1128 675 l 1128 196 q 825 0 1128 0 l 393 0 m 817 108 q 983 200 983 108 l 983 351 l 404 351 q 242 267 242 351 l 242 194 q 404 108 242 108 l 817 108 m 929 847 q 846 781 929 781 q 765 847 765 781 q 846 914 765 914 q 929 847 929 914 m 597 847 q 517 781 597 781 q 436 847 436 781 q 517 914 436 914 q 597 847 597 914 z "},"å":{"ha":1256,"x_min":96,"x_max":1128,"o":"m 96 0 m 393 0 q 96 185 96 0 l 96 264 q 393 447 96 447 l 983 447 l 983 468 q 813 565 983 565 l 617 565 q 547 619 547 565 q 617 675 547 675 l 813 675 q 1128 468 1128 675 l 1128 196 q 825 0 1128 0 l 393 0 m 817 108 q 983 200 983 108 l 983 351 l 404 351 q 242 267 242 351 l 242 194 q 404 108 242 108 l 817 108 m 689 728 q 543 867 543 728 l 543 932 q 689 1072 543 1072 l 781 1072 q 926 932 926 1072 l 926 867 q 781 728 926 728 l 689 728 m 828 935 q 775 996 828 996 l 694 996 q 642 935 642 996 l 642 865 q 694 806 642 806 l 775 806 q 828 865 828 806 l 828 935 z "},"æ":{"ha":2086,"x_min":96,"x_max":1988,"o":"m 1133 292 l 1133 207 q 1326 108 1133 108 l 1532 108 q 1601 54 1601 108 q 1532 0 1601 0 l 1326 0 q 1064 57 1146 0 q 825 0 990 0 l 393 0 q 96 185 96 0 l 96 264 q 393 447 96 447 l 983 447 l 983 468 q 813 565 983 565 l 617 565 q 547 619 547 565 q 617 675 547 675 l 813 675 q 1054 619 975 675 q 1290 675 1133 675 l 1692 675 q 1988 497 1988 675 l 1988 342 q 1924 292 1988 292 l 1133 292 m 817 108 q 983 200 983 108 l 983 351 l 404 351 q 242 267 242 351 l 242 194 q 404 108 242 108 l 817 108 m 1133 388 l 1831 388 q 1842 397 1842 388 l 1842 469 q 1681 565 1842 565 l 1299 565 q 1133 469 1133 565 l 1133 388 z "},"ç":{"ha":1142,"x_min":126,"x_max":1039,"o":"m 126 0 m 486 0 q 126 219 126 0 l 126 454 q 486 675 126 675 l 967 675 q 1039 618 1039 675 q 967 561 1039 561 l 481 561 q 275 456 275 561 l 275 218 q 481 113 275 113 l 967 113 q 1039 57 1039 113 q 967 0 1039 0 l 486 0 m 718 -136 q 471 -315 718 -315 l 422 -315 q 364 -269 364 -315 q 422 -224 364 -224 l 471 -224 q 596 -137 596 -224 l 596 -72 q 657 -25 596 -25 q 718 -72 718 -25 l 718 -136 z "},"è":{"ha":1225,"x_min":126,"x_max":1126,"o":"m 126 0 m 272 292 l 272 207 q 465 108 272 108 l 671 108 q 740 54 740 108 q 671 0 740 0 l 465 0 q 126 206 126 0 l 126 478 q 429 675 126 675 l 831 675 q 1126 497 1126 675 l 1126 342 q 1063 292 1126 292 l 272 292 m 272 388 l 969 388 q 981 397 981 388 l 981 469 q 819 565 981 565 l 438 565 q 272 469 272 565 l 272 388 m 394 978 q 377 996 383 988 q 372 1019 371 1004 q 450 1072 372 1072 q 485 1068 469 1072 q 511 1050 500 1064 l 747 808 q 764 772 764 788 q 701 724 764 724 q 674 728 686 724 q 647 746 661 733 l 394 978 z "},"é":{"ha":1225,"x_min":126,"x_max":1126,"o":"m 126 0 m 272 292 l 272 207 q 465 108 272 108 l 671 108 q 740 54 740 108 q 671 0 740 0 l 465 0 q 126 206 126 0 l 126 478 q 429 675 126 675 l 831 675 q 1126 497 1126 675 l 1126 342 q 1063 292 1126 292 l 272 292 m 272 388 l 969 388 q 981 397 981 388 l 981 469 q 819 565 981 565 l 438 565 q 272 469 272 565 l 272 388 m 597 746 q 570 728 582 732 q 543 724 558 724 q 481 772 481 724 q 497 807 481 790 l 733 1050 q 793 1072 754 1072 q 872 1019 872 1072 q 867 997 872 1006 q 850 978 861 988 l 597 746 z "},"ê":{"ha":1225,"x_min":126,"x_max":1126,"o":"m 126 0 m 272 292 l 272 207 q 465 108 272 108 l 671 108 q 740 54 740 108 q 671 0 740 0 l 465 0 q 126 206 126 0 l 126 478 q 429 675 126 675 l 831 675 q 1126 497 1126 675 l 1126 342 q 1063 292 1126 292 l 272 292 m 272 388 l 969 388 q 981 397 981 388 l 981 469 q 819 565 981 565 l 438 565 q 272 469 272 565 l 272 388 m 619 936 l 468 749 q 443 730 458 736 q 413 724 428 724 q 350 774 350 724 q 352 788 349 781 q 367 810 356 796 l 563 1049 q 588 1065 572 1060 q 619 1072 603 1071 q 651 1066 636 1072 q 678 1047 667 1060 l 874 810 q 888 788 885 796 q 892 774 892 781 q 828 724 892 724 q 772 749 793 724 l 619 936 z "},"ë":{"ha":1225,"x_min":126,"x_max":1126,"o":"m 126 0 m 272 292 l 272 207 q 465 108 272 108 l 671 108 q 740 54 740 108 q 671 0 740 0 l 465 0 q 126 206 126 0 l 126 478 q 429 675 126 675 l 831 675 q 1126 497 1126 675 l 1126 342 q 1063 292 1126 292 l 272 292 m 272 388 l 969 388 q 981 397 981 388 l 981 469 q 819 565 981 565 l 438 565 q 272 469 272 565 l 272 388 m 869 847 q 786 781 869 781 q 706 847 706 781 q 786 914 706 914 q 869 847 869 914 m 538 847 q 457 781 538 781 q 376 847 376 781 q 457 914 376 914 q 538 847 538 914 z "},"ì":{"ha":433,"x_min":-1,"x_max":392,"o":"m 0 0 m 22 978 q 5 996 11 988 q 0 1019 -1 1004 q 78 1072 0 1072 q 113 1068 97 1072 q 139 1050 128 1064 l 375 808 q 392 772 392 788 q 329 724 392 724 q 301 728 314 724 q 275 746 289 733 l 22 978 m 178 624 q 251 682 178 682 q 325 624 325 682 l 325 51 q 251 -7 325 -7 q 178 51 178 -7 l 178 624 z "},"í":{"ha":433,"x_min":42,"x_max":433,"o":"m 42 0 m 158 746 q 131 728 143 732 q 104 724 119 724 q 42 772 42 724 q 58 807 42 790 l 294 1050 q 354 1072 315 1072 q 433 1019 433 1072 q 428 997 433 1006 q 411 978 422 988 l 158 746 m 110 624 q 183 682 110 682 q 257 624 257 682 l 257 51 q 183 -7 257 -7 q 110 51 110 -7 l 110 624 z "},"î":{"ha":542,"x_min":-1,"x_max":542,"o":"m 0 0 m 197 624 q 271 682 197 682 q 344 624 344 682 l 344 51 q 271 -7 344 -7 q 197 51 197 -7 l 197 624 m 269 936 l 118 749 q 93 730 108 736 q 63 724 78 724 q 0 774 0 724 q 2 788 -1 781 q 17 810 6 796 l 213 1049 q 238 1065 222 1060 q 269 1072 253 1071 q 301 1066 286 1072 q 328 1047 317 1060 l 524 810 q 538 788 535 796 q 542 774 542 781 q 478 724 542 724 q 422 749 443 724 l 269 936 z "},"ï":{"ha":494,"x_min":0,"x_max":493,"o":"m 0 0 m 493 847 q 410 781 493 781 q 329 847 329 781 q 410 914 329 914 q 493 847 493 914 m 161 847 q 81 781 161 781 q 0 847 0 781 q 81 914 0 914 q 161 847 161 914 m 172 624 q 246 682 172 682 q 319 624 319 682 l 319 51 q 246 -7 319 -7 q 172 51 172 -7 l 172 624 z "},"ð":{"ha":1261,"x_min":126,"x_max":1124,"o":"m 486 0 q 126 219 126 0 l 126 433 q 486 654 126 654 l 976 654 l 976 774 q 785 871 976 871 l 575 871 q 506 925 506 871 q 575 981 506 981 l 785 981 q 1124 774 1124 981 l 1124 219 q 764 0 1124 0 l 486 0 m 769 113 q 976 218 976 113 l 976 547 l 481 547 q 275 442 275 547 l 275 218 q 481 113 275 113 l 769 113 z "},"ñ":{"ha":1246,"x_min":131,"x_max":1115,"o":"m 131 0 m 968 454 q 761 561 968 561 l 483 561 q 278 454 278 561 l 278 51 q 204 -7 278 -7 q 131 51 131 -7 l 131 454 q 489 675 131 675 l 757 675 q 1115 454 1115 675 l 1115 51 q 1042 -7 1115 -7 q 968 51 968 -7 l 968 454 m 303 797 q 239 847 239 797 q 303 897 239 897 l 943 897 q 1007 847 1007 897 q 943 797 1007 797 l 303 797 z "},"ò":{"ha":1240,"x_min":126,"x_max":1114,"o":"m 126 0 m 486 0 q 126 219 126 0 l 126 454 q 486 675 126 675 l 754 675 q 1114 454 1114 675 l 1114 219 q 754 0 1114 0 l 486 0 m 965 456 q 758 561 965 561 l 481 561 q 275 456 275 561 l 275 218 q 481 113 275 113 l 758 113 q 965 218 965 113 l 965 456 m 394 978 q 377 996 383 988 q 372 1019 371 1004 q 450 1072 372 1072 q 485 1068 469 1072 q 511 1050 500 1064 l 747 808 q 764 772 764 788 q 701 724 764 724 q 674 728 686 724 q 647 746 661 733 l 394 978 z "},"ó":{"ha":1240,"x_min":126,"x_max":1114,"o":"m 126 0 m 486 0 q 126 219 126 0 l 126 454 q 486 675 126 675 l 754 675 q 1114 454 1114 675 l 1114 219 q 754 0 1114 0 l 486 0 m 965 456 q 758 561 965 561 l 481 561 q 275 456 275 561 l 275 218 q 481 113 275 113 l 758 113 q 965 218 965 113 l 965 456 m 596 746 q 569 728 581 732 q 542 724 557 724 q 479 772 479 724 q 496 807 479 790 l 732 1050 q 792 1072 753 1072 q 871 1019 871 1072 q 865 997 871 1006 q 849 978 860 988 l 596 746 z "},"ô":{"ha":1240,"x_min":126,"x_max":1114,"o":"m 126 0 m 486 0 q 126 219 126 0 l 126 454 q 486 675 126 675 l 754 675 q 1114 454 1114 675 l 1114 219 q 754 0 1114 0 l 486 0 m 965 456 q 758 561 965 561 l 481 561 q 275 456 275 561 l 275 218 q 481 113 275 113 l 758 113 q 965 218 965 113 l 965 456 m 619 936 l 468 749 q 443 730 458 736 q 413 724 428 724 q 350 774 350 724 q 352 788 349 781 q 367 810 356 796 l 563 1049 q 588 1065 572 1060 q 619 1072 603 1071 q 651 1066 636 1072 q 678 1047 667 1060 l 874 810 q 888 788 885 796 q 892 774 892 781 q 828 724 892 724 q 772 749 793 724 l 619 936 z "},"õ":{"ha":1240,"x_min":126,"x_max":1114,"o":"m 126 0 m 486 0 q 126 219 126 0 l 126 454 q 486 675 126 675 l 754 675 q 1114 454 1114 675 l 1114 219 q 754 0 1114 0 l 486 0 m 965 456 q 758 561 965 561 l 481 561 q 275 456 275 561 l 275 218 q 481 113 275 113 l 758 113 q 965 218 965 113 l 965 456 m 300 797 q 236 847 236 797 q 300 897 236 897 l 940 897 q 1004 847 1004 897 q 940 797 1004 797 l 300 797 z "},"ö":{"ha":1240,"x_min":126,"x_max":1114,"o":"m 126 0 m 486 0 q 126 219 126 0 l 126 454 q 486 675 126 675 l 754 675 q 1114 454 1114 675 l 1114 219 q 754 0 1114 0 l 486 0 m 965 456 q 758 561 965 561 l 481 561 q 275 456 275 561 l 275 218 q 481 113 275 113 l 758 113 q 965 218 965 113 l 965 456 m 865 847 q 782 781 865 781 q 701 847 701 781 q 782 914 701 914 q 865 847 865 914 m 533 847 q 453 781 533 781 q 372 847 372 781 q 453 914 372 914 q 533 847 533 914 z "},"÷":{"ha":1007,"x_min":90,"x_max":915,"o":"m 90 75 m 160 429 q 90 485 90 429 q 160 538 90 538 l 846 538 q 915 485 915 538 q 846 429 915 429 l 160 429 m 588 143 q 504 75 588 75 q 422 143 422 75 q 506 211 422 211 q 588 143 588 211 m 588 811 q 504 743 588 743 q 422 811 422 743 q 506 879 422 879 q 588 811 588 879 z "},"ø":{"ha":1240,"x_min":118,"x_max":1125,"o":"m 486 0 q 313 17 385 0 l 218 -62 q 174 -82 193 -85 q 133 -70 149 -82 q 118 -36 118 -58 q 122 -20 118 -29 q 139 0 126 -11 l 210 58 q 126 219 126 114 l 126 454 q 486 675 126 675 l 754 675 q 924 658 853 675 l 1026 744 q 1071 764 1050 764 q 1109 753 1093 764 q 1125 718 1125 742 q 1107 683 1125 700 l 1028 617 q 1114 454 1114 563 l 1114 219 q 754 0 1114 0 l 486 0 m 965 456 q 922 529 965 503 l 428 114 q 453 113 440 113 q 481 113 465 113 l 758 113 q 965 218 965 113 l 965 456 m 275 218 q 314 146 275 172 l 806 560 q 783 561 794 561 q 758 561 771 561 l 481 561 q 275 456 275 561 l 275 218 z "},"ù":{"ha":1232,"x_min":131,"x_max":1101,"o":"m 131 0 m 489 0 q 131 219 131 0 l 131 624 q 204 682 131 682 q 278 624 278 682 l 278 218 q 483 113 278 113 l 747 113 q 953 218 953 113 l 953 624 q 1026 682 953 682 q 1101 624 1101 682 l 1101 219 q 743 0 1101 0 l 489 0 m 389 978 q 372 996 378 988 q 367 1019 365 1004 q 444 1072 367 1072 q 479 1068 464 1072 q 506 1050 494 1064 l 742 808 q 758 772 758 788 q 696 724 758 724 q 668 728 681 724 q 642 746 656 733 l 389 978 z "},"ú":{"ha":1232,"x_min":131,"x_max":1101,"o":"m 131 0 m 489 0 q 131 219 131 0 l 131 624 q 204 682 131 682 q 278 624 278 682 l 278 218 q 483 113 278 113 l 747 113 q 953 218 953 113 l 953 624 q 1026 682 953 682 q 1101 624 1101 682 l 1101 219 q 743 0 1101 0 l 489 0 m 593 746 q 566 728 578 732 q 539 724 554 724 q 476 772 476 724 q 493 807 476 790 l 729 1050 q 789 1072 750 1072 q 868 1019 868 1072 q 863 997 868 1006 q 846 978 857 988 l 593 746 z "},"û":{"ha":1232,"x_min":131,"x_max":1101,"o":"m 131 0 m 489 0 q 131 219 131 0 l 131 624 q 204 682 131 682 q 278 624 278 682 l 278 218 q 483 113 278 113 l 747 113 q 953 218 953 113 l 953 624 q 1026 682 953 682 q 1101 624 1101 682 l 1101 219 q 743 0 1101 0 l 489 0 m 615 936 l 464 749 q 439 730 454 736 q 408 724 424 724 q 346 774 346 724 q 348 788 344 781 q 363 810 351 796 l 558 1049 q 583 1065 568 1060 q 615 1072 599 1071 q 647 1066 632 1072 q 674 1047 663 1060 l 869 810 q 884 788 881 796 q 888 774 888 781 q 824 724 888 724 q 768 749 789 724 l 615 936 z "},"ü":{"ha":1232,"x_min":131,"x_max":1101,"o":"m 131 0 m 489 0 q 131 219 131 0 l 131 624 q 204 682 131 682 q 278 624 278 682 l 278 218 q 483 113 278 113 l 747 113 q 953 218 953 113 l 953 624 q 1026 682 953 682 q 1101 624 1101 682 l 1101 219 q 743 0 1101 0 l 489 0 m 863 847 q 779 781 863 781 q 699 847 699 781 q 779 914 699 914 q 863 847 863 914 m 531 847 q 450 781 531 781 q 369 847 369 781 q 450 914 369 914 q 531 847 531 914 z "},"ý":{"ha":1251,"x_min":131,"x_max":1118,"o":"m 131 0 m 569 -233 q 500 -179 500 -233 q 569 -125 500 -125 l 779 -125 q 971 -26 971 -125 l 971 21 l 489 21 q 131 272 131 21 l 131 624 q 204 682 131 682 q 278 624 278 682 l 278 265 q 474 128 278 128 l 971 128 l 971 624 q 1043 682 971 682 q 1118 624 1118 682 l 1118 -26 q 779 -233 1118 -233 l 569 -233 m 610 746 q 583 728 594 732 q 556 724 571 724 q 493 772 493 724 q 510 807 493 790 l 746 1050 q 806 1072 767 1072 q 885 1019 885 1072 q 879 997 885 1006 q 863 978 874 988 l 610 746 z "},"þ":{"ha":1254,"x_min":131,"x_max":1126,"o":"m 131 929 q 204 988 131 988 q 278 929 278 988 l 278 675 l 768 675 q 1126 454 1126 675 l 1126 219 q 768 0 1126 0 l 278 0 l 278 -183 q 204 -242 278 -242 q 131 -183 131 -242 l 131 929 m 278 561 l 278 113 l 772 113 q 978 218 978 113 l 978 456 q 772 561 978 561 l 278 561 z "},"ÿ":{"ha":1251,"x_min":131,"x_max":1118,"o":"m 131 0 m 569 -233 q 500 -179 500 -233 q 569 -125 500 -125 l 779 -125 q 971 -26 971 -125 l 971 21 l 489 21 q 131 272 131 21 l 131 624 q 204 682 131 682 q 278 624 278 682 l 278 265 q 474 128 278 128 l 971 128 l 971 624 q 1043 682 971 682 q 1118 624 1118 682 l 1118 -26 q 779 -233 1118 -233 l 569 -233 m 871 847 q 788 781 871 781 q 707 847 707 781 q 788 914 707 914 q 871 847 871 914 m 539 847 q 458 781 539 781 q 378 847 378 781 q 458 914 378 914 q 539 847 539 914 z "},"Ā":{"ha":1439,"x_min":78,"x_max":1363,"o":"m 78 0 m 1071 257 l 369 257 l 226 33 q 154 -7 200 -7 q 99 8 119 -7 q 78 50 78 22 q 81 70 78 61 q 93 93 83 79 l 643 931 q 676 958 656 950 q 719 968 696 967 q 793 931 768 968 l 1344 94 q 1359 71 1356 81 q 1363 50 1363 61 q 1342 8 1363 22 q 1286 -7 1321 -7 q 1215 33 1242 -7 l 1071 257 m 439 364 l 1003 364 l 719 803 l 439 364 m 399 1076 q 335 1126 335 1076 q 399 1176 335 1176 l 1039 1176 q 1103 1126 1103 1176 q 1039 1076 1103 1076 l 399 1076 z "},"ā":{"ha":1256,"x_min":96,"x_max":1128,"o":"m 96 0 m 393 0 q 96 185 96 0 l 96 264 q 393 447 96 447 l 983 447 l 983 468 q 813 565 983 565 l 617 565 q 547 619 547 565 q 617 675 547 675 l 813 675 q 1128 468 1128 675 l 1128 196 q 825 0 1128 0 l 393 0 m 817 108 q 983 200 983 108 l 983 351 l 404 351 q 242 267 242 351 l 242 194 q 404 108 242 108 l 817 108 m 415 797 q 351 847 351 797 q 415 897 351 897 l 1056 897 q 1119 847 1119 897 q 1056 797 1119 797 l 415 797 z "},"Ă":{"ha":1439,"x_min":78,"x_max":1363,"o":"m 78 0 m 1071 257 l 369 257 l 226 33 q 154 -7 200 -7 q 99 8 119 -7 q 78 50 78 22 q 81 70 78 61 q 93 93 83 79 l 643 931 q 676 958 656 950 q 719 968 696 967 q 793 931 768 968 l 1344 94 q 1359 71 1356 81 q 1363 50 1363 61 q 1342 8 1363 22 q 1286 -7 1321 -7 q 1215 33 1242 -7 l 1071 257 m 439 364 l 1003 364 l 719 803 l 439 364 m 1044 1256 q 1024 1160 1044 1206 q 961 1081 1003 1115 q 858 1026 919 1046 q 718 1006 797 1006 q 578 1026 639 1006 q 476 1081 518 1046 q 414 1160 435 1115 q 393 1256 393 1206 q 406 1301 393 1288 q 454 1314 418 1314 q 501 1303 488 1314 q 521 1272 514 1292 q 535 1213 526 1243 q 565 1158 544 1183 q 622 1117 586 1133 q 718 1101 658 1101 q 814 1117 778 1101 q 871 1158 850 1133 q 901 1213 892 1183 q 915 1272 910 1243 q 936 1303 922 1292 q 983 1314 950 1314 q 1031 1301 1018 1314 q 1044 1256 1044 1288 z "},"ă":{"ha":1256,"x_min":96,"x_max":1128,"o":"m 96 0 m 393 0 q 96 185 96 0 l 96 264 q 393 447 96 447 l 983 447 l 983 468 q 813 565 983 565 l 617 565 q 547 619 547 565 q 617 675 547 675 l 813 675 q 1128 468 1128 675 l 1128 196 q 825 0 1128 0 l 393 0 m 817 108 q 983 200 983 108 l 983 351 l 404 351 q 242 267 242 351 l 242 194 q 404 108 242 108 l 817 108 m 1061 976 q 1040 881 1061 926 q 978 801 1019 836 q 875 747 936 767 q 735 726 814 726 q 595 747 656 726 q 493 801 535 767 q 431 881 451 836 q 410 976 410 926 q 422 1022 410 1008 q 471 1035 435 1035 q 517 1024 504 1035 q 538 993 531 1013 q 552 934 543 964 q 582 879 561 904 q 639 838 603 854 q 735 822 675 822 q 831 838 794 822 q 888 879 867 854 q 917 934 908 904 q 932 993 926 964 q 953 1024 939 1013 q 1000 1035 967 1035 q 1048 1022 1035 1035 q 1061 976 1061 1008 z "},"Ą":{"ha":1439,"x_min":78,"x_max":1421,"o":"m 1129 -315 q 1051 -297 1076 -315 q 1026 -250 1026 -278 q 1058 -181 1026 -217 l 1226 18 q 1215 33 1219 25 l 1071 257 l 369 257 l 226 33 q 154 -7 200 -7 q 99 8 119 -7 q 78 50 78 22 q 81 70 78 61 q 93 93 83 79 l 643 931 q 676 958 656 950 q 719 968 696 967 q 793 931 768 968 l 1344 94 q 1359 71 1356 81 q 1363 50 1363 61 q 1343 3 1363 26 l 1163 -208 l 1353 -208 q 1421 -262 1421 -208 q 1353 -315 1421 -315 l 1129 -315 m 439 364 l 1003 364 l 719 803 l 439 364 z "},"ą":{"ha":1256,"x_min":96,"x_max":1128,"o":"m 703 -315 q 625 -297 650 -315 q 600 -250 600 -278 q 632 -181 600 -215 l 782 0 l 393 0 q 96 185 96 0 l 96 264 q 393 447 96 447 l 983 447 l 983 468 q 813 565 983 565 l 617 565 q 547 619 547 565 q 617 675 547 675 l 813 675 q 1128 468 1128 675 l 1128 196 q 908 4 1128 29 l 733 -208 l 926 -208 q 994 -262 994 -208 q 926 -315 994 -315 l 703 -315 m 817 108 q 983 200 983 108 l 983 351 l 404 351 q 242 267 242 351 l 242 194 q 404 108 242 108 l 817 108 z "},"Ć":{"ha":1240,"x_min":133,"x_max":1135,"o":"m 133 0 m 540 0 q 133 267 133 0 l 133 699 q 533 961 133 961 l 1065 961 q 1135 904 1135 961 q 1065 847 1135 847 l 536 847 q 283 696 283 847 l 283 271 q 547 114 283 114 l 1065 114 q 1135 57 1135 114 q 1065 0 1135 0 l 540 0 m 663 1025 q 635 1007 647 1011 q 608 1003 624 1003 q 546 1051 546 1003 q 563 1086 546 1069 l 799 1329 q 858 1351 819 1351 q 938 1299 938 1351 q 932 1276 938 1285 q 915 1257 926 1267 l 663 1025 z "},"ć":{"ha":1142,"x_min":126,"x_max":1039,"o":"m 126 0 m 486 0 q 126 219 126 0 l 126 454 q 486 675 126 675 l 967 675 q 1039 618 1039 675 q 967 561 1039 561 l 481 561 q 275 456 275 561 l 275 218 q 481 113 275 113 l 967 113 q 1039 57 1039 113 q 967 0 1039 0 l 486 0 m 588 746 q 560 728 572 732 q 533 724 549 724 q 471 772 471 724 q 488 807 471 790 l 724 1050 q 783 1072 744 1072 q 863 1019 863 1072 q 857 997 863 1006 q 840 978 851 988 l 588 746 z "},"Ċ":{"ha":1240,"x_min":133,"x_max":1135,"o":"m 133 0 m 540 0 q 133 267 133 0 l 133 699 q 533 961 133 961 l 1065 961 q 1135 904 1135 961 q 1065 847 1135 847 l 536 847 q 283 696 283 847 l 283 271 q 547 114 283 114 l 1065 114 q 1135 57 1135 114 q 1065 0 1135 0 l 540 0 m 769 1126 q 689 1060 769 1060 q 608 1126 608 1060 q 689 1193 608 1193 q 769 1126 769 1193 z "},"ċ":{"ha":1142,"x_min":126,"x_max":1039,"o":"m 126 0 m 486 0 q 126 219 126 0 l 126 454 q 486 675 126 675 l 967 675 q 1039 618 1039 675 q 967 561 1039 561 l 481 561 q 275 456 275 561 l 275 218 q 481 113 275 113 l 967 113 q 1039 57 1039 113 q 967 0 1039 0 l 486 0 m 708 847 q 628 781 708 781 q 547 847 547 781 q 628 914 547 914 q 708 847 708 914 z "},"Č":{"ha":1240,"x_min":133,"x_max":1135,"o":"m 133 0 m 540 0 q 133 267 133 0 l 133 699 q 533 961 133 961 l 1065 961 q 1135 904 1135 961 q 1065 847 1135 847 l 536 847 q 283 696 283 847 l 283 271 q 547 114 283 114 l 1065 114 q 1135 57 1135 114 q 1065 0 1135 0 l 540 0 m 747 1028 q 721 1009 736 1015 q 689 1003 706 1003 q 632 1029 654 1003 l 436 1267 q 422 1287 425 1279 q 419 1303 418 1294 q 482 1351 419 1351 q 538 1328 518 1351 l 689 1140 l 842 1328 q 866 1344 851 1339 q 897 1351 881 1350 q 961 1303 961 1351 q 958 1287 961 1294 q 943 1267 954 1279 l 747 1028 z "},"č":{"ha":1142,"x_min":126,"x_max":1039,"o":"m 126 0 m 486 0 q 126 219 126 0 l 126 454 q 486 675 126 675 l 967 675 q 1039 618 1039 675 q 967 561 1039 561 l 481 561 q 275 456 275 561 l 275 218 q 481 113 275 113 l 967 113 q 1039 57 1039 113 q 967 0 1039 0 l 486 0 m 696 749 q 669 730 685 736 q 638 724 654 724 q 581 750 603 724 l 385 988 q 370 1008 374 1000 q 368 1024 367 1015 q 431 1072 368 1072 q 486 1049 467 1072 l 638 861 l 790 1049 q 815 1065 800 1060 q 846 1072 829 1071 q 910 1024 910 1072 q 906 1008 910 1015 q 892 988 903 1000 l 696 749 z "},"Ď":{"ha":1417,"x_min":138,"x_max":1286,"o":"m 138 0 m 1136 689 q 860 847 1136 847 l 299 847 q 288 839 288 847 l 288 122 q 299 114 288 114 l 858 114 q 1136 272 1136 114 l 1136 689 m 204 0 q 138 49 138 0 l 138 913 q 201 961 138 961 l 854 961 q 1286 693 1286 961 l 1286 268 q 854 0 1286 0 l 204 0 m 739 1028 q 713 1009 728 1015 q 681 1003 697 1003 q 624 1029 646 1003 l 428 1267 q 413 1287 417 1279 q 411 1303 410 1294 q 474 1351 411 1351 q 529 1328 510 1351 l 681 1140 l 833 1328 q 858 1344 843 1339 q 889 1351 872 1350 q 953 1303 953 1351 q 949 1287 953 1294 q 935 1267 946 1279 l 739 1028 z "},"ď":{"ha":1414,"x_min":132,"x_max":1433,"o":"m 132 0 m 490 0 q 132 219 132 0 l 132 454 q 490 675 132 675 l 981 675 l 981 929 q 1056 988 981 988 q 1129 929 1129 988 l 1129 219 q 771 0 1129 0 l 490 0 m 775 113 q 981 218 981 113 l 981 561 l 486 561 q 281 456 281 561 l 281 218 q 486 113 281 113 l 775 113 m 1381 754 q 1315 706 1368 706 q 1263 754 1263 706 q 1263 776 1263 763 q 1265 807 1264 789 l 1281 1043 q 1300 1091 1283 1074 q 1357 1108 1317 1108 q 1433 1046 1433 1108 q 1431 1020 1433 1035 q 1425 993 1428 1006 l 1381 754 z "},"Đ":{"ha":1461,"x_min":63,"x_max":1331,"o":"m 63 0 m 249 0 q 182 49 182 0 l 182 431 l 128 431 q 63 485 63 431 q 128 539 63 539 l 182 539 l 182 913 q 246 961 182 961 l 899 961 q 1331 693 1331 961 l 1331 268 q 899 0 1331 0 l 249 0 m 1181 689 q 904 847 1181 847 l 343 847 q 332 839 332 847 l 332 539 l 713 539 q 779 485 779 539 q 713 431 779 431 l 332 431 l 332 122 q 343 114 332 114 l 903 114 q 1181 272 1181 114 l 1181 689 z "},"đ":{"ha":1265,"x_min":132,"x_max":1228,"o":"m 1129 797 l 1129 219 q 771 0 1129 0 l 490 0 q 132 219 132 0 l 132 454 q 490 675 132 675 l 981 675 l 981 797 l 524 797 q 460 847 460 797 q 524 897 460 897 l 981 897 l 981 929 q 1056 988 981 988 q 1129 929 1129 988 l 1129 897 l 1164 897 q 1228 847 1228 897 q 1164 797 1228 797 l 1129 797 m 775 113 q 981 218 981 113 l 981 561 l 486 561 q 281 456 281 561 l 281 218 q 486 113 281 113 l 775 113 z "},"Ē":{"ha":1290,"x_min":133,"x_max":1182,"o":"m 133 0 m 540 0 q 133 267 133 0 l 133 699 q 533 961 133 961 l 732 961 q 801 904 801 961 q 732 847 801 847 l 536 847 q 283 696 283 847 l 283 539 l 1111 539 q 1178 485 1178 539 q 1111 431 1178 431 l 283 431 l 283 271 q 547 114 283 114 l 1111 114 q 1182 57 1182 114 q 1111 0 1182 0 l 540 0 m 285 1076 q 221 1126 221 1076 q 285 1176 221 1176 l 925 1176 q 989 1126 989 1176 q 925 1076 989 1076 l 285 1076 z "},"ē":{"ha":1225,"x_min":126,"x_max":1126,"o":"m 126 0 m 272 292 l 272 207 q 465 108 272 108 l 671 108 q 740 54 740 108 q 671 0 740 0 l 465 0 q 126 206 126 0 l 126 478 q 429 675 126 675 l 831 675 q 1126 497 1126 675 l 1126 342 q 1063 292 1126 292 l 272 292 m 272 388 l 969 388 q 981 397 981 388 l 981 469 q 819 565 981 565 l 438 565 q 272 469 272 565 l 272 388 m 292 797 q 228 847 228 797 q 292 897 228 897 l 932 897 q 996 847 996 897 q 932 797 996 797 l 292 797 z "},"Ĕ":{"ha":1290,"x_min":133,"x_max":1182,"o":"m 133 0 m 540 0 q 133 267 133 0 l 133 699 q 533 961 133 961 l 732 961 q 801 904 801 961 q 732 847 801 847 l 536 847 q 283 696 283 847 l 283 539 l 1111 539 q 1178 485 1178 539 q 1111 431 1178 431 l 283 431 l 283 271 q 547 114 283 114 l 1111 114 q 1182 57 1182 114 q 1111 0 1182 0 l 540 0 m 929 1256 q 908 1160 929 1206 q 846 1081 888 1115 q 743 1026 804 1046 q 603 1006 682 1006 q 463 1026 524 1006 q 361 1081 403 1046 q 299 1160 319 1115 q 278 1256 278 1206 q 290 1301 278 1288 q 339 1314 303 1314 q 385 1303 372 1314 q 406 1272 399 1292 q 420 1213 411 1243 q 450 1158 429 1183 q 507 1117 471 1133 q 603 1101 543 1101 q 699 1117 663 1101 q 756 1158 735 1133 q 785 1213 776 1183 q 800 1272 794 1243 q 821 1303 807 1292 q 868 1314 835 1314 q 916 1301 903 1314 q 929 1256 929 1288 z "},"ĕ":{"ha":1225,"x_min":126,"x_max":1126,"o":"m 126 0 m 272 292 l 272 207 q 465 108 272 108 l 671 108 q 740 54 740 108 q 671 0 740 0 l 465 0 q 126 206 126 0 l 126 478 q 429 675 126 675 l 831 675 q 1126 497 1126 675 l 1126 342 q 1063 292 1126 292 l 272 292 m 272 388 l 969 388 q 981 397 981 388 l 981 469 q 819 565 981 565 l 438 565 q 272 469 272 565 l 272 388 m 939 976 q 918 881 939 926 q 856 801 897 836 q 753 747 814 767 q 613 726 692 726 q 473 747 533 726 q 371 801 413 767 q 308 881 329 836 q 288 976 288 926 q 300 1022 288 1008 q 349 1035 313 1035 q 395 1024 382 1035 q 415 993 408 1013 q 430 934 421 964 q 460 879 439 904 q 517 838 481 854 q 613 822 553 822 q 708 838 672 822 q 765 879 744 854 q 795 934 786 904 q 810 993 804 964 q 831 1024 817 1013 q 878 1035 844 1035 q 926 1022 913 1035 q 939 976 939 1008 z "},"Ė":{"ha":1290,"x_min":133,"x_max":1182,"o":"m 133 0 m 540 0 q 133 267 133 0 l 133 699 q 533 961 133 961 l 732 961 q 801 904 801 961 q 732 847 801 847 l 536 847 q 283 696 283 847 l 283 539 l 1111 539 q 1178 485 1178 539 q 1111 431 1178 431 l 283 431 l 283 271 q 547 114 283 114 l 1111 114 q 1182 57 1182 114 q 1111 0 1182 0 l 540 0 m 701 1126 q 621 1060 701 1060 q 540 1126 540 1060 q 621 1193 540 1193 q 701 1126 701 1193 z "},"ė":{"ha":1225,"x_min":126,"x_max":1126,"o":"m 126 0 m 272 292 l 272 207 q 465 108 272 108 l 671 108 q 740 54 740 108 q 671 0 740 0 l 465 0 q 126 206 126 0 l 126 478 q 429 675 126 675 l 831 675 q 1126 497 1126 675 l 1126 342 q 1063 292 1126 292 l 272 292 m 272 388 l 969 388 q 981 397 981 388 l 981 469 q 819 565 981 565 l 438 565 q 272 469 272 565 l 272 388 m 708 847 q 628 781 708 781 q 547 847 547 781 q 628 914 547 914 q 708 847 708 914 z "},"Ę":{"ha":1290,"x_min":133,"x_max":1239,"o":"m 947 -315 q 869 -297 894 -315 q 844 -250 844 -278 q 876 -181 844 -217 l 1029 0 l 540 0 q 133 267 133 0 l 133 699 q 533 961 133 961 l 732 961 q 801 904 801 961 q 732 847 801 847 l 536 847 q 283 696 283 847 l 283 539 l 1111 539 q 1178 485 1178 539 q 1111 431 1178 431 l 283 431 l 283 271 q 547 114 283 114 l 1111 114 q 1182 57 1182 114 q 1164 8 1182 31 l 981 -208 l 1171 -208 q 1239 -262 1239 -208 q 1171 -315 1239 -315 l 947 -315 z "},"ę":{"ha":1225,"x_min":126,"x_max":1126,"o":"m 503 -315 q 425 -297 450 -315 q 400 -250 400 -278 q 432 -181 400 -217 l 585 0 l 465 0 q 126 206 126 0 l 126 478 q 429 675 126 675 l 831 675 q 1126 497 1126 675 l 1126 342 q 1063 292 1126 292 l 272 292 l 272 207 q 465 108 272 108 l 671 108 q 723 96 706 108 q 740 63 740 83 q 731 33 740 47 q 713 7 722 18 l 535 -208 l 726 -208 q 794 -262 794 -208 q 726 -315 794 -315 l 503 -315 m 272 388 l 969 388 q 981 397 981 388 l 981 469 q 819 565 981 565 l 438 565 q 272 469 272 565 l 272 388 z "},"Ě":{"ha":1290,"x_min":133,"x_max":1182,"o":"m 133 0 m 540 0 q 133 267 133 0 l 133 699 q 533 961 133 961 l 732 961 q 801 904 801 961 q 732 847 801 847 l 536 847 q 283 696 283 847 l 283 539 l 1111 539 q 1178 485 1178 539 q 1111 431 1178 431 l 283 431 l 283 271 q 547 114 283 114 l 1111 114 q 1182 57 1182 114 q 1111 0 1182 0 l 540 0 m 703 1028 q 676 1009 692 1015 q 644 1003 661 1003 q 588 1029 610 1003 l 392 1267 q 377 1287 381 1279 q 375 1303 374 1294 q 438 1351 375 1351 q 493 1328 474 1351 l 644 1140 l 797 1328 q 822 1344 807 1339 q 853 1351 836 1350 q 917 1303 917 1351 q 913 1287 917 1294 q 899 1267 910 1279 l 703 1028 z "},"ě":{"ha":1225,"x_min":126,"x_max":1126,"o":"m 126 0 m 272 292 l 272 207 q 465 108 272 108 l 671 108 q 740 54 740 108 q 671 0 740 0 l 465 0 q 126 206 126 0 l 126 478 q 429 675 126 675 l 831 675 q 1126 497 1126 675 l 1126 342 q 1063 292 1126 292 l 272 292 m 272 388 l 969 388 q 981 397 981 388 l 981 469 q 819 565 981 565 l 438 565 q 272 469 272 565 l 272 388 m 669 749 q 643 730 658 736 q 611 724 628 724 q 554 750 576 724 l 358 988 q 344 1008 347 1000 q 342 1024 340 1015 q 404 1072 342 1072 q 460 1049 440 1072 l 611 861 l 764 1049 q 788 1065 774 1060 q 819 1072 803 1071 q 883 1024 883 1072 q 880 1008 883 1015 q 865 988 876 1000 l 669 749 z "},"Ğ":{"ha":1393,"x_min":133,"x_max":1261,"o":"m 133 0 m 540 0 q 133 272 133 0 l 133 703 q 533 961 133 961 l 724 961 q 794 904 794 961 q 724 847 794 847 l 536 847 q 283 700 283 847 l 283 276 q 547 114 283 114 l 847 114 q 1111 276 1111 114 l 1111 539 q 1186 597 1111 597 q 1261 539 1261 597 l 1261 272 q 854 0 1261 0 l 540 0 m 969 1256 q 949 1160 969 1206 q 886 1081 928 1115 q 783 1026 844 1046 q 643 1006 722 1006 q 503 1026 564 1006 q 401 1081 443 1046 q 339 1160 360 1115 q 318 1256 318 1206 q 331 1301 318 1288 q 379 1314 343 1314 q 426 1303 413 1314 q 446 1272 439 1292 q 460 1213 451 1243 q 490 1158 469 1183 q 547 1117 511 1133 q 643 1101 583 1101 q 739 1117 703 1101 q 796 1158 775 1133 q 826 1213 817 1183 q 840 1272 835 1243 q 861 1303 847 1292 q 908 1314 875 1314 q 956 1301 943 1314 q 969 1256 969 1288 z "},"ğ":{"ha":1256,"x_min":126,"x_max":1124,"o":"m 126 0 m 575 -233 q 506 -179 506 -233 q 575 -125 506 -125 l 785 -125 q 976 -28 976 -125 l 976 21 l 486 21 q 126 240 126 21 l 126 454 q 486 675 126 675 l 764 675 q 1124 454 1124 675 l 1124 -26 q 785 -233 1124 -233 l 575 -233 m 275 222 q 472 128 275 128 l 976 128 l 976 457 q 779 561 976 561 l 472 561 q 275 457 275 561 l 275 222 m 953 976 q 932 881 953 926 q 869 801 911 836 q 767 747 828 767 q 626 726 706 726 q 487 747 547 726 q 385 801 426 767 q 322 881 343 836 q 301 976 301 926 q 314 1022 301 1008 q 363 1035 326 1035 q 409 1024 396 1035 q 429 993 422 1013 q 444 934 435 964 q 474 879 453 904 q 531 838 494 854 q 626 822 567 822 q 722 838 686 822 q 779 879 758 854 q 809 934 800 904 q 824 993 818 964 q 844 1024 831 1013 q 892 1035 858 1035 q 940 1022 926 1035 q 953 976 953 1008 z "},"Ġ":{"ha":1393,"x_min":133,"x_max":1261,"o":"m 133 0 m 540 0 q 133 272 133 0 l 133 703 q 533 961 133 961 l 724 961 q 794 904 794 961 q 724 847 794 847 l 536 847 q 283 700 283 847 l 283 276 q 547 114 283 114 l 847 114 q 1111 276 1111 114 l 1111 539 q 1186 597 1111 597 q 1261 539 1261 597 l 1261 272 q 854 0 1261 0 l 540 0 m 757 1126 q 676 1060 757 1060 q 596 1126 596 1060 q 676 1193 596 1193 q 757 1126 757 1193 z "},"ġ":{"ha":1256,"x_min":126,"x_max":1124,"o":"m 126 0 m 575 -233 q 506 -179 506 -233 q 575 -125 506 -125 l 785 -125 q 976 -28 976 -125 l 976 21 l 486 21 q 126 240 126 21 l 126 454 q 486 675 126 675 l 764 675 q 1124 454 1124 675 l 1124 -26 q 785 -233 1124 -233 l 575 -233 m 275 222 q 472 128 275 128 l 976 128 l 976 457 q 779 561 976 561 l 472 561 q 275 457 275 561 l 275 222 m 710 847 q 629 781 710 781 q 549 847 549 781 q 629 914 549 914 q 710 847 710 914 z "},"Ģ":{"ha":1393,"x_min":133,"x_max":1261,"o":"m 133 0 m 540 0 q 133 272 133 0 l 133 703 q 533 961 133 961 l 724 961 q 794 904 794 961 q 724 847 794 847 l 536 847 q 283 700 283 847 l 283 276 q 547 114 283 114 l 847 114 q 1111 276 1111 114 l 1111 539 q 1186 597 1111 597 q 1261 539 1261 597 l 1261 272 q 854 0 1261 0 l 540 0 m 792 -136 q 544 -315 792 -315 l 496 -315 q 438 -269 438 -315 q 496 -224 438 -224 l 544 -224 q 669 -137 669 -224 l 669 -72 q 731 -25 669 -25 q 792 -72 792 -25 l 792 -136 z "},"ģ":{"ha":1256,"x_min":126,"x_max":1124,"o":"m 126 0 m 575 -233 q 506 -179 506 -233 q 575 -125 506 -125 l 785 -125 q 976 -28 976 -125 l 976 21 l 486 21 q 126 240 126 21 l 126 454 q 486 675 126 675 l 764 675 q 1124 454 1124 675 l 1124 -26 q 785 -233 1124 -233 l 575 -233 m 275 222 q 472 128 275 128 l 976 128 l 976 457 q 779 561 976 561 l 472 561 q 275 457 275 561 l 275 222 m 621 1007 q 686 1056 636 1056 q 740 1008 740 1056 q 736 956 740 993 l 722 818 q 701 769 719 786 q 646 753 683 753 q 568 815 568 753 q 571 838 568 826 q 579 868 574 850 l 621 1007 z "},"Ħ":{"ha":1419,"x_min":15,"x_max":1404,"o":"m 1282 707 l 1282 51 q 1206 -7 1282 -7 q 1132 51 1132 -7 l 1132 418 l 288 418 l 288 51 q 211 -7 288 -7 q 138 51 138 -7 l 138 707 l 79 707 q 15 757 15 707 q 79 807 15 807 l 138 807 l 138 910 q 215 968 138 968 q 288 910 288 968 l 288 807 l 1132 807 l 1132 911 q 1206 968 1132 968 q 1282 911 1282 968 l 1282 807 l 1340 807 q 1404 757 1404 807 q 1340 707 1404 707 l 1282 707 m 288 707 l 288 532 l 1132 532 l 1132 707 l 288 707 z "},"ħ":{"ha":1258,"x_min":39,"x_max":1129,"o":"m 281 797 l 281 675 l 771 675 q 1129 454 1129 675 l 1129 51 q 1056 -7 1129 -7 q 981 51 981 -7 l 981 457 q 785 561 981 561 l 281 561 l 281 51 q 207 -7 281 -7 q 133 51 133 -7 l 133 797 l 103 797 q 39 847 39 797 q 103 897 39 897 l 133 897 l 133 929 q 207 988 133 988 q 281 929 281 988 l 281 897 l 743 897 q 807 847 807 897 q 743 797 807 797 l 281 797 z "},"Ĩ":{"ha":769,"x_min":0,"x_max":768,"o":"m 0 0 m 310 910 q 388 968 310 968 q 460 910 460 968 l 460 51 q 383 -7 460 -7 q 310 51 310 -7 l 310 910 m 64 1076 q 0 1126 0 1076 q 64 1176 0 1176 l 704 1176 q 768 1126 768 1176 q 704 1076 768 1076 l 64 1076 z "},"ĩ":{"ha":769,"x_min":0,"x_max":768,"o":"m 0 0 m 64 797 q 0 847 0 797 q 64 897 0 897 l 704 897 q 768 847 768 897 q 704 797 768 797 l 64 797 m 311 624 q 385 682 311 682 q 458 624 458 682 l 458 51 q 385 -7 458 -7 q 311 51 311 -7 l 311 624 z "},"Ī":{"ha":769,"x_min":0,"x_max":768,"o":"m 0 0 m 310 910 q 388 968 310 968 q 460 910 460 968 l 460 51 q 383 -7 460 -7 q 310 51 310 -7 l 310 910 m 64 1076 q 0 1126 0 1076 q 64 1176 0 1176 l 704 1176 q 768 1126 768 1176 q 704 1076 768 1076 l 64 1076 z "},"ī":{"ha":769,"x_min":0,"x_max":768,"o":"m 0 0 m 64 797 q 0 847 0 797 q 64 897 0 897 l 704 897 q 768 847 768 897 q 704 797 768 797 l 64 797 m 311 624 q 385 682 311 682 q 458 624 458 682 l 458 51 q 385 -7 458 -7 q 311 51 311 -7 l 311 624 z "},"Ĭ":{"ha":651,"x_min":0,"x_max":651,"o":"m 0 0 m 251 910 q 329 968 251 968 q 401 910 401 968 l 401 51 q 325 -7 401 -7 q 251 51 251 -7 l 251 910 m 651 1256 q 631 1160 651 1206 q 568 1081 610 1115 q 465 1026 526 1046 q 325 1006 404 1006 q 185 1026 246 1006 q 83 1081 125 1046 q 21 1160 42 1115 q 0 1256 0 1206 q 13 1301 0 1288 q 61 1314 25 1314 q 108 1303 94 1314 q 128 1272 121 1292 q 142 1213 133 1243 q 172 1158 151 1183 q 229 1117 193 1133 q 325 1101 265 1101 q 421 1117 385 1101 q 478 1158 457 1133 q 508 1213 499 1183 q 522 1272 517 1243 q 543 1303 529 1292 q 590 1314 557 1314 q 638 1301 625 1314 q 651 1256 651 1288 z "},"ĭ":{"ha":651,"x_min":0,"x_max":651,"o":"m 0 0 m 651 976 q 631 881 651 926 q 568 801 610 836 q 465 747 526 767 q 325 726 404 726 q 185 747 246 726 q 83 801 125 767 q 21 881 42 836 q 0 976 0 926 q 13 1022 0 1008 q 61 1035 25 1035 q 108 1024 94 1035 q 128 993 121 1013 q 142 934 133 964 q 172 879 151 904 q 229 838 193 854 q 325 822 265 822 q 421 838 385 822 q 478 879 457 854 q 508 934 499 904 q 522 993 517 964 q 543 1024 529 1013 q 590 1035 557 1035 q 638 1022 625 1035 q 651 976 651 1008 m 253 624 q 326 682 253 682 q 400 624 400 682 l 400 51 q 326 -7 400 -7 q 253 51 253 -7 l 253 624 z "},"Į":{"ha":419,"x_min":-46,"x_max":349,"o":"m 57 -315 q -21 -297 4 -315 q -46 -250 -46 -278 q -14 -181 -46 -217 l 150 13 q 138 51 138 26 l 138 910 q 215 968 138 968 q 288 910 288 968 l 288 51 q 281 26 288 36 q 265 6 274 15 l 89 -208 l 281 -208 q 349 -262 349 -208 q 281 -315 349 -315 l 57 -315 z "},"į":{"ha":372,"x_min":-75,"x_max":319,"o":"m 110 624 q 183 682 110 682 q 257 624 257 682 l 257 51 q 233 3 257 31 l 60 -208 l 251 -208 q 319 -262 319 -208 q 251 -315 319 -315 l 28 -315 q -50 -297 -25 -315 q -75 -250 -75 -278 q -43 -181 -75 -217 l 121 14 q 110 51 110 28 l 110 624 m 264 847 q 183 781 264 781 q 103 847 103 781 q 183 914 103 914 q 264 847 264 914 z "},"İ":{"ha":424,"x_min":132,"x_max":293,"o":"m 132 0 m 138 910 q 215 968 138 968 q 288 910 288 968 l 288 51 q 211 -7 288 -7 q 138 51 138 -7 l 138 910 m 293 1126 q 213 1060 293 1060 q 132 1126 132 1060 q 213 1193 132 1193 q 293 1126 293 1193 z "},"ı":{"ha":414,"x_min":133,"x_max":281,"o":"m 133 624 q 207 682 133 682 q 281 624 281 682 l 281 51 q 207 -7 281 -7 q 133 51 133 -7 l 133 624 z "},"Ĳ":{"ha":1171,"x_min":138,"x_max":1035,"o":"m 138 0 m 138 910 q 215 968 138 968 q 288 910 288 968 l 288 51 q 211 -7 288 -7 q 138 51 138 -7 l 138 910 m 522 0 q 453 57 453 0 q 522 114 453 114 l 621 114 q 885 276 885 114 l 885 910 q 960 968 885 968 q 1035 910 1035 968 l 1035 272 q 628 0 1035 0 l 522 0 z "},"ĳ":{"ha":828,"x_min":103,"x_max":701,"o":"m 103 0 m 110 624 q 183 682 110 682 q 257 624 257 682 l 257 51 q 183 -7 257 -7 q 110 51 110 -7 l 110 624 m 217 -233 q 144 -176 144 -233 q 217 -121 144 -121 l 340 -121 q 547 -15 547 -121 l 547 624 q 621 682 547 682 q 694 624 694 682 l 694 -14 q 335 -233 694 -233 l 217 -233 m 701 847 q 621 781 701 781 q 540 847 540 781 q 621 914 540 914 q 701 847 701 914 m 264 847 q 183 781 264 781 q 103 847 103 781 q 183 914 103 914 q 264 847 264 914 z "},"Ķ":{"ha":1251,"x_min":138,"x_max":1149,"o":"m 138 0 m 288 401 l 288 51 q 213 -7 288 -7 q 138 51 138 -7 l 138 911 q 213 968 138 968 q 288 911 288 968 l 288 569 l 999 951 q 1057 968 1029 968 q 1109 953 1090 968 q 1128 911 1128 939 q 1120 883 1128 897 q 1090 857 1113 868 l 378 489 l 1104 110 q 1140 83 1131 96 q 1149 51 1149 71 q 1128 8 1149 24 q 1071 -7 1108 -7 q 1046 -4 1060 -7 q 1013 11 1032 -1 l 288 401 m 694 -136 q 447 -315 694 -315 l 399 -315 q 340 -269 340 -315 q 399 -224 340 -224 l 447 -224 q 572 -137 572 -224 l 572 -72 q 633 -25 572 -25 q 694 -72 694 -25 l 694 -136 z "},"ķ":{"ha":1114,"x_min":133,"x_max":1011,"o":"m 133 0 m 281 267 l 281 51 q 207 -7 281 -7 q 133 51 133 -7 l 133 931 q 207 988 133 988 q 281 931 281 988 l 281 425 l 872 664 q 907 678 893 672 q 938 682 921 683 q 992 667 972 682 q 1011 625 1011 653 q 1001 593 1011 606 q 964 569 990 581 l 386 346 l 967 104 q 1003 78 994 92 q 1011 50 1011 64 q 933 -7 1011 -7 q 903 -2 915 -7 q 865 14 890 3 l 281 267 m 651 -136 q 404 -315 651 -315 l 356 -315 q 297 -269 297 -315 q 356 -224 297 -224 l 404 -224 q 529 -137 529 -224 l 529 -72 q 590 -25 529 -25 q 651 -72 651 -25 l 651 -136 z "},"Ĺ":{"ha":1267,"x_min":138,"x_max":1196,"o":"m 138 0 m 544 0 q 138 272 138 0 l 138 910 q 211 968 138 968 q 288 910 288 968 l 288 276 q 551 114 288 114 l 1126 114 q 1196 57 1196 114 q 1126 0 1196 0 l 544 0 m 299 1025 q 272 1007 283 1011 q 244 1003 260 1003 q 182 1051 182 1003 q 199 1086 182 1069 l 435 1329 q 494 1351 456 1351 q 574 1299 574 1351 q 568 1276 574 1285 q 551 1257 563 1267 l 299 1025 z "},"ĺ":{"ha":471,"x_min":133,"x_max":542,"o":"m 133 0 m 133 929 q 207 988 133 988 q 281 929 281 988 l 281 51 q 207 -7 281 -7 q 133 51 133 -7 l 133 929 m 267 1025 q 240 1007 251 1011 q 213 1003 228 1003 q 150 1051 150 1003 q 167 1086 150 1069 l 403 1329 q 463 1351 424 1351 q 542 1299 542 1351 q 536 1276 542 1285 q 519 1257 531 1267 l 267 1025 z "},"Ļ":{"ha":1267,"x_min":138,"x_max":1196,"o":"m 138 0 m 544 0 q 138 272 138 0 l 138 910 q 211 968 138 968 q 288 910 288 968 l 288 276 q 551 114 288 114 l 1126 114 q 1196 57 1196 114 q 1126 0 1196 0 l 544 0 m 783 -136 q 536 -315 783 -315 l 488 -315 q 429 -269 429 -315 q 488 -224 429 -224 l 536 -224 q 661 -137 661 -224 l 661 -72 q 722 -25 661 -25 q 783 -72 783 -25 l 783 -136 z "},"ļ":{"ha":414,"x_min":-85,"x_max":281,"o":"m 0 0 m 133 929 q 207 988 133 988 q 281 929 281 988 l 281 51 q 207 -7 281 -7 q 133 51 133 -7 l 133 929 m 269 -136 q 22 -315 269 -315 l -26 -315 q -85 -269 -85 -315 q -26 -224 -85 -224 l 22 -224 q 147 -137 147 -224 l 147 -72 q 208 -25 147 -25 q 269 -72 269 -25 l 269 -136 z "},"Ľ":{"ha":1267,"x_min":138,"x_max":1196,"o":"m 138 0 m 544 0 q 138 272 138 0 l 138 910 q 211 968 138 968 q 288 910 288 968 l 288 276 q 551 114 288 114 l 1126 114 q 1196 57 1196 114 q 1126 0 1196 0 l 544 0 m 714 721 q 649 672 701 672 q 596 721 596 672 q 597 742 596 729 q 599 774 597 756 l 614 1010 q 633 1058 617 1040 q 690 1075 650 1075 q 767 1013 767 1075 q 764 987 767 1001 q 758 960 761 972 l 714 721 z "},"ľ":{"ha":567,"x_min":133,"x_max":586,"o":"m 133 0 m 133 929 q 207 988 133 988 q 281 929 281 988 l 281 51 q 207 -7 281 -7 q 133 51 133 -7 l 133 929 m 533 754 q 468 706 521 706 q 415 754 415 706 q 416 776 415 763 q 418 807 417 789 l 433 1043 q 453 1091 436 1074 q 510 1108 469 1108 q 586 1046 586 1108 q 583 1020 586 1035 q 578 993 581 1006 l 533 754 z "},"Ł":{"ha":1290,"x_min":21,"x_max":1219,"o":"m 568 0 q 161 272 161 0 l 161 454 l 122 431 q 100 421 111 424 q 82 418 89 418 q 40 434 58 418 q 21 469 21 450 q 53 514 21 494 l 161 581 l 161 910 q 235 968 161 968 q 311 910 311 968 l 311 672 l 624 864 q 668 878 646 878 q 707 862 689 878 q 725 825 725 846 q 693 782 725 801 l 311 546 l 311 276 q 575 114 311 114 l 1150 114 q 1219 57 1219 114 q 1150 0 1219 0 l 568 0 z "},"ł":{"ha":703,"x_min":0,"x_max":704,"o":"m 278 508 l 101 400 q 79 390 90 393 q 61 388 68 388 q 19 403 38 388 q 0 439 0 419 q 32 483 0 464 l 278 633 l 278 929 q 351 988 278 988 q 425 929 425 988 l 425 724 l 603 833 q 647 847 625 847 q 686 831 668 847 q 704 794 704 815 q 672 751 704 771 l 425 599 l 425 51 q 351 -7 425 -7 q 278 51 278 -7 l 278 508 z "},"Ń":{"ha":1415,"x_min":138,"x_max":1276,"o":"m 138 0 m 215 968 q 254 960 238 968 q 289 938 271 953 l 1126 199 l 1126 911 q 1201 968 1126 968 q 1276 911 1276 968 l 1276 51 q 1197 -7 1276 -7 q 1158 1 1174 -7 q 1124 25 1142 10 l 288 764 l 288 51 q 211 -7 288 -7 q 138 51 138 -7 l 138 908 q 215 968 138 968 m 701 1025 q 674 1007 686 1011 q 647 1003 663 1003 q 585 1051 585 1003 q 601 1086 585 1069 l 838 1329 q 897 1351 858 1351 q 976 1299 976 1351 q 971 1276 976 1285 q 954 1257 965 1267 l 701 1025 z "},"ń":{"ha":1246,"x_min":131,"x_max":1115,"o":"m 131 0 m 968 454 q 761 561 968 561 l 483 561 q 278 454 278 561 l 278 51 q 204 -7 278 -7 q 131 51 131 -7 l 131 454 q 489 675 131 675 l 757 675 q 1115 454 1115 675 l 1115 51 q 1042 -7 1115 -7 q 968 51 968 -7 l 968 454 m 599 746 q 572 728 583 732 q 544 724 560 724 q 482 772 482 724 q 499 807 482 790 l 735 1050 q 794 1072 756 1072 q 874 1019 874 1072 q 868 997 874 1006 q 851 978 863 988 l 599 746 z "},"Ņ":{"ha":1415,"x_min":138,"x_max":1276,"o":"m 138 0 m 215 968 q 254 960 238 968 q 289 938 271 953 l 1126 199 l 1126 911 q 1201 968 1126 968 q 1276 911 1276 968 l 1276 51 q 1197 -7 1276 -7 q 1158 1 1174 -7 q 1124 25 1142 10 l 288 764 l 288 51 q 211 -7 288 -7 q 138 51 138 -7 l 138 908 q 215 968 138 968 m 815 -136 q 568 -315 815 -315 l 519 -315 q 461 -269 461 -315 q 519 -224 461 -224 l 568 -224 q 693 -137 693 -224 l 693 -72 q 754 -25 693 -25 q 815 -72 815 -25 l 815 -136 z "},"ņ":{"ha":1246,"x_min":131,"x_max":1115,"o":"m 131 0 m 968 454 q 761 561 968 561 l 483 561 q 278 454 278 561 l 278 51 q 204 -7 278 -7 q 131 51 131 -7 l 131 454 q 489 675 131 675 l 757 675 q 1115 454 1115 675 l 1115 51 q 1042 -7 1115 -7 q 968 51 968 -7 l 968 454 m 731 -136 q 483 -315 731 -315 l 435 -315 q 376 -269 376 -315 q 435 -224 376 -224 l 483 -224 q 608 -137 608 -224 l 608 -72 q 669 -25 608 -25 q 731 -72 731 -25 l 731 -136 z "},"Ň":{"ha":1415,"x_min":138,"x_max":1276,"o":"m 138 0 m 215 968 q 254 960 238 968 q 289 938 271 953 l 1126 199 l 1126 911 q 1201 968 1126 968 q 1276 911 1276 968 l 1276 51 q 1197 -7 1276 -7 q 1158 1 1174 -7 q 1124 25 1142 10 l 288 764 l 288 51 q 211 -7 288 -7 q 138 51 138 -7 l 138 908 q 215 968 138 968 m 765 1028 q 739 1009 754 1015 q 707 1003 724 1003 q 650 1029 672 1003 l 454 1267 q 440 1287 443 1279 q 438 1303 436 1294 q 500 1351 438 1351 q 556 1328 536 1351 l 707 1140 l 860 1328 q 884 1344 869 1339 q 915 1351 899 1350 q 979 1303 979 1351 q 976 1287 979 1294 q 961 1267 972 1279 l 765 1028 z "},"ň":{"ha":1246,"x_min":131,"x_max":1115,"o":"m 131 0 m 968 454 q 761 561 968 561 l 483 561 q 278 454 278 561 l 278 51 q 204 -7 278 -7 q 131 51 131 -7 l 131 454 q 489 675 131 675 l 757 675 q 1115 454 1115 675 l 1115 51 q 1042 -7 1115 -7 q 968 51 968 -7 l 968 454 m 681 749 q 654 730 669 736 q 622 724 639 724 q 565 750 588 724 l 369 988 q 355 1008 358 1000 q 353 1024 351 1015 q 415 1072 353 1072 q 471 1049 451 1072 l 622 861 l 775 1049 q 799 1065 785 1060 q 831 1072 814 1071 q 894 1024 894 1072 q 891 1008 894 1015 q 876 988 888 1000 l 681 749 z "},"Ŋ":{"ha":1401,"x_min":135,"x_max":1265,"o":"m 782 -233 q 710 -176 710 -233 q 782 -121 710 -121 l 914 -121 q 1114 13 1114 -121 l 1114 685 q 851 847 1114 847 l 549 847 q 285 685 285 847 l 285 51 q 210 -7 285 -7 q 135 51 135 -7 l 135 689 q 542 961 135 961 l 858 961 q 1265 689 1265 961 l 1265 15 q 900 -233 1265 -233 l 782 -233 z "},"ŋ":{"ha":1246,"x_min":131,"x_max":1115,"o":"m 968 454 q 761 561 968 561 l 483 561 q 278 454 278 561 l 278 51 q 204 -7 278 -7 q 131 51 131 -7 l 131 454 q 489 675 131 675 l 757 675 q 1115 454 1115 675 l 1115 -14 q 756 -233 1115 -233 l 638 -233 q 565 -176 565 -233 q 638 -121 565 -121 l 761 -121 q 968 -15 968 -121 l 968 454 z "},"Ō":{"ha":1375,"x_min":133,"x_max":1243,"o":"m 133 0 m 1093 693 q 840 847 1093 847 l 536 847 q 283 693 283 847 l 283 271 q 539 114 283 114 l 838 114 q 1093 271 1093 114 l 1093 693 m 540 0 q 133 267 133 0 l 133 696 q 533 961 133 961 l 843 961 q 1243 696 1243 961 l 1243 267 q 836 0 1243 0 l 540 0 m 367 1076 q 303 1126 303 1076 q 367 1176 303 1176 l 1007 1176 q 1071 1126 1071 1176 q 1007 1076 1071 1076 l 367 1076 z "},"ō":{"ha":1240,"x_min":126,"x_max":1114,"o":"m 126 0 m 486 0 q 126 219 126 0 l 126 454 q 486 675 126 675 l 754 675 q 1114 454 1114 675 l 1114 219 q 754 0 1114 0 l 486 0 m 965 456 q 758 561 965 561 l 481 561 q 275 456 275 561 l 275 218 q 481 113 275 113 l 758 113 q 965 218 965 113 l 965 456 m 300 797 q 236 847 236 797 q 300 897 236 897 l 940 897 q 1004 847 1004 897 q 940 797 1004 797 l 300 797 z "},"Ŏ":{"ha":1375,"x_min":133,"x_max":1243,"o":"m 133 0 m 1093 693 q 840 847 1093 847 l 536 847 q 283 693 283 847 l 283 271 q 539 114 283 114 l 838 114 q 1093 271 1093 114 l 1093 693 m 540 0 q 133 267 133 0 l 133 696 q 533 961 133 961 l 843 961 q 1243 696 1243 961 l 1243 267 q 836 0 1243 0 l 540 0 m 1014 1256 q 993 1160 1014 1206 q 931 1081 972 1115 q 828 1026 889 1046 q 688 1006 767 1006 q 548 1026 608 1006 q 446 1081 488 1046 q 383 1160 404 1115 q 363 1256 363 1206 q 375 1301 363 1288 q 424 1314 388 1314 q 470 1303 457 1314 q 490 1272 483 1292 q 505 1213 496 1243 q 535 1158 514 1183 q 592 1117 556 1133 q 688 1101 628 1101 q 783 1117 747 1101 q 840 1158 819 1133 q 870 1213 861 1183 q 885 1272 879 1243 q 906 1303 892 1292 q 953 1314 919 1314 q 1001 1301 988 1314 q 1014 1256 1014 1288 z "},"ŏ":{"ha":1240,"x_min":126,"x_max":1114,"o":"m 126 0 m 486 0 q 126 219 126 0 l 126 454 q 486 675 126 675 l 754 675 q 1114 454 1114 675 l 1114 219 q 754 0 1114 0 l 486 0 m 965 456 q 758 561 965 561 l 481 561 q 275 456 275 561 l 275 218 q 481 113 275 113 l 758 113 q 965 218 965 113 l 965 456 m 947 976 q 926 881 947 926 q 864 801 906 836 q 761 747 822 767 q 621 726 700 726 q 481 747 542 726 q 379 801 421 767 q 317 881 338 836 q 296 976 296 926 q 308 1022 296 1008 q 357 1035 321 1035 q 403 1024 390 1035 q 424 993 417 1013 q 438 934 429 964 q 468 879 447 904 q 525 838 489 854 q 621 822 561 822 q 717 838 681 822 q 774 879 753 854 q 803 934 794 904 q 818 993 813 964 q 839 1024 825 1013 q 886 1035 853 1035 q 934 1022 921 1035 q 947 976 947 1008 z "},"Ő":{"ha":1375,"x_min":133,"x_max":1243,"o":"m 133 0 m 1093 693 q 840 847 1093 847 l 536 847 q 283 693 283 847 l 283 271 q 539 114 283 114 l 838 114 q 1093 271 1093 114 l 1093 693 m 540 0 q 133 267 133 0 l 133 696 q 533 961 133 961 l 843 961 q 1243 696 1243 961 l 1243 267 q 836 0 1243 0 l 540 0 m 850 1025 q 824 1008 836 1013 q 796 1003 811 1003 q 735 1051 735 1003 q 737 1068 735 1060 q 750 1088 739 1076 l 986 1329 q 1013 1347 999 1342 q 1047 1351 1028 1351 q 1125 1299 1125 1351 q 1104 1257 1125 1275 l 850 1025 m 475 1025 q 448 1007 460 1011 q 421 1003 436 1003 q 358 1051 358 1003 q 375 1086 358 1069 l 611 1329 q 671 1351 632 1351 q 750 1299 750 1351 q 744 1276 750 1285 q 728 1257 739 1267 l 475 1025 z "},"ő":{"ha":1240,"x_min":126,"x_max":1114,"o":"m 126 0 m 486 0 q 126 219 126 0 l 126 454 q 486 675 126 675 l 754 675 q 1114 454 1114 675 l 1114 219 q 754 0 1114 0 l 486 0 m 965 456 q 758 561 965 561 l 481 561 q 275 456 275 561 l 275 218 q 481 113 275 113 l 758 113 q 965 218 965 113 l 965 456 m 783 746 q 757 728 769 733 q 729 724 744 724 q 668 772 668 724 q 670 789 668 781 q 683 808 672 797 l 919 1050 q 947 1067 932 1063 q 981 1072 961 1072 q 1058 1019 1058 1072 q 1038 978 1058 996 l 783 746 m 408 746 q 381 728 393 732 q 354 724 369 724 q 292 772 292 724 q 308 807 292 790 l 544 1050 q 604 1072 565 1072 q 683 1019 683 1072 q 678 997 683 1006 q 661 978 672 988 l 408 746 z "},"Œ":{"ha":2257,"x_min":133,"x_max":2149,"o":"m 540 0 q 133 267 133 0 l 133 696 q 533 961 133 961 l 843 961 q 1171 872 1071 961 q 1500 961 1268 961 l 1699 961 q 1768 904 1768 961 q 1699 847 1768 847 l 1503 847 q 1250 696 1250 847 l 1250 539 l 2078 539 q 2144 485 2144 539 q 2078 431 2144 431 l 1250 431 l 1250 271 q 1514 114 1250 114 l 2078 114 q 2149 57 2149 114 q 2078 0 2149 0 l 1507 0 q 1171 90 1269 0 q 836 0 1075 0 l 540 0 m 1093 693 q 840 847 1093 847 l 536 847 q 283 693 283 847 l 283 271 q 539 114 283 114 l 838 114 q 1093 271 1093 114 l 1093 693 z "},"œ":{"ha":2071,"x_min":126,"x_max":1972,"o":"m 486 0 q 126 219 126 0 l 126 454 q 486 675 126 675 l 754 675 q 1032 614 942 675 q 1275 675 1108 675 l 1676 675 q 1972 497 1972 675 l 1972 342 q 1908 292 1972 292 l 1118 292 l 1118 207 q 1311 108 1118 108 l 1517 108 q 1586 54 1586 108 q 1517 0 1586 0 l 1311 0 q 1038 64 1119 0 q 754 0 949 0 l 486 0 m 965 456 q 758 561 965 561 l 481 561 q 275 456 275 561 l 275 218 q 481 113 275 113 l 758 113 q 965 218 965 113 l 965 456 m 1118 388 l 1815 388 q 1826 397 1826 388 l 1826 469 q 1665 565 1826 565 l 1283 565 q 1118 469 1118 565 l 1118 388 z "},"Ŕ":{"ha":1396,"x_min":138,"x_max":1286,"o":"m 138 0 m 288 376 l 288 51 q 211 -7 288 -7 q 138 51 138 -7 l 138 913 q 201 961 138 961 l 854 961 q 1286 725 1286 961 l 1286 622 q 854 390 1286 390 l 522 390 l 1167 107 q 1208 53 1208 89 q 1188 9 1208 25 q 1132 -7 1168 -7 q 1106 -4 1117 -7 q 1079 7 1096 -1 l 288 376 m 288 496 l 858 496 q 1136 622 1136 496 l 1136 722 q 860 847 1136 847 l 299 847 q 288 838 288 847 l 288 496 m 619 1025 q 592 1007 604 1011 q 565 1003 581 1003 q 503 1051 503 1003 q 519 1086 503 1069 l 756 1329 q 815 1351 776 1351 q 894 1299 894 1351 q 889 1276 894 1285 q 872 1257 883 1267 l 619 1025 z "},"ŕ":{"ha":753,"x_min":131,"x_max":679,"o":"m 131 0 m 131 454 q 489 675 131 675 l 596 675 q 667 618 667 675 q 596 561 667 561 l 483 561 q 278 457 278 561 l 278 51 q 204 -7 278 -7 q 131 51 131 -7 l 131 454 m 404 746 q 377 728 389 732 q 350 724 365 724 q 288 772 288 724 q 304 807 288 790 l 540 1050 q 600 1072 561 1072 q 679 1019 679 1072 q 674 997 679 1006 q 657 978 668 988 l 404 746 z "},"Ŗ":{"ha":1396,"x_min":138,"x_max":1286,"o":"m 138 0 m 288 376 l 288 51 q 211 -7 288 -7 q 138 51 138 -7 l 138 913 q 201 961 138 961 l 854 961 q 1286 725 1286 961 l 1286 622 q 854 390 1286 390 l 522 390 l 1167 107 q 1208 53 1208 89 q 1188 9 1208 25 q 1132 -7 1168 -7 q 1106 -4 1117 -7 q 1079 7 1096 -1 l 288 376 m 288 496 l 858 496 q 1136 622 1136 496 l 1136 722 q 860 847 1136 847 l 299 847 q 288 838 288 847 l 288 496 m 765 -136 q 518 -315 765 -315 l 469 -315 q 411 -269 411 -315 q 469 -224 411 -224 l 518 -224 q 643 -137 643 -224 l 643 -72 q 704 -25 643 -25 q 765 -72 765 -25 l 765 -136 z "},"ŗ":{"ha":753,"x_min":-82,"x_max":667,"o":"m 0 0 m 131 454 q 489 675 131 675 l 596 675 q 667 618 667 675 q 596 561 667 561 l 483 561 q 278 457 278 561 l 278 51 q 204 -7 278 -7 q 131 51 131 -7 l 131 454 m 272 -136 q 25 -315 272 -315 l -24 -315 q -82 -269 -82 -315 q -24 -224 -82 -224 l 25 -224 q 150 -137 150 -224 l 150 -72 q 211 -25 150 -25 q 272 -72 272 -25 l 272 -136 z "},"Ř":{"ha":1396,"x_min":138,"x_max":1286,"o":"m 138 0 m 288 376 l 288 51 q 211 -7 288 -7 q 138 51 138 -7 l 138 913 q 201 961 138 961 l 854 961 q 1286 725 1286 961 l 1286 622 q 854 390 1286 390 l 522 390 l 1167 107 q 1208 53 1208 89 q 1188 9 1208 25 q 1132 -7 1168 -7 q 1106 -4 1117 -7 q 1079 7 1096 -1 l 288 376 m 288 496 l 858 496 q 1136 622 1136 496 l 1136 722 q 860 847 1136 847 l 299 847 q 288 838 288 847 l 288 496 m 717 1028 q 690 1009 706 1015 q 658 1003 675 1003 q 601 1029 624 1003 l 406 1267 q 391 1287 394 1279 q 389 1303 388 1294 q 451 1351 389 1351 q 507 1328 488 1351 l 658 1140 l 811 1328 q 835 1344 821 1339 q 867 1351 850 1350 q 931 1303 931 1351 q 927 1287 931 1294 q 913 1267 924 1279 l 717 1028 z "},"ř":{"ha":753,"x_min":131,"x_max":701,"o":"m 131 0 m 131 454 q 489 675 131 675 l 596 675 q 667 618 667 675 q 596 561 667 561 l 483 561 q 278 457 278 561 l 278 51 q 204 -7 278 -7 q 131 51 131 -7 l 131 454 m 488 749 q 461 730 476 736 q 429 724 446 724 q 372 750 394 724 l 176 988 q 162 1008 165 1000 q 160 1024 158 1015 q 222 1072 160 1072 q 278 1049 258 1072 l 429 861 l 582 1049 q 606 1065 592 1060 q 638 1072 621 1071 q 701 1024 701 1072 q 698 1008 701 1015 q 683 988 694 1000 l 488 749 z "},"Ś":{"ha":1261,"x_min":104,"x_max":1161,"o":"m 104 0 m 1161 221 q 739 0 1161 0 l 175 0 q 104 57 104 0 q 175 114 104 114 l 739 114 q 1010 229 1010 114 l 1010 328 q 753 440 1010 440 l 490 440 q 111 646 111 440 l 111 747 q 500 961 111 961 l 656 961 q 725 904 725 961 q 656 847 725 847 l 501 847 q 261 742 261 847 l 261 656 q 489 553 261 553 l 742 553 q 1161 333 1161 553 l 1161 221 m 554 1025 q 527 1007 539 1011 q 500 1003 515 1003 q 438 1051 438 1003 q 454 1086 438 1069 l 690 1329 q 750 1351 711 1351 q 829 1299 829 1351 q 824 1276 829 1285 q 807 1257 818 1267 l 554 1025 z "},"ś":{"ha":1136,"x_min":99,"x_max":1026,"o":"m 99 0 m 1026 156 q 710 0 1026 0 l 168 0 q 99 54 99 0 q 168 108 99 108 l 710 108 q 881 156 881 108 l 881 233 q 710 281 881 281 l 424 281 q 107 432 107 281 l 107 497 q 433 675 107 675 l 624 675 q 694 619 694 675 q 676 578 694 592 q 624 565 657 565 l 433 565 q 251 497 251 565 l 251 436 q 432 379 251 379 l 718 379 q 1026 238 1026 379 l 1026 156 m 504 746 q 477 728 489 732 q 450 724 465 724 q 388 772 388 724 q 404 807 388 790 l 640 1050 q 700 1072 661 1072 q 779 1019 779 1072 q 774 997 779 1006 q 757 978 768 988 l 504 746 z "},"Ş":{"ha":1261,"x_min":104,"x_max":1161,"o":"m 104 0 m 1161 221 q 739 0 1161 0 l 175 0 q 104 57 104 0 q 175 114 104 114 l 739 114 q 1010 229 1010 114 l 1010 328 q 753 440 1010 440 l 490 440 q 111 646 111 440 l 111 747 q 500 961 111 961 l 656 961 q 725 904 725 961 q 656 847 725 847 l 501 847 q 261 742 261 847 l 261 656 q 489 553 261 553 l 742 553 q 1161 333 1161 553 l 1161 221 m 739 -136 q 492 -315 739 -315 l 443 -315 q 385 -269 385 -315 q 443 -224 385 -224 l 492 -224 q 617 -137 617 -224 l 617 -72 q 678 -25 617 -25 q 739 -72 739 -25 l 739 -136 z "},"ş":{"ha":1136,"x_min":99,"x_max":1026,"o":"m 99 0 m 1026 156 q 710 0 1026 0 l 168 0 q 99 54 99 0 q 168 108 99 108 l 710 108 q 881 156 881 108 l 881 233 q 710 281 881 281 l 424 281 q 107 432 107 281 l 107 497 q 433 675 107 675 l 624 675 q 694 619 694 675 q 676 578 694 592 q 624 565 657 565 l 433 565 q 251 497 251 565 l 251 436 q 432 379 251 379 l 718 379 q 1026 238 1026 379 l 1026 156 m 676 -136 q 429 -315 676 -315 l 381 -315 q 322 -269 322 -315 q 381 -224 322 -224 l 429 -224 q 554 -137 554 -224 l 554 -72 q 615 -25 554 -25 q 676 -72 676 -25 l 676 -136 z "},"Š":{"ha":1261,"x_min":104,"x_max":1161,"o":"m 104 0 m 1161 221 q 739 0 1161 0 l 175 0 q 104 57 104 0 q 175 114 104 114 l 739 114 q 1010 229 1010 114 l 1010 328 q 753 440 1010 440 l 490 440 q 111 646 111 440 l 111 747 q 500 961 111 961 l 656 961 q 725 904 725 961 q 656 847 725 847 l 501 847 q 261 742 261 847 l 261 656 q 489 553 261 553 l 742 553 q 1161 333 1161 553 l 1161 221 m 635 1028 q 608 1009 624 1015 q 576 1003 593 1003 q 519 1029 542 1003 l 324 1267 q 309 1287 313 1279 q 307 1303 306 1294 q 369 1351 307 1351 q 425 1328 406 1351 l 576 1140 l 729 1328 q 753 1344 739 1339 q 785 1351 768 1350 q 849 1303 849 1351 q 845 1287 849 1294 q 831 1267 842 1279 l 635 1028 z "},"š":{"ha":1136,"x_min":99,"x_max":1026,"o":"m 99 0 m 1026 156 q 710 0 1026 0 l 168 0 q 99 54 99 0 q 168 108 99 108 l 710 108 q 881 156 881 108 l 881 233 q 710 281 881 281 l 424 281 q 107 432 107 281 l 107 497 q 433 675 107 675 l 624 675 q 694 619 694 675 q 676 578 694 592 q 624 565 657 565 l 433 565 q 251 497 251 565 l 251 436 q 432 379 251 379 l 718 379 q 1026 238 1026 379 l 1026 156 m 585 749 q 558 730 574 736 q 526 724 543 724 q 469 750 492 724 l 274 988 q 259 1008 263 1000 q 257 1024 256 1015 q 319 1072 257 1072 q 375 1049 356 1072 l 526 861 l 679 1049 q 703 1065 689 1060 q 735 1072 718 1071 q 799 1024 799 1072 q 795 1008 799 1015 q 781 988 792 1000 l 585 749 z "},"Ţ":{"ha":1189,"x_min":71,"x_max":1118,"o":"m 71 0 m 519 847 l 140 847 q 71 904 71 847 q 140 961 71 961 l 1047 961 q 1118 906 1118 961 q 1047 847 1118 847 l 669 847 l 669 51 q 596 -7 669 -7 q 519 51 519 -7 l 519 847 m 658 -136 q 411 -315 658 -315 l 363 -315 q 304 -269 304 -315 q 363 -224 304 -224 l 411 -224 q 536 -137 536 -224 l 536 -72 q 597 -25 536 -25 q 658 -72 658 -25 l 658 -136 z "},"ţ":{"ha":750,"x_min":-6,"x_max":665,"o":"m 0 0 m 357 561 l 357 51 q 285 -7 357 -7 q 210 51 210 -7 l 210 561 l 153 561 q 85 615 85 561 q 153 669 85 669 l 210 669 l 210 797 q 282 856 210 856 q 357 797 357 856 l 357 669 l 596 669 q 665 615 665 669 q 596 561 665 561 l 357 561 m 349 -136 q 101 -315 349 -315 l 53 -315 q -6 -269 -6 -315 q 53 -224 -6 -224 l 101 -224 q 226 -137 226 -224 l 226 -72 q 288 -25 226 -25 q 349 -72 349 -25 l 349 -136 z "},"Ť":{"ha":1189,"x_min":71,"x_max":1118,"o":"m 71 0 m 519 847 l 140 847 q 71 904 71 847 q 140 961 71 961 l 1047 961 q 1118 906 1118 961 q 1047 847 1118 847 l 669 847 l 669 51 q 596 -7 669 -7 q 519 51 519 -7 l 519 847 m 650 1028 q 624 1009 639 1015 q 592 1003 608 1003 q 535 1029 557 1003 l 339 1267 q 324 1287 328 1279 q 322 1303 321 1294 q 385 1351 322 1351 q 440 1328 421 1351 l 592 1140 l 744 1328 q 769 1344 754 1339 q 800 1351 783 1350 q 864 1303 864 1351 q 860 1287 864 1294 q 846 1267 857 1279 l 650 1028 z "},"ť":{"ha":701,"x_min":85,"x_max":708,"o":"m 85 0 m 357 561 l 357 51 q 285 -7 357 -7 q 210 51 210 -7 l 210 561 l 153 561 q 85 615 85 561 q 153 669 85 669 l 210 669 l 210 797 q 282 856 210 856 q 357 797 357 856 l 357 669 l 596 669 q 665 615 665 669 q 596 561 665 561 l 357 561 m 656 754 q 590 706 643 706 q 538 754 538 706 q 538 776 538 763 q 540 807 539 789 l 556 1043 q 575 1091 558 1074 q 632 1108 592 1108 q 708 1046 708 1108 q 706 1020 708 1035 q 700 993 703 1006 l 656 754 z "},"Ŧ":{"ha":1189,"x_min":71,"x_max":1118,"o":"m 669 454 l 669 51 q 596 -7 669 -7 q 519 51 519 -7 l 519 454 l 275 454 q 211 504 211 454 q 275 554 211 554 l 519 554 l 519 847 l 140 847 q 71 904 71 847 q 140 961 71 961 l 1047 961 q 1118 906 1118 961 q 1047 847 1118 847 l 669 847 l 669 554 l 915 554 q 979 504 979 554 q 915 454 979 454 l 669 454 z "},"ŧ":{"ha":868,"x_min":85,"x_max":854,"o":"m 357 301 l 357 51 q 285 -7 357 -7 q 210 51 210 -7 l 210 301 l 150 301 q 86 351 86 301 q 150 401 86 401 l 210 401 l 210 561 l 153 561 q 85 615 85 561 q 153 669 85 669 l 210 669 l 210 797 q 282 856 210 856 q 357 797 357 856 l 357 669 l 596 669 q 665 615 665 669 q 596 561 665 561 l 357 561 l 357 401 l 790 401 q 854 351 854 401 q 790 301 854 301 l 357 301 z "},"Ũ":{"ha":1401,"x_min":135,"x_max":1265,"o":"m 135 0 m 542 0 q 135 272 135 0 l 135 910 q 210 968 135 968 q 285 910 285 968 l 285 276 q 549 114 285 114 l 851 114 q 1114 276 1114 114 l 1114 910 q 1190 968 1114 968 q 1265 910 1265 968 l 1265 272 q 858 0 1265 0 l 542 0 m 381 1076 q 317 1126 317 1076 q 381 1176 317 1176 l 1021 1176 q 1085 1126 1085 1176 q 1021 1076 1085 1076 l 381 1076 z "},"ũ":{"ha":1232,"x_min":131,"x_max":1101,"o":"m 131 0 m 489 0 q 131 219 131 0 l 131 624 q 204 682 131 682 q 278 624 278 682 l 278 218 q 483 113 278 113 l 747 113 q 953 218 953 113 l 953 624 q 1026 682 953 682 q 1101 624 1101 682 l 1101 219 q 743 0 1101 0 l 489 0 m 296 797 q 232 847 232 797 q 296 897 232 897 l 936 897 q 1000 847 1000 897 q 936 797 1000 797 l 296 797 z "},"Ū":{"ha":1401,"x_min":135,"x_max":1265,"o":"m 135 0 m 542 0 q 135 272 135 0 l 135 910 q 210 968 135 968 q 285 910 285 968 l 285 276 q 549 114 285 114 l 851 114 q 1114 276 1114 114 l 1114 910 q 1190 968 1114 968 q 1265 910 1265 968 l 1265 272 q 858 0 1265 0 l 542 0 m 381 1076 q 317 1126 317 1076 q 381 1176 317 1176 l 1021 1176 q 1085 1126 1085 1176 q 1021 1076 1085 1076 l 381 1076 z "},"ū":{"ha":1232,"x_min":131,"x_max":1101,"o":"m 131 0 m 489 0 q 131 219 131 0 l 131 624 q 204 682 131 682 q 278 624 278 682 l 278 218 q 483 113 278 113 l 747 113 q 953 218 953 113 l 953 624 q 1026 682 953 682 q 1101 624 1101 682 l 1101 219 q 743 0 1101 0 l 489 0 m 296 797 q 232 847 232 797 q 296 897 232 897 l 936 897 q 1000 847 1000 897 q 936 797 1000 797 l 296 797 z "},"Ů":{"ha":1401,"x_min":135,"x_max":1265,"o":"m 135 0 m 542 0 q 135 272 135 0 l 135 910 q 210 968 135 968 q 285 910 285 968 l 285 276 q 549 114 285 114 l 851 114 q 1114 276 1114 114 l 1114 910 q 1190 968 1114 968 q 1265 910 1265 968 l 1265 272 q 858 0 1265 0 l 542 0 m 653 1007 q 507 1146 507 1007 l 507 1211 q 653 1351 507 1351 l 744 1351 q 890 1211 890 1351 l 890 1146 q 744 1007 890 1007 l 653 1007 m 792 1214 q 739 1275 792 1275 l 658 1275 q 606 1214 606 1275 l 606 1144 q 658 1085 606 1085 l 739 1085 q 792 1144 792 1085 l 792 1214 z "},"ů":{"ha":1232,"x_min":131,"x_max":1101,"o":"m 131 0 m 489 0 q 131 219 131 0 l 131 624 q 204 682 131 682 q 278 624 278 682 l 278 218 q 483 113 278 113 l 747 113 q 953 218 953 113 l 953 624 q 1026 682 953 682 q 1101 624 1101 682 l 1101 219 q 743 0 1101 0 l 489 0 m 569 728 q 424 867 424 728 l 424 932 q 569 1072 424 1072 l 661 1072 q 807 932 807 1072 l 807 867 q 661 728 807 728 l 569 728 m 708 935 q 656 996 708 996 l 575 996 q 522 935 522 996 l 522 865 q 575 806 522 806 l 656 806 q 708 865 708 806 l 708 935 z "},"Ű":{"ha":1401,"x_min":135,"x_max":1265,"o":"m 135 0 m 542 0 q 135 272 135 0 l 135 910 q 210 968 135 968 q 285 910 285 968 l 285 276 q 549 114 285 114 l 851 114 q 1114 276 1114 114 l 1114 910 q 1190 968 1114 968 q 1265 910 1265 968 l 1265 272 q 858 0 1265 0 l 542 0 m 864 1025 q 838 1008 850 1013 q 810 1003 825 1003 q 749 1051 749 1003 q 751 1068 749 1060 q 764 1088 753 1076 l 1000 1329 q 1027 1347 1013 1342 q 1061 1351 1042 1351 q 1139 1299 1139 1351 q 1118 1257 1139 1275 l 864 1025 m 489 1025 q 462 1007 474 1011 q 435 1003 450 1003 q 372 1051 372 1003 q 389 1086 372 1069 l 625 1329 q 685 1351 646 1351 q 764 1299 764 1351 q 758 1276 764 1285 q 742 1257 753 1267 l 489 1025 z "},"ű":{"ha":1232,"x_min":131,"x_max":1101,"o":"m 131 0 m 489 0 q 131 219 131 0 l 131 624 q 204 682 131 682 q 278 624 278 682 l 278 218 q 483 113 278 113 l 747 113 q 953 218 953 113 l 953 624 q 1026 682 953 682 q 1101 624 1101 682 l 1101 219 q 743 0 1101 0 l 489 0 m 779 746 q 753 728 765 733 q 725 724 740 724 q 664 772 664 724 q 666 789 664 781 q 679 808 668 797 l 915 1050 q 942 1067 928 1063 q 976 1072 957 1072 q 1054 1019 1054 1072 q 1033 978 1054 996 l 779 746 m 404 746 q 377 728 389 732 q 350 724 365 724 q 288 772 288 724 q 304 807 288 790 l 540 1050 q 600 1072 561 1072 q 679 1019 679 1072 q 674 997 679 1006 q 657 978 668 988 l 404 746 z "},"Ų":{"ha":1401,"x_min":135,"x_max":1265,"o":"m 565 -315 q 488 -297 513 -315 q 463 -250 463 -278 q 494 -181 463 -217 l 647 0 l 542 0 q 135 272 135 0 l 135 910 q 210 968 135 968 q 285 910 285 968 l 285 276 q 549 114 285 114 l 851 114 q 1114 276 1114 114 l 1114 910 q 1190 968 1114 968 q 1265 910 1265 968 l 1265 272 q 858 0 1265 0 l 767 0 l 596 -208 l 789 -208 q 857 -262 857 -208 q 789 -315 857 -315 l 565 -315 z "},"ų":{"ha":1232,"x_min":131,"x_max":1101,"o":"m 513 -315 q 435 -297 460 -315 q 410 -250 410 -278 q 442 -181 410 -217 l 594 0 l 489 0 q 131 219 131 0 l 131 624 q 204 682 131 682 q 278 624 278 682 l 278 218 q 483 113 278 113 l 747 113 q 953 218 953 113 l 953 624 q 1026 682 953 682 q 1101 624 1101 682 l 1101 219 q 743 0 1101 0 l 717 0 l 544 -208 l 736 -208 q 804 -262 804 -208 q 736 -315 804 -315 l 513 -315 z "},"Ŵ":{"ha":1817,"x_min":79,"x_max":1738,"o":"m 79 0 m 908 968 q 958 955 940 968 q 986 919 975 942 l 1311 208 l 1588 922 q 1663 968 1604 968 q 1717 953 1696 968 q 1738 910 1738 938 q 1736 894 1738 903 q 1728 871 1735 886 l 1399 50 q 1368 6 1385 19 q 1318 -7 1351 -7 q 1264 8 1282 -7 q 1233 50 1246 22 l 908 753 l 583 50 q 553 8 571 22 q 499 -7 535 -7 q 449 6 465 -7 q 418 50 432 19 l 89 871 q 81 894 82 886 q 79 910 79 903 q 99 953 79 938 q 154 968 119 968 q 202 957 185 968 q 229 922 219 946 l 504 210 l 831 919 q 858 955 842 942 q 908 968 875 968 m 908 1215 l 757 1028 q 732 1009 747 1015 q 701 1003 717 1003 q 639 1053 639 1003 q 641 1067 638 1060 q 656 1089 644 1075 l 851 1328 q 876 1344 861 1339 q 908 1351 892 1350 q 940 1345 925 1351 q 967 1326 956 1339 l 1163 1089 q 1177 1067 1174 1075 q 1181 1053 1181 1060 q 1117 1003 1181 1003 q 1061 1028 1082 1003 l 908 1215 z "},"ŵ":{"ha":1546,"x_min":78,"x_max":1471,"o":"m 78 0 m 774 682 q 819 671 801 682 q 847 638 836 660 l 1093 178 l 1326 640 q 1351 670 1336 658 q 1397 682 1367 682 q 1451 667 1431 682 q 1471 625 1471 651 q 1461 590 1471 610 l 1168 39 q 1140 4 1156 15 q 1094 -7 1124 -7 q 1022 38 1046 -7 l 774 492 l 526 38 q 497 3 513 14 q 454 -7 481 -7 q 408 4 424 -7 q 381 39 392 15 l 86 590 q 79 608 81 601 q 78 625 78 615 q 98 667 78 651 q 151 682 118 682 q 197 671 181 682 q 224 640 214 660 l 454 179 l 700 638 q 728 671 711 660 q 774 682 746 682 m 771 936 l 619 749 q 594 730 610 736 q 564 724 579 724 q 501 774 501 724 q 503 788 500 781 q 518 810 507 796 l 714 1049 q 739 1065 724 1060 q 771 1072 754 1071 q 803 1066 788 1072 q 829 1047 818 1060 l 1025 810 q 1040 788 1036 796 q 1043 774 1043 781 q 979 724 1043 724 q 924 749 944 724 l 771 936 z "},"Ŷ":{"ha":1246,"x_min":67,"x_max":1176,"o":"m 67 0 m 697 421 l 697 51 q 622 -7 697 -7 q 546 51 546 -7 l 546 421 l 92 861 q 73 883 79 872 q 67 908 67 893 q 88 952 67 936 q 144 968 108 968 q 181 961 167 968 q 210 939 194 954 l 622 531 l 1036 940 q 1065 961 1050 954 q 1103 968 1079 968 q 1156 952 1135 968 q 1176 908 1176 936 q 1169 883 1176 893 q 1151 861 1163 872 l 697 421 m 622 1215 l 471 1028 q 446 1009 461 1015 q 415 1003 431 1003 q 353 1053 353 1003 q 355 1067 351 1060 q 369 1089 358 1075 l 565 1328 q 590 1344 575 1339 q 622 1351 606 1350 q 654 1345 639 1351 q 681 1326 669 1339 l 876 1089 q 891 1067 888 1075 q 894 1053 894 1060 q 831 1003 894 1003 q 775 1028 796 1003 l 622 1215 z "},"ŷ":{"ha":1251,"x_min":131,"x_max":1118,"o":"m 131 0 m 569 -233 q 500 -179 500 -233 q 569 -125 500 -125 l 779 -125 q 971 -26 971 -125 l 971 21 l 489 21 q 131 272 131 21 l 131 624 q 204 682 131 682 q 278 624 278 682 l 278 265 q 474 128 278 128 l 971 128 l 971 624 q 1043 682 971 682 q 1118 624 1118 682 l 1118 -26 q 779 -233 1118 -233 l 569 -233 m 625 936 l 474 749 q 449 730 464 736 q 418 724 433 724 q 356 774 356 724 q 358 788 354 781 q 372 810 361 796 l 568 1049 q 593 1065 578 1060 q 625 1072 608 1071 q 657 1066 642 1072 q 683 1047 672 1060 l 879 810 q 894 788 890 796 q 897 774 897 781 q 833 724 897 724 q 778 749 799 724 l 625 936 z "},"Ÿ":{"ha":1246,"x_min":67,"x_max":1176,"o":"m 67 0 m 697 421 l 697 51 q 622 -7 697 -7 q 546 51 546 -7 l 546 421 l 92 861 q 73 883 79 872 q 67 908 67 893 q 88 952 67 936 q 144 968 108 968 q 181 961 167 968 q 210 939 194 954 l 622 531 l 1036 940 q 1065 961 1050 954 q 1103 968 1079 968 q 1156 952 1135 968 q 1176 908 1176 936 q 1169 883 1176 893 q 1151 861 1163 872 l 697 421 m 869 1126 q 786 1060 869 1060 q 706 1126 706 1060 q 786 1193 706 1193 q 869 1126 869 1193 m 538 1126 q 457 1060 538 1060 q 376 1126 376 1060 q 457 1193 376 1193 q 538 1126 538 1193 z "},"Ź":{"ha":1281,"x_min":117,"x_max":1171,"o":"m 117 0 m 193 0 q 135 15 154 0 q 117 58 117 31 q 125 92 117 78 q 154 126 133 107 l 943 847 l 201 847 q 128 904 128 847 q 203 961 128 961 l 1096 961 q 1171 907 1171 961 q 1160 873 1171 889 q 1132 842 1149 857 l 339 114 l 1096 114 q 1171 57 1171 114 q 1094 0 1171 0 l 193 0 m 643 1025 q 616 1007 628 1011 q 589 1003 604 1003 q 526 1051 526 1003 q 543 1086 526 1069 l 779 1329 q 839 1351 800 1351 q 918 1299 918 1351 q 913 1276 918 1285 q 896 1257 907 1267 l 643 1025 z "},"ź":{"ha":1228,"x_min":100,"x_max":1118,"o":"m 100 0 m 176 0 q 100 60 100 0 q 142 121 100 93 l 832 561 l 201 561 q 128 618 128 561 q 200 675 128 675 l 1013 675 q 1067 660 1049 675 q 1086 618 1086 644 q 1076 584 1086 600 q 1047 557 1065 568 l 350 113 l 1044 113 q 1118 57 1118 113 q 1043 0 1118 0 l 176 0 m 589 746 q 562 728 574 732 q 535 724 550 724 q 472 772 472 724 q 489 807 472 790 l 725 1050 q 785 1072 746 1072 q 864 1019 864 1072 q 858 997 864 1006 q 842 978 853 988 l 589 746 z "},"Ż":{"ha":1281,"x_min":117,"x_max":1171,"o":"m 117 0 m 193 0 q 135 15 154 0 q 117 58 117 31 q 125 92 117 78 q 154 126 133 107 l 943 847 l 201 847 q 128 904 128 847 q 203 961 128 961 l 1096 961 q 1171 907 1171 961 q 1160 873 1171 889 q 1132 842 1149 857 l 339 114 l 1096 114 q 1171 57 1171 114 q 1094 0 1171 0 l 193 0 m 735 1126 q 654 1060 735 1060 q 574 1126 574 1060 q 654 1193 574 1193 q 735 1126 735 1193 z "},"ż":{"ha":1228,"x_min":100,"x_max":1118,"o":"m 100 0 m 176 0 q 100 60 100 0 q 142 121 100 93 l 832 561 l 201 561 q 128 618 128 561 q 200 675 128 675 l 1013 675 q 1067 660 1049 675 q 1086 618 1086 644 q 1076 584 1086 600 q 1047 557 1065 568 l 350 113 l 1044 113 q 1118 57 1118 113 q 1043 0 1118 0 l 176 0 m 694 847 q 614 781 694 781 q 533 847 533 781 q 614 914 533 914 q 694 847 694 914 z "},"Ž":{"ha":1281,"x_min":117,"x_max":1171,"o":"m 117 0 m 193 0 q 135 15 154 0 q 117 58 117 31 q 125 92 117 78 q 154 126 133 107 l 943 847 l 201 847 q 128 904 128 847 q 203 961 128 961 l 1096 961 q 1171 907 1171 961 q 1160 873 1171 889 q 1132 842 1149 857 l 339 114 l 1096 114 q 1171 57 1171 114 q 1094 0 1171 0 l 193 0 m 696 1028 q 669 1009 685 1015 q 638 1003 654 1003 q 581 1029 603 1003 l 385 1267 q 370 1287 374 1279 q 368 1303 367 1294 q 431 1351 368 1351 q 486 1328 467 1351 l 638 1140 l 790 1328 q 815 1344 800 1339 q 846 1351 829 1350 q 910 1303 910 1351 q 906 1287 910 1294 q 892 1267 903 1279 l 696 1028 z "},"ž":{"ha":1228,"x_min":100,"x_max":1118,"o":"m 100 0 m 176 0 q 100 60 100 0 q 142 121 100 93 l 832 561 l 201 561 q 128 618 128 561 q 200 675 128 675 l 1013 675 q 1067 660 1049 675 q 1086 618 1086 644 q 1076 584 1086 600 q 1047 557 1065 568 l 350 113 l 1044 113 q 1118 57 1118 113 q 1043 0 1118 0 l 176 0 m 672 749 q 646 730 661 736 q 614 724 631 724 q 557 750 579 724 l 361 988 q 347 1008 350 1000 q 344 1024 343 1015 q 407 1072 344 1072 q 463 1049 443 1072 l 614 861 l 767 1049 q 791 1065 776 1060 q 822 1072 806 1071 q 886 1024 886 1072 q 883 1008 886 1015 q 868 988 879 1000 l 672 749 z "},"ƀ":{"ha":1254,"x_min":38,"x_max":1126,"o":"m 278 797 l 278 675 l 768 675 q 1126 454 1126 675 l 1126 219 q 768 0 1126 0 l 489 0 q 131 219 131 0 l 131 797 l 101 797 q 38 847 38 797 q 101 897 38 897 l 131 897 l 131 929 q 204 988 131 988 q 278 929 278 988 l 278 897 l 742 897 q 806 847 806 897 q 742 797 806 797 l 278 797 m 278 561 l 278 218 q 483 113 278 113 l 772 113 q 978 218 978 113 l 978 456 q 772 561 978 561 l 278 561 z "},"Ɓ":{"ha":1733,"x_min":69,"x_max":1617,"o":"m 1617 211 q 1260 0 1617 0 l 546 0 q 479 54 479 0 l 479 847 l 392 847 q 211 713 211 847 l 211 468 q 140 410 211 410 q 69 468 69 410 l 69 711 q 392 961 69 961 l 1238 961 q 1601 732 1601 961 l 1601 653 q 1486 488 1601 544 q 1617 308 1617 429 l 1617 211 m 1467 314 q 1254 431 1467 431 l 629 431 l 629 124 q 640 114 629 114 l 1254 114 q 1467 224 1467 114 l 1467 314 m 1453 728 q 1239 847 1453 847 l 636 847 q 629 838 629 844 l 629 538 l 1250 538 q 1453 650 1453 538 l 1453 728 z "},"Ƈ":{"ha":1449,"x_min":133,"x_max":1450,"o":"m 540 0 q 133 267 133 0 l 133 699 q 533 961 133 961 l 1028 961 q 1261 1058 1085 1058 l 1379 1058 q 1450 1004 1450 1058 q 1379 949 1450 949 l 1261 949 q 1122 851 1122 949 l 1122 697 q 1063 653 1122 653 q 1003 697 1003 653 l 1003 847 l 536 847 q 283 696 283 847 l 283 271 q 547 114 283 114 l 1065 114 q 1135 57 1135 114 q 1065 0 1135 0 l 540 0 z "},"ƈ":{"ha":1356,"x_min":126,"x_max":1357,"o":"m 486 0 q 126 219 126 0 l 126 454 q 486 675 126 675 l 914 675 q 1168 829 944 829 l 1286 829 q 1357 775 1357 829 q 1286 719 1357 719 l 1168 719 q 1029 622 1029 719 l 1029 468 q 969 424 1029 424 q 910 468 910 424 l 910 561 l 481 561 q 275 456 275 561 l 275 218 q 481 113 275 113 l 967 113 q 1039 57 1039 113 q 967 0 1039 0 l 486 0 z "},"Ɗ":{"ha":1758,"x_min":69,"x_max":1628,"o":"m 546 0 q 479 49 479 0 l 479 847 l 392 847 q 211 713 211 847 l 211 468 q 140 410 211 410 q 69 468 69 410 l 69 711 q 392 961 69 961 l 1196 961 q 1628 693 1628 961 l 1628 268 q 1196 0 1628 0 l 546 0 m 1478 689 q 1201 847 1478 847 l 636 847 q 629 839 629 844 l 629 122 q 640 114 629 114 l 1200 114 q 1478 272 1478 114 l 1478 689 z "},"Ǝ":{"ha":1290,"x_min":108,"x_max":1157,"o":"m 176 0 q 108 57 108 0 q 176 114 108 114 l 743 114 q 1007 276 1007 114 l 1007 431 l 178 431 q 111 485 111 431 q 178 539 111 539 l 1007 539 l 1007 700 q 753 847 1007 847 l 558 847 q 488 904 488 847 q 558 961 488 961 l 757 961 q 1157 703 1157 961 l 1157 272 q 750 0 1157 0 l 176 0 z "},"Ə":{"ha":1393,"x_min":133,"x_max":1261,"o":"m 540 0 q 133 272 133 0 l 133 469 q 211 539 133 539 l 1111 539 l 1111 700 q 858 847 1111 847 l 668 847 q 600 904 600 847 q 668 961 600 961 l 860 961 q 1261 703 1261 961 l 1261 272 q 854 0 1261 0 l 540 0 m 847 114 q 1111 276 1111 114 l 1111 425 l 294 425 q 283 415 283 425 l 283 276 q 547 114 283 114 l 847 114 z "},"ƒ":{"ha":886,"x_min":67,"x_max":817,"o":"m 468 560 l 468 -181 q 396 -239 468 -239 q 321 -181 321 -239 l 321 560 l 125 560 q 67 604 67 560 q 125 649 67 649 l 321 649 l 321 750 q 604 985 321 985 l 722 985 q 792 931 792 985 q 722 875 792 875 l 604 875 q 468 751 468 875 l 468 649 l 758 649 q 817 604 817 649 q 758 560 817 560 l 468 560 z "},"Ɣ":{"ha":1429,"x_min":74,"x_max":1354,"o":"m 628 -315 q 400 -157 400 -315 l 400 -97 q 423 -5 400 -53 q 490 94 446 43 l 625 253 l 96 861 q 78 887 82 876 q 74 907 74 897 q 150 968 74 968 q 221 933 190 968 l 714 356 l 1207 933 q 1238 960 1222 951 q 1278 968 1254 968 q 1354 907 1354 968 q 1349 886 1354 896 q 1331 861 1344 876 l 801 253 l 938 94 q 1026 -97 1026 -10 l 1026 -157 q 799 -315 1026 -315 l 628 -315 m 714 153 l 611 35 q 560 -33 581 0 q 540 -96 540 -67 l 540 -149 q 654 -214 540 -214 l 774 -214 q 888 -149 888 -214 l 888 -96 q 867 -33 888 -67 q 817 35 846 0 l 714 153 z "},"Ƙ":{"ha":1332,"x_min":138,"x_max":1333,"o":"m 138 911 q 213 968 138 968 q 288 911 288 968 l 288 569 l 917 907 q 1038 952 985 943 q 1144 961 1092 961 l 1263 961 q 1333 907 1333 961 q 1263 851 1333 851 l 1144 851 q 1115 850 1129 851 q 1082 843 1100 849 q 1040 828 1064 838 q 983 801 1017 818 l 378 489 l 1104 110 q 1140 83 1131 96 q 1149 51 1149 71 q 1128 8 1149 24 q 1071 -7 1108 -7 q 1046 -4 1060 -7 q 1013 11 1032 -1 l 288 401 l 288 51 q 213 -7 288 -7 q 138 51 138 -7 l 138 911 z "},"ƙ":{"ha":1114,"x_min":133,"x_max":1011,"o":"m 281 267 l 281 51 q 207 -7 281 -7 q 133 51 133 -7 l 133 814 q 211 970 133 918 q 419 1022 289 1022 l 538 1022 q 608 968 608 1022 q 538 913 608 913 l 419 913 q 281 815 281 913 l 281 425 l 872 664 q 907 678 893 672 q 938 682 921 683 q 992 667 972 682 q 1011 625 1011 653 q 1001 593 1011 606 q 964 569 990 581 l 386 346 l 967 104 q 1003 78 994 92 q 1011 50 1011 64 q 933 -7 1011 -7 q 903 -2 915 -7 q 865 14 890 3 l 281 267 z "},"Ɲ":{"ha":1415,"x_min":-262,"x_max":1276,"o":"m 138 908 q 215 968 138 968 q 254 960 238 968 q 289 938 271 953 l 1126 199 l 1126 911 q 1201 968 1126 968 q 1276 911 1276 968 l 1276 51 q 1197 -7 1276 -7 q 1158 1 1174 -7 q 1124 25 1142 10 l 288 764 l 288 -14 q -72 -233 288 -233 l -190 -233 q -262 -176 -262 -233 q -190 -121 -262 -121 l -67 -121 q 138 -15 138 -121 l 138 908 z "},"Ơ":{"ha":1435,"x_min":133,"x_max":1431,"o":"m 1196 849 q 1243 703 1243 789 l 1243 272 q 836 0 1243 0 l 540 0 q 133 272 133 0 l 133 703 q 533 961 133 961 l 1224 961 q 1294 988 1294 961 l 1294 1138 q 1363 1196 1294 1196 q 1431 1138 1431 1196 l 1431 990 q 1218 849 1431 849 l 1196 849 m 1093 700 q 836 847 1093 847 l 524 847 q 283 700 283 847 l 283 276 q 547 114 283 114 l 829 114 q 1093 276 1093 114 l 1093 700 z "},"ơ":{"ha":1344,"x_min":126,"x_max":1343,"o":"m 1085 561 q 1114 454 1114 515 l 1114 219 q 754 0 1114 0 l 486 0 q 126 219 126 0 l 126 454 q 486 675 126 675 l 1135 675 q 1206 701 1206 675 l 1206 851 q 1275 910 1206 910 q 1343 851 1343 910 l 1343 704 q 1129 561 1343 561 l 1085 561 m 965 456 q 758 561 965 561 l 481 561 q 275 456 275 561 l 275 218 q 481 113 275 113 l 758 113 q 965 218 965 113 l 965 456 z "},"Ư":{"ha":1564,"x_min":135,"x_max":1560,"o":"m 542 0 q 135 272 135 0 l 135 910 q 210 968 135 968 q 285 910 285 968 l 285 276 q 561 114 285 114 l 840 114 q 1114 276 1114 114 l 1114 903 q 1189 961 1114 961 l 1356 961 q 1424 988 1424 961 l 1424 1138 q 1492 1196 1424 1196 q 1560 1138 1560 1196 l 1560 990 q 1371 849 1560 849 l 1265 849 l 1265 272 q 858 0 1265 0 l 542 0 z "},"ư":{"ha":1401,"x_min":131,"x_max":1397,"o":"m 489 0 q 131 219 131 0 l 131 624 q 204 682 131 682 q 278 624 278 682 l 278 218 q 483 113 278 113 l 747 113 q 953 218 953 113 l 953 617 q 1026 675 953 675 l 1192 675 q 1260 699 1260 675 l 1260 824 q 1329 882 1260 882 q 1397 824 1397 882 l 1397 700 q 1203 561 1397 561 l 1101 561 l 1101 219 q 743 0 1101 0 l 489 0 z "},"Ƴ":{"ha":1411,"x_min":67,"x_max":1413,"o":"m 697 421 l 697 51 q 622 -7 697 -7 q 546 51 546 -7 l 546 421 l 92 861 q 73 883 79 872 q 67 908 67 893 q 88 952 67 936 q 144 968 108 968 q 181 961 167 968 q 210 939 194 954 l 622 531 l 960 865 q 1086 943 1021 925 q 1224 961 1151 961 l 1342 961 q 1413 907 1413 961 q 1342 851 1413 851 l 1224 851 q 1186 849 1204 851 q 1149 838 1168 846 q 1110 813 1131 829 q 1063 772 1089 797 l 697 421 z "},"ƴ":{"ha":1444,"x_min":131,"x_max":1446,"o":"m 1118 -26 q 779 -233 1118 -233 l 569 -233 q 500 -179 500 -233 q 569 -125 500 -125 l 779 -125 q 971 -26 971 -125 l 971 21 l 489 21 q 131 272 131 21 l 131 624 q 204 682 131 682 q 278 624 278 682 l 278 265 q 474 128 278 128 l 971 128 l 971 621 q 1049 777 971 725 q 1257 829 1126 829 l 1375 829 q 1446 775 1446 829 q 1375 719 1446 719 l 1257 719 q 1118 622 1118 719 l 1118 -26 z "},"Ǆ":{"ha":2697,"x_min":138,"x_max":2588,"o":"m 138 0 m 1136 689 q 860 847 1136 847 l 299 847 q 288 839 288 847 l 288 122 q 299 114 288 114 l 858 114 q 1136 272 1136 114 l 1136 689 m 204 0 q 138 49 138 0 l 138 913 q 201 961 138 961 l 854 961 q 1286 693 1286 961 l 1286 268 q 854 0 1286 0 l 204 0 m 1610 0 q 1552 15 1571 0 q 1533 58 1533 31 q 1542 92 1533 78 q 1571 126 1550 107 l 2360 847 l 1618 847 q 1544 904 1544 847 q 1619 961 1544 961 l 2513 961 q 2588 907 2588 961 q 2576 873 2588 889 q 2549 842 2565 857 l 1756 114 l 2513 114 q 2588 57 2588 114 q 2511 0 2588 0 l 1610 0 m 2113 1028 q 2086 1009 2101 1015 q 2054 1003 2071 1003 q 1997 1029 2019 1003 l 1801 1267 q 1787 1287 1790 1279 q 1785 1303 1783 1294 q 1847 1351 1785 1351 q 1903 1328 1883 1351 l 2054 1140 l 2207 1328 q 2231 1344 2217 1339 q 2263 1351 2246 1350 q 2326 1303 2326 1351 q 2323 1287 2326 1294 q 2308 1267 2319 1279 l 2113 1028 z "},"ǅ":{"ha":2644,"x_min":138,"x_max":2535,"o":"m 138 0 m 1136 689 q 860 847 1136 847 l 299 847 q 288 839 288 847 l 288 122 q 299 114 288 114 l 858 114 q 1136 272 1136 114 l 1136 689 m 204 0 q 138 49 138 0 l 138 913 q 201 961 138 961 l 854 961 q 1286 693 1286 961 l 1286 268 q 854 0 1286 0 l 204 0 m 1593 0 q 1517 60 1517 0 q 1558 121 1517 93 l 2249 561 l 1618 561 q 1544 618 1544 561 q 1617 675 1544 675 l 2429 675 q 2484 660 2465 675 q 2503 618 2503 644 q 2492 584 2503 600 q 2464 557 2482 568 l 1767 113 l 2461 113 q 2535 57 2535 113 q 2460 0 2535 0 l 1593 0 m 2089 749 q 2063 730 2078 736 q 2031 724 2047 724 q 1974 750 1996 724 l 1778 988 q 1763 1008 1767 1000 q 1761 1024 1760 1015 q 1824 1072 1761 1072 q 1879 1049 1860 1072 l 2031 861 l 2183 1049 q 2208 1065 2193 1060 q 2239 1072 2222 1071 q 2303 1024 2303 1072 q 2299 1008 2303 1015 q 2285 988 2296 1000 l 2089 749 z "},"ǆ":{"ha":2492,"x_min":132,"x_max":2383,"o":"m 132 0 m 490 0 q 132 219 132 0 l 132 454 q 490 675 132 675 l 981 675 l 981 929 q 1056 988 981 988 q 1129 929 1129 988 l 1129 219 q 771 0 1129 0 l 490 0 m 775 113 q 981 218 981 113 l 981 561 l 486 561 q 281 456 281 561 l 281 218 q 486 113 281 113 l 775 113 m 1442 0 q 1365 60 1365 0 q 1407 121 1365 93 l 2097 561 l 1467 561 q 1393 618 1393 561 q 1465 675 1393 675 l 2278 675 q 2333 660 2314 675 q 2351 618 2351 644 q 2341 584 2351 600 q 2313 557 2331 568 l 1615 113 l 2310 113 q 2383 57 2383 113 q 2308 0 2383 0 l 1442 0 m 1938 749 q 1911 730 1926 736 q 1879 724 1896 724 q 1822 750 1844 724 l 1626 988 q 1612 1008 1615 1000 q 1610 1024 1608 1015 q 1672 1072 1610 1072 q 1728 1049 1708 1072 l 1879 861 l 2032 1049 q 2056 1065 2042 1060 q 2088 1072 2071 1071 q 2151 1024 2151 1072 q 2148 1008 2151 1015 q 2133 988 2144 1000 l 1938 749 z "},"ǝ":{"ha":1225,"x_min":99,"x_max":1099,"o":"m 953 383 l 953 468 q 760 567 953 567 l 554 567 q 485 621 485 567 q 554 675 485 675 l 760 675 q 1099 469 1099 675 l 1099 197 q 796 0 1099 0 l 394 0 q 99 178 99 0 l 99 333 q 163 383 99 383 l 953 383 m 788 110 q 953 206 953 110 l 953 288 l 256 288 q 244 278 244 288 l 244 206 q 406 110 244 110 l 788 110 z "},"ǧ":{"ha":1256,"x_min":126,"x_max":1124,"o":"m 126 0 m 575 -233 q 506 -179 506 -233 q 575 -125 506 -125 l 785 -125 q 976 -28 976 -125 l 976 21 l 486 21 q 126 240 126 21 l 126 454 q 486 675 126 675 l 764 675 q 1124 454 1124 675 l 1124 -26 q 785 -233 1124 -233 l 575 -233 m 275 222 q 472 128 275 128 l 976 128 l 976 457 q 779 561 976 561 l 472 561 q 275 457 275 561 l 275 222 m 685 749 q 658 730 674 736 q 626 724 643 724 q 569 750 592 724 l 374 988 q 359 1008 363 1000 q 357 1024 356 1015 q 419 1072 357 1072 q 475 1049 456 1072 l 626 861 l 779 1049 q 803 1065 789 1060 q 835 1072 818 1071 q 899 1024 899 1072 q 895 1008 899 1015 q 881 988 892 1000 l 685 749 z "},"ǰ":{"ha":710,"x_min":-4,"x_max":744,"o":"m 0 0 m 531 749 q 504 730 519 736 q 472 724 489 724 q 415 750 438 724 l 219 988 q 205 1008 208 1000 q 203 1024 201 1015 q 265 1072 203 1072 q 321 1049 301 1072 l 472 861 l 625 1049 q 649 1065 635 1060 q 681 1072 664 1071 q 744 1024 744 1072 q 741 1008 744 1015 q 726 988 738 1000 l 531 749 m 68 -233 q -4 -176 -4 -233 q 68 -121 -4 -121 l 192 -121 q 399 -15 399 -121 l 399 624 q 472 682 399 682 q 546 624 546 682 l 546 -14 q 186 -233 546 -233 l 68 -233 z "},"Ǳ":{"ha":2697,"x_min":138,"x_max":2588,"o":"m 138 0 m 1136 689 q 860 847 1136 847 l 299 847 q 288 839 288 847 l 288 122 q 299 114 288 114 l 858 114 q 1136 272 1136 114 l 1136 689 m 204 0 q 138 49 138 0 l 138 913 q 201 961 138 961 l 854 961 q 1286 693 1286 961 l 1286 268 q 854 0 1286 0 l 204 0 m 1610 0 q 1552 15 1571 0 q 1533 58 1533 31 q 1542 92 1533 78 q 1571 126 1550 107 l 2360 847 l 1618 847 q 1544 904 1544 847 q 1619 961 1544 961 l 2513 961 q 2588 907 2588 961 q 2576 873 2588 889 q 2549 842 2565 857 l 1756 114 l 2513 114 q 2588 57 2588 114 q 2511 0 2588 0 l 1610 0 z "},"ǲ":{"ha":2644,"x_min":138,"x_max":2535,"o":"m 138 0 m 1136 689 q 860 847 1136 847 l 299 847 q 288 839 288 847 l 288 122 q 299 114 288 114 l 858 114 q 1136 272 1136 114 l 1136 689 m 204 0 q 138 49 138 0 l 138 913 q 201 961 138 961 l 854 961 q 1286 693 1286 961 l 1286 268 q 854 0 1286 0 l 204 0 m 1593 0 q 1517 60 1517 0 q 1558 121 1517 93 l 2249 561 l 1618 561 q 1544 618 1544 561 q 1617 675 1544 675 l 2429 675 q 2484 660 2465 675 q 2503 618 2503 644 q 2492 584 2503 600 q 2464 557 2482 568 l 1767 113 l 2461 113 q 2535 57 2535 113 q 2460 0 2535 0 l 1593 0 z "},"ǳ":{"ha":2492,"x_min":132,"x_max":2383,"o":"m 132 0 m 490 0 q 132 219 132 0 l 132 454 q 490 675 132 675 l 981 675 l 981 929 q 1056 988 981 988 q 1129 929 1129 988 l 1129 219 q 771 0 1129 0 l 490 0 m 775 113 q 981 218 981 113 l 981 561 l 486 561 q 281 456 281 561 l 281 218 q 486 113 281 113 l 775 113 m 1442 0 q 1365 60 1365 0 q 1407 121 1365 93 l 2097 561 l 1467 561 q 1393 618 1393 561 q 1465 675 1393 675 l 2278 675 q 2333 660 2314 675 q 2351 618 2351 644 q 2341 584 2351 600 q 2313 557 2331 568 l 1615 113 l 2310 113 q 2383 57 2383 113 q 2308 0 2383 0 l 1442 0 z "},"Ǵ":{"ha":1393,"x_min":133,"x_max":1261,"o":"m 133 0 m 540 0 q 133 272 133 0 l 133 703 q 533 961 133 961 l 724 961 q 794 904 794 961 q 724 847 794 847 l 536 847 q 283 700 283 847 l 283 276 q 547 114 283 114 l 847 114 q 1111 276 1111 114 l 1111 539 q 1186 597 1111 597 q 1261 539 1261 597 l 1261 272 q 854 0 1261 0 l 540 0 m 618 1025 q 591 1007 603 1011 q 564 1003 579 1003 q 501 1051 501 1003 q 518 1086 501 1069 l 754 1329 q 814 1351 775 1351 q 893 1299 893 1351 q 888 1276 893 1285 q 871 1257 882 1267 l 618 1025 z "},"ǵ":{"ha":1256,"x_min":126,"x_max":1124,"o":"m 126 0 m 575 -233 q 506 -179 506 -233 q 575 -125 506 -125 l 785 -125 q 976 -28 976 -125 l 976 21 l 486 21 q 126 240 126 21 l 126 454 q 486 675 126 675 l 764 675 q 1124 454 1124 675 l 1124 -26 q 785 -233 1124 -233 l 575 -233 m 275 222 q 472 128 275 128 l 976 128 l 976 457 q 779 561 976 561 l 472 561 q 275 457 275 561 l 275 222 m 603 746 q 576 728 588 732 q 549 724 564 724 q 486 772 486 724 q 503 807 486 790 l 739 1050 q 799 1072 760 1072 q 878 1019 878 1072 q 872 997 878 1006 q 856 978 867 988 l 603 746 z "},"Ǹ":{"ha":1415,"x_min":138,"x_max":1276,"o":"m 138 0 m 215 968 q 254 960 238 968 q 289 938 271 953 l 1126 199 l 1126 911 q 1201 968 1126 968 q 1276 911 1276 968 l 1276 51 q 1197 -7 1276 -7 q 1158 1 1174 -7 q 1124 25 1142 10 l 288 764 l 288 51 q 211 -7 288 -7 q 138 51 138 -7 l 138 908 q 215 968 138 968 m 481 1257 q 463 1275 469 1267 q 458 1299 457 1283 q 536 1351 458 1351 q 571 1347 556 1351 q 597 1329 586 1343 l 833 1088 q 850 1051 850 1067 q 788 1003 850 1003 q 760 1008 772 1003 q 733 1025 747 1013 l 481 1257 z "},"ǹ":{"ha":1246,"x_min":131,"x_max":1115,"o":"m 131 0 m 968 454 q 761 561 968 561 l 483 561 q 278 454 278 561 l 278 51 q 204 -7 278 -7 q 131 51 131 -7 l 131 454 q 489 675 131 675 l 757 675 q 1115 454 1115 675 l 1115 51 q 1042 -7 1115 -7 q 968 51 968 -7 l 968 454 m 397 978 q 380 996 386 988 q 375 1019 374 1004 q 453 1072 375 1072 q 488 1068 472 1072 q 514 1050 503 1064 l 750 808 q 767 772 767 788 q 704 724 767 724 q 676 728 689 724 q 650 746 664 733 l 397 978 z "},"Ș":{"ha":1261,"x_min":104,"x_max":1161,"o":"m 104 0 m 1161 221 q 739 0 1161 0 l 175 0 q 104 57 104 0 q 175 114 104 114 l 739 114 q 1010 229 1010 114 l 1010 328 q 753 440 1010 440 l 490 440 q 111 646 111 440 l 111 747 q 500 961 111 961 l 656 961 q 725 904 725 961 q 656 847 725 847 l 501 847 q 261 742 261 847 l 261 656 q 489 553 261 553 l 742 553 q 1161 333 1161 553 l 1161 221 m 739 -136 q 492 -315 739 -315 l 443 -315 q 385 -269 385 -315 q 443 -224 385 -224 l 492 -224 q 617 -137 617 -224 l 617 -72 q 678 -25 617 -25 q 739 -72 739 -25 l 739 -136 z "},"ș":{"ha":1136,"x_min":99,"x_max":1026,"o":"m 99 0 m 1026 156 q 710 0 1026 0 l 168 0 q 99 54 99 0 q 168 108 99 108 l 710 108 q 881 156 881 108 l 881 233 q 710 281 881 281 l 424 281 q 107 432 107 281 l 107 497 q 433 675 107 675 l 624 675 q 694 619 694 675 q 676 578 694 592 q 624 565 657 565 l 433 565 q 251 497 251 565 l 251 436 q 432 379 251 379 l 718 379 q 1026 238 1026 379 l 1026 156 m 676 -136 q 429 -315 676 -315 l 381 -315 q 322 -269 322 -315 q 381 -224 322 -224 l 429 -224 q 554 -137 554 -224 l 554 -72 q 615 -25 554 -25 q 676 -72 676 -25 l 676 -136 z "},"Ț":{"ha":1189,"x_min":71,"x_max":1118,"o":"m 71 0 m 519 847 l 140 847 q 71 904 71 847 q 140 961 71 961 l 1047 961 q 1118 906 1118 961 q 1047 847 1118 847 l 669 847 l 669 51 q 596 -7 669 -7 q 519 51 519 -7 l 519 847 m 658 -136 q 411 -315 658 -315 l 363 -315 q 304 -269 304 -315 q 363 -224 304 -224 l 411 -224 q 536 -137 536 -224 l 536 -72 q 597 -25 536 -25 q 658 -72 658 -25 l 658 -136 z "},"ț":{"ha":750,"x_min":-6,"x_max":665,"o":"m 0 0 m 357 561 l 357 51 q 285 -7 357 -7 q 210 51 210 -7 l 210 561 l 153 561 q 85 615 85 561 q 153 669 85 669 l 210 669 l 210 797 q 282 856 210 856 q 357 797 357 856 l 357 669 l 596 669 q 665 615 665 669 q 596 561 665 561 l 357 561 m 349 -136 q 101 -315 349 -315 l 53 -315 q -6 -269 -6 -315 q 53 -224 -6 -224 l 101 -224 q 226 -137 226 -224 l 226 -72 q 288 -25 226 -25 q 349 -72 349 -25 l 349 -136 z "},"ȷ":{"ha":679,"x_min":-4,"x_max":546,"o":"m 68 -233 q -4 -176 -4 -233 q 68 -121 -4 -121 l 192 -121 q 399 -15 399 -121 l 399 624 q 472 682 399 682 q 546 624 546 682 l 546 -14 q 186 -233 546 -233 l 68 -233 z "},"Ɂ":{"ha":1007,"x_min":138,"x_max":906,"o":"m 447 451 q 288 383 288 451 l 288 51 q 211 -7 288 -7 q 138 51 138 -7 l 138 401 q 429 557 138 557 l 572 557 q 760 636 760 557 l 760 749 q 554 849 760 849 l 388 849 q 319 906 319 849 q 388 961 319 961 l 532 961 q 906 754 906 961 l 906 629 q 582 451 906 451 l 447 451 z "},"ɂ":{"ha":986,"x_min":133,"x_max":876,"o":"m 876 397 q 556 224 876 224 l 439 224 q 281 156 281 224 l 281 50 q 206 -7 281 -7 q 133 50 133 -7 l 133 174 q 421 325 133 325 l 546 325 q 733 404 733 325 l 733 465 q 529 565 733 565 l 381 565 q 314 621 314 565 q 381 675 314 675 l 507 675 q 876 472 876 675 l 876 397 z "},"Ɍ":{"ha":1504,"x_min":3,"x_max":1394,"o":"m 396 376 l 396 51 q 319 -7 396 -7 q 246 51 246 -7 l 246 390 l 67 390 q 3 443 3 390 q 67 496 3 496 l 246 496 l 246 913 q 310 961 246 961 l 963 961 q 1394 725 1394 961 l 1394 622 q 963 390 1394 390 l 631 390 l 1275 107 q 1317 53 1317 89 q 1297 9 1317 25 q 1240 -7 1276 -7 q 1215 -4 1225 -7 q 1188 7 1204 -1 l 396 376 m 396 496 l 967 496 q 1244 622 1244 496 l 1244 722 q 968 847 1244 847 l 407 847 q 396 838 396 847 l 396 496 z "},"ɍ":{"ha":885,"x_min":26,"x_max":794,"o":"m 390 261 l 390 51 q 317 -7 390 -7 q 243 51 243 -7 l 243 261 l 90 261 q 26 311 26 261 q 90 361 26 361 l 243 361 l 243 454 q 601 675 243 675 l 708 675 q 779 618 779 675 q 708 561 779 561 l 596 561 q 390 457 390 561 l 390 361 l 731 361 q 794 311 794 361 q 731 261 794 261 l 390 261 z "},"ɓ":{"ha":1254,"x_min":131,"x_max":1126,"o":"m 131 776 q 389 985 131 985 l 507 985 q 578 931 578 985 q 507 875 578 875 l 417 875 q 278 778 278 875 l 278 675 l 768 675 q 1126 454 1126 675 l 1126 219 q 768 0 1126 0 l 489 0 q 131 219 131 0 l 131 776 m 278 561 l 278 218 q 483 113 278 113 l 772 113 q 978 218 978 113 l 978 456 q 772 561 978 561 l 278 561 z "},"ɗ":{"ha":1454,"x_min":132,"x_max":1457,"o":"m 132 454 q 490 675 132 675 l 981 675 l 981 774 q 1059 930 981 878 q 1268 982 1138 982 l 1386 982 q 1457 928 1457 982 q 1386 872 1457 872 l 1268 872 q 1129 775 1129 872 l 1129 219 q 771 0 1129 0 l 490 0 q 132 219 132 0 l 132 454 m 981 561 l 486 561 q 281 456 281 561 l 281 218 q 486 113 281 113 l 775 113 q 981 218 981 113 l 981 561 z "},"ɣ":{"ha":1254,"x_min":71,"x_max":1182,"o":"m 553 -315 q 356 -190 356 -315 l 356 -143 q 372 -63 356 -96 q 425 10 388 -31 l 542 131 l 90 589 q 74 610 78 600 q 71 628 71 619 q 91 667 71 653 q 140 682 111 682 q 176 674 161 682 q 204 653 190 667 l 626 217 l 1049 653 q 1113 682 1074 682 q 1162 667 1142 682 q 1182 628 1182 653 q 1178 610 1182 619 q 1163 589 1174 600 l 710 131 l 828 10 q 881 -64 865 -31 q 899 -143 897 -97 l 899 -190 q 701 -315 899 -315 l 553 -315 m 625 46 l 539 -42 q 498 -92 513 -69 q 483 -142 483 -114 l 483 -183 q 575 -224 483 -224 l 679 -224 q 769 -183 769 -224 l 769 -142 q 755 -92 769 -114 q 714 -43 740 -69 l 625 46 z "},"ɲ":{"ha":1349,"x_min":-168,"x_max":1219,"o":"m 235 454 q 593 675 235 675 l 861 675 q 1219 454 1219 675 l 1219 51 q 1146 -7 1219 -7 q 1072 51 1072 -7 l 1072 454 q 865 561 1072 561 l 588 561 q 382 454 382 561 l 382 -14 q 22 -233 382 -233 l -96 -233 q -168 -176 -168 -233 q -96 -121 -168 -121 l 28 -121 q 235 -15 235 -121 l 235 454 z "},"ˆ":{"ha":667,"x_min":61,"x_max":604,"o":"m 332 936 l 181 749 q 156 730 171 736 q 125 724 140 724 q 63 774 63 724 q 65 788 61 781 q 79 810 68 796 l 275 1049 q 300 1065 285 1060 q 332 1072 315 1071 q 364 1066 349 1072 q 390 1047 379 1060 l 586 810 q 601 788 597 796 q 604 774 604 781 q 540 724 604 724 q 485 749 506 724 l 332 936 z "},"ˇ":{"ha":664,"x_min":61,"x_max":604,"o":"m 390 749 q 364 730 379 736 q 332 724 349 724 q 275 750 297 724 l 79 988 q 65 1008 68 1000 q 63 1024 61 1015 q 125 1072 63 1072 q 181 1049 161 1072 l 332 861 l 485 1049 q 509 1065 494 1060 q 540 1072 524 1071 q 604 1024 604 1072 q 601 1008 604 1015 q 586 988 597 1000 l 390 749 z "},"˘":{"ha":774,"x_min":63,"x_max":714,"o":"m 714 976 q 693 881 714 926 q 631 801 672 836 q 528 747 589 767 q 388 726 467 726 q 248 747 308 726 q 146 801 188 767 q 83 881 104 836 q 63 976 63 926 q 75 1022 63 1008 q 124 1035 88 1035 q 170 1024 157 1035 q 190 993 183 1013 q 205 934 196 964 q 235 879 214 904 q 292 838 256 854 q 388 822 328 822 q 483 838 447 822 q 540 879 519 854 q 570 934 561 904 q 585 993 579 964 q 606 1024 592 1013 q 653 1035 619 1035 q 701 1022 688 1035 q 714 976 714 1008 z "},"˙":{"ha":285,"x_min":63,"x_max":224,"o":"m 224 847 q 143 781 224 781 q 63 847 63 781 q 143 914 63 914 q 224 847 224 914 z "},"˚":{"ha":497,"x_min":57,"x_max":440,"o":"m 203 728 q 57 867 57 728 l 57 932 q 203 1072 57 1072 l 294 1072 q 440 932 440 1072 l 440 867 q 294 728 440 728 l 203 728 m 342 935 q 289 996 342 996 l 208 996 q 156 935 156 996 l 156 865 q 208 806 156 806 l 289 806 q 342 865 342 806 l 342 935 z "},"˛":{"ha":521,"x_min":64,"x_max":458,"o":"m 167 -315 q 89 -297 114 -315 q 64 -250 64 -278 q 96 -181 64 -217 l 271 26 q 295 46 283 39 q 322 53 307 53 q 357 40 343 53 q 371 11 371 28 q 357 -17 371 1 l 199 -208 l 390 -208 q 458 -262 458 -208 q 390 -315 458 -315 l 167 -315 z "},"˜":{"ha":893,"x_min":63,"x_max":831,"o":"m 126 797 q 63 847 63 797 q 126 897 63 897 l 767 897 q 831 847 831 897 q 767 797 831 797 l 126 797 z "},"˝":{"ha":892,"x_min":63,"x_max":829,"o":"m 554 746 q 528 728 540 733 q 500 724 515 724 q 439 772 439 724 q 441 789 439 781 q 454 808 443 797 l 690 1050 q 717 1067 703 1063 q 751 1072 732 1072 q 829 1019 829 1072 q 808 978 829 996 l 554 746 m 179 746 q 152 728 164 732 q 125 724 140 724 q 63 772 63 724 q 79 807 63 790 l 315 1050 q 375 1072 336 1072 q 454 1019 454 1072 q 449 997 454 1006 q 432 978 443 988 l 179 746 z "},"̀":{"ha":0,"x_min":-876,"x_max":-483,"o":"m -483 724 m -853 978 q -870 996 -864 988 q -875 1019 -876 1004 q -797 1072 -875 1072 q -762 1068 -778 1072 q -736 1050 -747 1064 l -500 808 q -483 772 -483 788 q -546 724 -483 724 q -574 728 -561 724 q -600 746 -586 733 l -853 978 z "},"́":{"ha":0,"x_min":-762,"x_max":-371,"o":"m -371 724 m -646 746 q -673 728 -661 732 q -700 724 -685 724 q -762 772 -762 724 q -746 807 -762 790 l -510 1050 q -450 1072 -489 1072 q -371 1019 -371 1072 q -376 997 -371 1006 q -393 978 -382 988 l -646 746 z "},"̂":{"ha":0,"x_min":-894,"x_max":-351,"o":"m -351 724 m -624 936 l -775 749 q -800 730 -785 736 q -831 724 -815 724 q -893 774 -893 724 q -891 788 -894 781 q -876 810 -887 796 l -681 1049 q -656 1065 -671 1060 q -624 1072 -640 1071 q -592 1066 -607 1072 q -565 1047 -576 1060 l -369 810 q -355 788 -358 796 q -351 774 -351 781 q -415 724 -351 724 q -471 749 -450 724 l -624 936 z "},"̃":{"ha":0,"x_min":-1008,"x_max":-240,"o":"m -240 797 m -944 797 q -1008 847 -1008 797 q -944 897 -1008 897 l -304 897 q -240 847 -240 897 q -304 797 -240 797 l -944 797 z "},"̄":{"ha":0,"x_min":-1008,"x_max":-240,"o":"m -240 797 m -944 797 q -1008 847 -1008 797 q -944 897 -1008 897 l -304 897 q -240 847 -240 897 q -304 797 -240 797 l -944 797 z "},"̆":{"ha":0,"x_min":-949,"x_max":-297,"o":"m -297 726 m -297 976 q -318 881 -297 926 q -381 801 -339 836 q -483 747 -422 767 q -624 726 -544 726 q -763 747 -703 726 q -865 801 -824 767 q -928 881 -907 836 q -949 976 -949 926 q -936 1022 -949 1008 q -887 1035 -924 1035 q -841 1024 -854 1035 q -821 993 -828 1013 q -806 934 -815 964 q -776 879 -797 904 q -719 838 -756 854 q -624 822 -683 822 q -528 838 -564 822 q -471 879 -492 854 q -441 934 -450 904 q -426 993 -432 964 q -406 1024 -419 1013 q -358 1035 -392 1035 q -310 1022 -324 1035 q -297 976 -297 1008 z "},"̇":{"ha":0,"x_min":-703,"x_max":-542,"o":"m -542 781 m -542 847 q -622 781 -542 781 q -703 847 -703 781 q -622 914 -703 914 q -542 847 -542 914 z "},"̈":{"ha":0,"x_min":-869,"x_max":-376,"o":"m -376 781 m -376 847 q -460 781 -376 781 q -540 847 -540 781 q -460 914 -540 914 q -376 847 -376 914 m -708 847 q -789 781 -708 781 q -869 847 -869 781 q -789 914 -869 914 q -708 847 -708 914 z "},"̉":{"ha":0,"x_min":-729,"x_max":-354,"o":"m -354 897 q -522 790 -354 790 l -594 790 q -624 768 -624 790 l -624 739 q -676 703 -624 703 q -729 740 -729 703 l -729 779 q -611 858 -729 858 l -533 858 q -474 897 -474 858 l -474 947 q -558 988 -474 988 l -646 988 q -697 1031 -697 988 q -646 1072 -697 1072 l -560 1072 q -354 961 -354 1072 l -354 897 z "},"̊":{"ha":0,"x_min":-817,"x_max":-433,"o":"m -433 728 m -671 728 q -817 867 -817 728 l -817 932 q -671 1072 -817 1072 l -579 1072 q -433 932 -433 1072 l -433 867 q -579 728 -433 728 l -671 728 m -532 935 q -585 996 -532 996 l -665 996 q -718 935 -718 996 l -718 865 q -665 806 -718 806 l -585 806 q -532 865 -532 806 l -532 935 z "},"̋":{"ha":0,"x_min":-950,"x_max":-183,"o":"m -183 724 m -458 746 q -485 728 -472 733 q -512 724 -497 724 q -574 772 -574 724 q -572 789 -574 781 q -558 808 -569 797 l -322 1050 q -295 1067 -310 1063 q -261 1072 -281 1072 q -183 1019 -183 1072 q -204 978 -183 996 l -458 746 m -833 746 q -860 728 -849 732 q -887 724 -872 724 q -950 772 -950 724 q -933 807 -950 790 l -697 1050 q -637 1072 -676 1072 q -558 1019 -558 1072 q -564 997 -558 1006 q -581 978 -569 988 l -833 746 z "},"̌":{"ha":0,"x_min":-894,"x_max":-351,"o":"m -351 724 m -565 749 q -592 730 -576 736 q -624 724 -607 724 q -681 750 -658 724 l -876 988 q -891 1008 -887 1000 q -893 1024 -894 1015 q -831 1072 -893 1072 q -775 1049 -794 1072 l -624 861 l -471 1049 q -447 1065 -461 1060 q -415 1072 -432 1071 q -351 1024 -351 1072 q -355 1008 -351 1015 q -369 988 -358 1000 l -565 749 z "},"̓":{"ha":0,"x_min":-710,"x_max":-537,"o":"m -537 769 m -657 1024 q -592 1072 -642 1072 q -537 1025 -537 1072 q -542 972 -537 1010 l -556 835 q -576 786 -558 803 q -632 769 -594 769 q -710 832 -710 769 q -707 855 -710 843 q -699 885 -704 867 l -657 1024 z "},"̛":{"ha":53,"x_min":-460,"x_max":140,"o":"m -393 561 q -460 618 -460 561 q -393 675 -460 675 l -82 675 q 3 711 3 675 l 3 858 q 71 917 3 917 q 140 858 140 917 l 140 711 q -86 561 140 561 l -393 561 z "},"̣":{"ha":0,"x_min":-703,"x_max":-542,"o":"m -542 -81 m -542 -147 q -622 -214 -542 -214 q -703 -147 -703 -214 q -622 -81 -703 -81 q -542 -147 -542 -81 z "},"̦":{"ha":0,"x_min":-854,"x_max":-500,"o":"m -500 -25 m -500 -136 q -747 -315 -500 -315 l -796 -315 q -854 -269 -854 -315 q -796 -224 -854 -224 l -747 -224 q -622 -137 -622 -224 l -622 -72 q -561 -25 -622 -25 q -500 -72 -500 -25 l -500 -136 z "},"̨":{"ha":0,"x_min":-818,"x_max":-424,"o":"m -424 0 m -715 -315 q -793 -297 -768 -315 q -818 -250 -818 -278 q -786 -181 -818 -217 l -611 26 q -587 46 -599 39 q -560 53 -575 53 q -525 40 -539 53 q -511 11 -511 28 q -525 -17 -511 1 l -683 -208 l -492 -208 q -424 -262 -424 -208 q -492 -315 -424 -315 l -715 -315 z "},"̭":{"ha":0,"x_min":-900,"x_max":-349,"o":"m -622 -146 l -781 -293 q -839 -315 -804 -315 q -882 -304 -865 -315 q -899 -269 -899 -293 q -896 -257 -900 -264 q -879 -237 -892 -250 l -682 -51 q -656 -35 -671 -40 q -624 -29 -640 -31 q -565 -51 -590 -29 l -367 -237 q -351 -256 -354 -249 q -349 -269 -349 -264 q -365 -304 -349 -293 q -408 -315 -382 -315 q -465 -294 -444 -315 l -622 -146 z "},"΄":{"ha":417,"x_min":94,"x_max":326,"o":"m 218 771 q 153 724 201 724 q 94 774 94 724 q 95 788 94 781 q 97 807 96 796 l 174 1110 q 195 1149 178 1135 q 249 1164 213 1164 q 326 1108 326 1164 q 319 1074 326 1092 l 218 771 z "},"΅":{"ha":799,"x_min":63,"x_max":736,"o":"m 63 724 m 411 771 q 346 724 394 724 q 288 774 288 724 q 288 788 288 781 q 290 807 289 796 l 367 1110 q 388 1149 371 1135 q 442 1164 406 1164 q 519 1108 519 1164 q 513 1074 519 1092 l 411 771 m 736 931 q 656 864 736 864 q 575 931 575 864 q 656 997 575 997 q 736 931 736 997 m 224 931 q 143 864 224 864 q 63 931 63 864 q 143 997 63 997 q 224 931 224 997 z "},"Ά":{"ha":1496,"x_min":94,"x_max":1418,"o":"m 94 0 m 1126 257 l 425 257 l 282 33 q 210 -7 256 -7 q 154 8 175 -7 q 133 50 133 22 q 136 70 133 61 q 149 93 139 79 l 699 931 q 731 958 711 950 q 775 968 751 967 q 849 931 824 968 l 1400 94 q 1415 71 1411 81 q 1418 50 1418 61 q 1397 8 1418 22 q 1342 -7 1376 -7 q 1271 33 1297 -7 l 1126 257 m 494 364 l 1058 364 l 775 803 l 494 364 m 218 632 q 153 585 201 585 q 94 635 94 585 q 95 649 94 642 q 97 668 96 657 l 174 971 q 195 1010 178 996 q 249 1025 213 1025 q 326 969 326 1025 q 319 935 326 953 l 218 632 z "},"·":{"ha":404,"x_min":119,"x_max":285,"o":"m 119 506 m 285 574 q 201 506 285 506 q 119 574 119 506 q 203 642 119 642 q 285 574 285 642 z "},"Έ":{"ha":1535,"x_min":94,"x_max":1429,"o":"m 94 0 m 788 0 q 381 267 381 0 l 381 699 q 781 961 381 961 l 979 961 q 1049 904 1049 961 q 979 847 1049 847 l 783 847 q 531 696 531 847 l 531 539 l 1358 539 q 1425 485 1425 539 q 1358 431 1425 431 l 531 431 l 531 271 q 794 114 531 114 l 1358 114 q 1429 57 1429 114 q 1358 0 1429 0 l 788 0 m 218 632 q 153 585 201 585 q 94 635 94 585 q 95 649 94 642 q 97 668 96 657 l 174 971 q 195 1010 178 996 q 249 1025 213 1025 q 326 969 326 1025 q 319 935 326 953 l 218 632 z "},"Ή":{"ha":1708,"x_min":94,"x_max":1569,"o":"m 94 0 m 1419 418 l 575 418 l 575 51 q 499 -7 575 -7 q 425 51 425 -7 l 425 910 q 503 968 425 968 q 575 910 575 968 l 575 532 l 1419 532 l 1419 911 q 1493 968 1419 968 q 1569 911 1569 968 l 1569 51 q 1493 -7 1569 -7 q 1419 51 1419 -7 l 1419 418 m 218 632 q 153 585 201 585 q 94 635 94 585 q 95 649 94 642 q 97 668 96 657 l 174 971 q 195 1010 178 996 q 249 1025 213 1025 q 326 969 326 1025 q 319 935 326 953 l 218 632 z "},"Ί":{"ha":711,"x_min":94,"x_max":575,"o":"m 94 0 m 425 910 q 503 968 425 968 q 575 910 575 968 l 575 51 q 499 -7 575 -7 q 425 51 425 -7 l 425 910 m 218 632 q 153 585 201 585 q 94 635 94 585 q 95 649 94 642 q 97 668 96 657 l 174 971 q 195 1010 178 996 q 249 1025 213 1025 q 326 969 326 1025 q 319 935 326 953 l 218 632 z "},"Ό":{"ha":1622,"x_min":94,"x_max":1490,"o":"m 94 0 m 1340 693 q 1088 847 1340 847 l 783 847 q 531 693 531 847 l 531 271 q 786 114 531 114 l 1085 114 q 1340 271 1340 114 l 1340 693 m 788 0 q 381 267 381 0 l 381 696 q 781 961 381 961 l 1090 961 q 1490 696 1490 961 l 1490 267 q 1083 0 1490 0 l 788 0 m 218 632 q 153 585 201 585 q 94 635 94 585 q 95 649 94 642 q 97 668 96 657 l 174 971 q 195 1010 178 996 q 249 1025 213 1025 q 326 969 326 1025 q 319 935 326 953 l 218 632 z "},"Ύ":{"ha":1550,"x_min":94,"x_max":1482,"o":"m 94 0 m 1003 421 l 1003 51 q 928 -7 1003 -7 q 851 51 851 -7 l 851 421 l 397 861 q 378 883 385 872 q 372 908 372 893 q 393 952 372 936 q 450 968 414 968 q 486 961 472 968 q 515 939 500 954 l 928 531 l 1342 940 q 1370 961 1356 954 q 1408 968 1385 968 q 1461 952 1440 968 q 1482 908 1482 936 q 1475 883 1482 893 q 1457 861 1468 872 l 1003 421 m 218 632 q 153 585 201 585 q 94 635 94 585 q 95 649 94 642 q 97 668 96 657 l 174 971 q 195 1010 178 996 q 249 1025 213 1025 q 326 969 326 1025 q 319 935 326 953 l 218 632 z "},"Ώ":{"ha":1625,"x_min":94,"x_max":1528,"o":"m 94 0 m 1051 0 q 985 60 985 0 q 1017 126 985 99 l 1264 342 q 1300 379 1285 360 q 1325 421 1315 399 q 1339 469 1335 443 q 1343 531 1343 496 l 1343 694 q 1089 847 1343 847 l 786 847 q 532 694 532 847 l 532 531 q 536 469 532 496 q 550 421 540 443 q 575 379 560 399 q 613 342 590 360 l 858 126 q 892 60 889 97 q 825 0 892 0 l 418 0 q 349 57 349 0 q 418 114 349 114 l 701 114 l 499 288 q 410 400 436 342 q 383 540 383 458 l 383 703 q 782 961 383 961 l 1093 961 q 1493 703 1493 961 l 1493 540 q 1467 401 1493 461 q 1376 288 1440 342 l 1174 114 l 1458 114 q 1528 57 1528 114 q 1458 0 1528 0 l 1051 0 m 218 632 q 153 585 201 585 q 94 635 94 585 q 95 649 94 642 q 97 668 96 657 l 174 971 q 195 1010 178 996 q 249 1025 213 1025 q 326 969 326 1025 q 319 935 326 953 l 218 632 z "},"ΐ":{"ha":656,"x_min":0,"x_max":657,"o":"m 0 0 m 349 771 q 283 724 332 724 q 225 774 225 724 q 226 788 225 781 q 228 807 226 796 l 304 1110 q 326 1149 308 1135 q 379 1164 343 1164 q 457 1108 457 1164 q 450 1074 457 1092 l 349 771 m 226 624 q 300 682 226 682 q 374 624 374 682 l 374 51 q 300 -7 374 -7 q 226 51 226 -7 l 226 624 m 657 931 q 576 864 657 864 q 496 931 496 864 q 576 997 496 997 q 657 931 657 997 m 161 931 q 81 864 161 864 q 0 931 0 864 q 81 997 0 997 q 161 931 161 997 z "},"Α":{"ha":1439,"x_min":78,"x_max":1363,"o":"m 78 0 m 1071 257 l 369 257 l 226 33 q 154 -7 200 -7 q 99 8 119 -7 q 78 50 78 22 q 81 70 78 61 q 93 93 83 79 l 643 931 q 676 958 656 950 q 719 968 696 967 q 793 931 768 968 l 1344 94 q 1359 71 1356 81 q 1363 50 1363 61 q 1342 8 1363 22 q 1286 -7 1321 -7 q 1215 33 1242 -7 l 1071 257 m 439 364 l 1003 364 l 719 803 l 439 364 z "},"Β":{"ha":1390,"x_min":138,"x_max":1275,"o":"m 138 0 m 1275 211 q 918 0 1275 0 l 204 0 q 138 54 138 0 l 138 907 q 204 961 138 961 l 896 961 q 1260 732 1260 961 l 1260 653 q 1144 488 1260 544 q 1275 308 1275 429 l 1275 211 m 1125 314 q 913 431 1125 431 l 288 431 l 288 124 q 299 114 288 114 l 913 114 q 1125 224 1125 114 l 1125 314 m 1111 728 q 897 847 1111 847 l 299 847 q 288 838 288 847 l 288 538 l 908 538 q 1111 650 1111 538 l 1111 728 z "},"Γ":{"ha":1267,"x_min":138,"x_max":1196,"o":"m 138 0 m 551 847 q 288 685 288 847 l 288 51 q 211 -7 288 -7 q 138 51 138 -7 l 138 689 q 544 961 138 961 l 1126 961 q 1196 904 1196 961 q 1126 847 1196 847 l 551 847 z "},"Δ":{"ha":1439,"x_min":78,"x_max":1363,"o":"m 156 0 q 78 57 78 0 q 81 77 78 68 q 94 100 85 86 l 644 931 q 719 968 669 968 q 794 931 769 968 l 1344 100 q 1363 57 1363 72 q 1342 15 1363 29 q 1286 0 1322 0 l 156 0 m 721 804 l 275 114 l 1168 114 l 721 804 z "},"Ε":{"ha":1290,"x_min":133,"x_max":1182,"o":"m 133 0 m 540 0 q 133 267 133 0 l 133 699 q 533 961 133 961 l 732 961 q 801 904 801 961 q 732 847 801 847 l 536 847 q 283 696 283 847 l 283 539 l 1111 539 q 1178 485 1178 539 q 1111 431 1178 431 l 283 431 l 283 271 q 547 114 283 114 l 1111 114 q 1182 57 1182 114 q 1111 0 1182 0 l 540 0 z "},"Ζ":{"ha":1281,"x_min":117,"x_max":1171,"o":"m 117 0 m 193 0 q 135 15 154 0 q 117 58 117 31 q 125 92 117 78 q 154 126 133 107 l 943 847 l 201 847 q 128 904 128 847 q 203 961 128 961 l 1096 961 q 1171 907 1171 961 q 1160 873 1171 889 q 1132 842 1149 857 l 339 114 l 1096 114 q 1171 57 1171 114 q 1094 0 1171 0 l 193 0 z "},"Η":{"ha":1419,"x_min":138,"x_max":1282,"o":"m 138 0 m 1132 418 l 288 418 l 288 51 q 211 -7 288 -7 q 138 51 138 -7 l 138 910 q 215 968 138 968 q 288 910 288 968 l 288 532 l 1132 532 l 1132 911 q 1206 968 1132 968 q 1282 911 1282 968 l 1282 51 q 1206 -7 1282 -7 q 1132 51 1132 -7 l 1132 418 z "},"Θ":{"ha":1375,"x_min":133,"x_max":1243,"o":"m 1093 693 q 840 847 1093 847 l 536 847 q 283 693 283 847 l 283 271 q 539 114 283 114 l 838 114 q 1093 271 1093 114 l 1093 693 m 540 0 q 133 267 133 0 l 133 696 q 533 961 133 961 l 843 961 q 1243 696 1243 961 l 1243 267 q 836 0 1243 0 l 540 0 m 444 431 q 378 485 378 431 q 444 539 378 539 l 931 539 q 997 485 997 539 q 931 431 997 431 l 444 431 z "},"Ι":{"ha":424,"x_min":138,"x_max":288,"o":"m 138 0 m 138 910 q 215 968 138 968 q 288 910 288 968 l 288 51 q 211 -7 288 -7 q 138 51 138 -7 l 138 910 z "},"Κ":{"ha":1251,"x_min":138,"x_max":1149,"o":"m 138 0 m 288 401 l 288 51 q 213 -7 288 -7 q 138 51 138 -7 l 138 911 q 213 968 138 968 q 288 911 288 968 l 288 569 l 999 951 q 1057 968 1029 968 q 1109 953 1090 968 q 1128 911 1128 939 q 1120 883 1128 897 q 1090 857 1113 868 l 378 489 l 1104 110 q 1140 83 1131 96 q 1149 51 1149 71 q 1128 8 1149 24 q 1071 -7 1108 -7 q 1046 -4 1060 -7 q 1013 11 1032 -1 l 288 401 z "},"Λ":{"ha":1440,"x_min":78,"x_max":1363,"o":"m 721 803 l 226 33 q 156 -7 200 -7 q 99 8 119 -7 q 78 50 78 22 q 94 94 78 68 l 644 931 q 677 958 657 950 q 719 968 697 967 q 794 931 769 968 l 1347 93 q 1360 70 1357 79 q 1363 50 1363 61 q 1342 8 1363 22 q 1286 -7 1322 -7 q 1217 33 1242 -7 l 721 803 z "},"Μ":{"ha":1785,"x_min":138,"x_max":1649,"o":"m 138 0 m 1499 714 l 969 31 q 940 4 958 15 q 892 -7 921 -7 q 844 4 863 -7 q 814 31 825 15 l 288 713 l 288 51 q 211 -7 288 -7 q 138 51 138 -7 l 138 904 q 213 968 138 968 q 264 957 244 968 q 299 926 283 946 l 892 156 l 1488 925 q 1522 956 1503 944 q 1572 968 1540 968 q 1649 904 1649 968 l 1649 51 q 1574 -7 1649 -7 q 1499 51 1499 -7 l 1499 714 z "},"Ν":{"ha":1415,"x_min":138,"x_max":1276,"o":"m 138 0 m 215 968 q 254 960 238 968 q 289 938 271 953 l 1126 199 l 1126 911 q 1201 968 1126 968 q 1276 911 1276 968 l 1276 51 q 1197 -7 1276 -7 q 1158 1 1174 -7 q 1124 25 1142 10 l 288 764 l 288 51 q 211 -7 288 -7 q 138 51 138 -7 l 138 908 q 215 968 138 968 z "},"Ξ":{"ha":1290,"x_min":108,"x_max":1157,"o":"m 176 0 q 108 57 108 0 q 176 114 108 114 l 1086 114 q 1157 57 1157 114 q 1086 0 1157 0 l 176 0 m 367 847 q 297 904 297 847 q 367 961 297 961 l 897 961 q 965 904 965 961 q 897 847 965 847 l 367 847 m 172 431 q 111 485 111 431 q 172 539 111 539 l 1092 539 q 1153 485 1153 539 q 1092 431 1153 431 l 172 431 z "},"Ο":{"ha":1375,"x_min":133,"x_max":1243,"o":"m 133 0 m 1093 693 q 840 847 1093 847 l 536 847 q 283 693 283 847 l 283 271 q 539 114 283 114 l 838 114 q 1093 271 1093 114 l 1093 693 m 540 0 q 133 267 133 0 l 133 696 q 533 961 133 961 l 843 961 q 1243 696 1243 961 l 1243 267 q 836 0 1243 0 l 540 0 z "},"Π":{"ha":1419,"x_min":138,"x_max":1283,"o":"m 138 0 m 1133 685 q 868 847 1133 847 l 551 847 q 288 685 288 847 l 288 51 q 211 -7 288 -7 q 138 51 138 -7 l 138 689 q 544 961 138 961 l 875 961 q 1283 689 1283 961 l 1283 51 q 1208 -7 1283 -7 q 1133 51 1133 -7 l 1133 685 z "},"Ρ":{"ha":1385,"x_min":138,"x_max":1286,"o":"m 138 0 m 1286 578 q 854 310 1286 310 l 288 310 l 288 51 q 211 -7 288 -7 q 138 51 138 -7 l 138 913 q 201 961 138 961 l 854 961 q 1286 693 1286 961 l 1286 578 m 288 424 l 858 424 q 1136 582 1136 424 l 1136 689 q 860 847 1136 847 l 299 847 q 288 838 288 847 l 288 424 z "},"Σ":{"ha":1278,"x_min":118,"x_max":1171,"o":"m 194 0 q 118 56 118 0 q 161 129 118 96 l 625 485 l 164 835 q 130 869 142 854 q 118 904 118 885 q 196 961 118 961 l 1085 961 q 1160 904 1160 961 q 1085 847 1160 847 l 360 847 l 772 539 q 803 489 803 515 q 774 442 803 465 l 346 114 l 1096 114 q 1171 57 1171 114 q 1096 0 1171 0 l 194 0 z "},"Τ":{"ha":1189,"x_min":71,"x_max":1118,"o":"m 71 0 m 519 847 l 140 847 q 71 904 71 847 q 140 961 71 961 l 1047 961 q 1118 906 1118 961 q 1047 847 1118 847 l 669 847 l 669 51 q 596 -7 669 -7 q 519 51 519 -7 l 519 847 z "},"Υ":{"ha":1246,"x_min":67,"x_max":1176,"o":"m 67 0 m 697 421 l 697 51 q 622 -7 697 -7 q 546 51 546 -7 l 546 421 l 92 861 q 73 883 79 872 q 67 908 67 893 q 88 952 67 936 q 144 968 108 968 q 181 961 167 968 q 210 939 194 954 l 622 531 l 1036 940 q 1065 961 1050 954 q 1103 968 1079 968 q 1156 952 1135 968 q 1176 908 1176 936 q 1169 883 1176 893 q 1151 861 1163 872 l 697 421 z "},"Φ":{"ha":1338,"x_min":100,"x_max":1238,"o":"m 100 0 m 742 157 l 742 51 q 668 -7 742 -7 q 594 51 594 -7 l 594 157 l 501 157 q 100 429 100 157 l 100 546 q 500 804 100 804 l 594 804 l 594 910 q 669 968 594 968 q 742 910 742 968 l 742 804 l 839 804 q 1238 546 1238 804 l 1238 429 q 836 157 1238 157 l 742 157 m 1089 542 q 839 693 1089 693 l 742 693 l 742 268 l 839 268 q 1089 431 1089 268 l 1089 542 m 247 431 q 500 268 247 268 l 594 268 l 594 693 l 500 693 q 247 542 247 693 l 247 431 z "},"Χ":{"ha":1346,"x_min":103,"x_max":1238,"o":"m 103 0 m 668 393 l 242 17 q 209 -3 225 1 q 178 -7 193 -7 q 123 8 143 -7 q 103 47 103 22 q 109 75 103 64 q 133 101 115 86 l 565 483 l 142 856 q 117 885 122 872 q 111 908 111 897 q 131 952 111 936 q 188 968 151 968 q 220 963 206 968 q 251 943 235 958 l 674 571 l 1097 943 q 1161 968 1126 968 q 1214 953 1193 968 q 1235 914 1235 939 q 1204 860 1235 886 l 776 481 l 1206 104 q 1232 74 1226 85 q 1238 53 1238 63 q 1217 9 1238 25 q 1160 -7 1196 -7 q 1127 -2 1142 -7 q 1096 18 1113 3 l 668 393 z "},"Ψ":{"ha":1361,"x_min":108,"x_max":1251,"o":"m 604 333 l 515 333 q 108 606 108 333 l 108 910 q 182 968 108 968 q 257 910 257 968 l 257 607 q 521 444 257 444 l 604 444 l 604 910 q 681 968 604 968 q 753 910 753 968 l 753 444 l 838 444 q 1101 607 1101 444 l 1101 910 q 1176 968 1101 968 q 1251 910 1251 968 l 1251 606 q 844 333 1251 333 l 753 333 l 753 51 q 679 -7 753 -7 q 604 51 604 -7 l 604 333 z "},"Ω":{"ha":1375,"x_min":99,"x_max":1278,"o":"m 801 0 q 735 60 735 0 q 767 126 735 99 l 1014 342 q 1050 379 1035 360 q 1075 421 1065 399 q 1089 469 1085 443 q 1093 531 1093 496 l 1093 694 q 839 847 1093 847 l 536 847 q 282 694 282 847 l 282 531 q 286 469 282 496 q 300 421 290 443 q 325 379 310 399 q 363 342 340 360 l 608 126 q 642 60 639 97 q 575 0 642 0 l 168 0 q 99 57 99 0 q 168 114 99 114 l 451 114 l 249 288 q 160 400 186 342 q 133 540 133 458 l 133 703 q 532 961 133 961 l 843 961 q 1243 703 1243 961 l 1243 540 q 1217 401 1243 461 q 1126 288 1190 342 l 924 114 l 1208 114 q 1278 57 1278 114 q 1208 0 1278 0 l 801 0 z "},"Ϊ":{"ha":494,"x_min":0,"x_max":493,"o":"m 0 0 m 172 910 q 250 968 172 968 q 322 910 322 968 l 322 51 q 246 -7 322 -7 q 172 51 172 -7 l 172 910 m 493 1126 q 410 1060 493 1060 q 329 1126 329 1060 q 410 1193 329 1193 q 493 1126 493 1193 m 161 1126 q 81 1060 161 1060 q 0 1126 0 1060 q 81 1193 0 1193 q 161 1126 161 1193 z "},"Ϋ":{"ha":1246,"x_min":67,"x_max":1176,"o":"m 67 0 m 697 421 l 697 51 q 622 -7 697 -7 q 546 51 546 -7 l 546 421 l 92 861 q 73 883 79 872 q 67 908 67 893 q 88 952 67 936 q 144 968 108 968 q 181 961 167 968 q 210 939 194 954 l 622 531 l 1036 940 q 1065 961 1050 954 q 1103 968 1079 968 q 1156 952 1135 968 q 1176 908 1176 936 q 1169 883 1176 893 q 1151 861 1163 872 l 697 421 m 869 1126 q 786 1060 869 1060 q 706 1126 706 1060 q 786 1193 706 1193 q 869 1126 869 1193 m 538 1126 q 457 1060 538 1060 q 376 1126 376 1060 q 457 1193 376 1193 q 538 1126 538 1193 z "},"ά":{"ha":1240,"x_min":126,"x_max":1107,"o":"m 126 0 m 960 553 q 947 561 960 561 l 481 561 q 275 456 275 561 l 275 218 q 481 113 275 113 l 815 113 q 888 57 888 113 q 815 0 888 0 l 486 0 q 126 219 126 0 l 126 454 q 486 675 126 675 l 1046 675 q 1107 625 1107 675 l 1107 51 q 1032 -7 1107 -7 q 960 51 960 -7 l 960 553 m 628 771 q 563 724 611 724 q 504 774 504 724 q 505 788 504 781 q 507 807 506 796 l 583 1110 q 605 1149 588 1135 q 658 1164 622 1164 q 736 1108 736 1164 q 729 1074 736 1092 l 628 771 z "},"έ":{"ha":1142,"x_min":126,"x_max":1039,"o":"m 126 0 m 650 771 q 585 724 633 724 q 526 774 526 724 q 527 788 526 781 q 529 807 528 796 l 606 1110 q 627 1149 610 1135 q 681 1164 644 1164 q 758 1108 758 1164 q 751 1074 758 1092 l 650 771 m 275 286 l 275 214 q 472 108 275 108 l 967 108 q 1039 54 1039 108 q 967 0 1039 0 l 486 0 q 126 219 126 0 l 126 454 q 486 675 126 675 l 967 675 q 1039 621 1039 675 q 967 567 1039 567 l 472 567 q 275 461 275 567 l 275 388 l 742 388 q 807 336 807 388 q 742 286 807 286 l 275 286 z "},"ή":{"ha":1246,"x_min":131,"x_max":1115,"o":"m 131 0 m 968 456 q 761 561 968 561 l 483 561 q 278 456 278 561 l 278 51 q 204 -7 278 -7 q 131 51 131 -7 l 131 454 q 489 675 131 675 l 757 675 q 1115 454 1115 675 l 1115 -181 q 1042 -239 1115 -239 q 968 -181 968 -239 l 968 456 m 632 771 q 567 724 615 724 q 508 774 508 724 q 509 788 508 781 q 511 807 510 796 l 588 1110 q 609 1149 592 1135 q 663 1164 626 1164 q 740 1108 740 1164 q 733 1074 740 1092 l 632 771 z "},"ί":{"ha":374,"x_min":110,"x_max":342,"o":"m 110 0 m 233 771 q 168 724 217 724 q 110 774 110 724 q 110 788 110 781 q 113 807 111 796 l 189 1110 q 210 1149 193 1135 q 264 1164 228 1164 q 342 1108 342 1164 q 335 1074 342 1092 l 233 771 m 110 624 q 183 682 110 682 q 257 624 257 682 l 257 51 q 183 -7 257 -7 q 110 51 110 -7 l 110 624 z "},"ΰ":{"ha":1232,"x_min":131,"x_max":1101,"o":"m 131 0 m 489 0 q 131 219 131 0 l 131 624 q 204 682 131 682 q 278 624 278 682 l 278 218 q 483 113 278 113 l 747 113 q 953 218 953 113 l 953 624 q 1026 682 953 682 q 1101 624 1101 682 l 1101 219 q 743 0 1101 0 l 489 0 m 650 771 q 585 724 633 724 q 526 774 526 724 q 527 788 526 781 q 529 807 528 796 l 606 1110 q 627 1149 610 1135 q 681 1164 644 1164 q 758 1108 758 1164 q 751 1074 758 1092 l 650 771 m 986 931 q 906 864 986 864 q 825 931 825 864 q 906 997 825 997 q 986 931 986 997 m 439 931 q 358 864 439 864 q 278 931 278 864 q 358 997 278 997 q 439 931 439 997 z "},"α":{"ha":1240,"x_min":126,"x_max":1107,"o":"m 960 553 q 947 561 960 561 l 481 561 q 275 456 275 561 l 275 218 q 481 113 275 113 l 815 113 q 888 57 888 113 q 815 0 888 0 l 486 0 q 126 219 126 0 l 126 454 q 486 675 126 675 l 1046 675 q 1107 625 1107 675 l 1107 51 q 1032 -7 1107 -7 q 960 51 960 -7 l 960 553 z "},"β":{"ha":1226,"x_min":133,"x_max":1107,"o":"m 281 0 l 281 -181 q 207 -239 281 -239 q 133 -181 133 -239 l 133 774 q 425 981 133 981 l 650 981 q 907 774 907 981 l 907 664 q 878 585 907 618 q 1107 425 1107 561 l 1107 161 q 768 0 1107 0 l 281 0 m 281 113 l 771 113 q 963 186 963 113 l 963 428 q 772 496 963 496 l 474 496 q 414 549 414 496 q 474 600 414 600 l 576 600 q 761 664 761 600 l 761 774 q 613 871 761 871 l 436 871 q 281 775 281 871 l 281 113 z "},"γ":{"ha":1254,"x_min":71,"x_max":1182,"o":"m 89 583 q 74 605 78 596 q 71 622 71 614 q 92 666 71 650 q 147 682 113 682 q 185 674 171 682 q 213 651 200 667 l 625 149 l 1042 651 q 1069 674 1054 667 q 1107 682 1083 682 q 1161 667 1140 682 q 1182 624 1182 651 q 1178 605 1182 614 q 1164 583 1175 596 l 700 31 l 700 -182 q 626 -240 700 -240 q 551 -182 551 -240 l 551 31 l 89 583 z "},"δ":{"ha":1254,"x_min":131,"x_max":1126,"o":"m 131 0 m 489 0 q 131 219 131 0 l 131 776 q 469 985 131 985 l 588 985 q 657 931 657 985 q 588 875 657 875 l 469 875 q 278 778 278 875 l 278 664 l 768 664 q 1126 444 1126 664 l 1126 219 q 768 0 1126 0 l 489 0 m 278 551 l 278 218 q 483 113 278 113 l 772 113 q 978 218 978 113 l 978 446 q 772 551 978 551 l 278 551 z "},"ε":{"ha":1142,"x_min":126,"x_max":1039,"o":"m 126 0 m 275 286 l 275 214 q 472 108 275 108 l 967 108 q 1039 54 1039 108 q 967 0 1039 0 l 486 0 q 126 219 126 0 l 126 454 q 486 675 126 675 l 967 675 q 1039 621 1039 675 q 967 567 1039 567 l 472 567 q 275 461 275 567 l 275 388 l 742 388 q 807 336 807 388 q 742 286 807 286 l 275 286 z "},"ζ":{"ha":1139,"x_min":126,"x_max":1049,"o":"m 1039 -181 q 964 -239 1039 -239 q 892 -181 892 -239 l 892 -24 q 822 0 892 0 l 486 0 q 126 219 126 0 l 126 407 q 150 497 126 456 q 229 568 174 538 l 781 867 l 206 867 q 131 924 131 867 q 203 981 131 981 l 976 981 q 1049 922 1049 981 q 1035 885 1049 900 q 996 856 1021 869 l 332 493 q 288 451 300 475 q 275 396 275 428 l 275 218 q 481 113 275 113 l 818 113 q 1039 -25 1039 113 l 1039 -181 z "},"η":{"ha":1246,"x_min":131,"x_max":1115,"o":"m 968 456 q 761 561 968 561 l 483 561 q 278 456 278 561 l 278 51 q 204 -7 278 -7 q 131 51 131 -7 l 131 454 q 489 675 131 675 l 757 675 q 1115 454 1115 675 l 1115 -181 q 1042 -239 1115 -239 q 968 -181 968 -239 l 968 456 z "},"θ":{"ha":1240,"x_min":126,"x_max":1114,"o":"m 486 0 q 126 219 126 0 l 126 761 q 486 981 126 981 l 754 981 q 1114 761 1114 981 l 1114 219 q 754 0 1114 0 l 486 0 m 968 440 l 272 440 l 272 218 q 479 113 272 113 l 760 113 q 968 218 968 113 l 968 440 m 272 549 l 968 549 l 968 761 q 760 867 968 867 l 479 867 q 272 761 272 867 l 272 549 z "},"ι":{"ha":365,"x_min":110,"x_max":257,"o":"m 110 0 m 110 624 q 183 682 110 682 q 257 624 257 682 l 257 51 q 183 -7 257 -7 q 110 51 110 -7 l 110 624 z "},"κ":{"ha":1114,"x_min":133,"x_max":1011,"o":"m 133 0 m 281 267 l 281 51 q 207 -7 281 -7 q 133 51 133 -7 l 133 625 q 207 682 133 682 q 281 625 281 682 l 281 425 l 872 664 q 907 678 893 672 q 938 682 921 683 q 992 667 972 682 q 1011 625 1011 653 q 1001 593 1011 606 q 964 569 990 581 l 386 346 l 967 104 q 1003 78 994 92 q 1011 50 1011 64 q 933 -7 1011 -7 q 903 -2 915 -7 q 865 14 890 3 l 281 267 z "},"λ":{"ha":1121,"x_min":71,"x_max":1049,"o":"m 586 478 l 211 21 q 144 -7 189 -7 q 92 8 113 -7 q 71 50 71 22 q 76 74 71 65 q 96 99 81 83 l 506 593 l 294 896 q 283 931 283 911 q 303 973 283 958 q 360 988 324 988 q 405 977 389 988 q 433 950 421 967 l 1038 86 q 1047 67 1044 75 q 1049 50 1049 60 q 1028 8 1049 22 q 974 -7 1007 -7 q 928 3 943 -7 q 900 31 913 13 l 586 478 z "},"μ":{"ha":1261,"x_min":133,"x_max":1129,"o":"m 281 0 l 281 -187 q 207 -246 281 -246 q 133 -187 133 -246 l 133 624 q 207 682 133 682 q 281 624 281 682 l 281 113 l 775 113 q 981 250 981 113 l 981 624 q 1056 682 981 682 q 1129 624 1129 682 l 1129 51 q 1058 -7 1129 -7 q 986 53 990 -7 q 771 0 906 0 l 281 0 z "},"ν":{"ha":1254,"x_min":71,"x_max":1182,"o":"m 71 0 m 700 28 q 664 -1 682 6 q 624 -7 646 -7 q 585 0 601 -7 q 553 28 569 7 l 89 583 q 74 605 78 596 q 71 622 71 614 q 92 666 71 650 q 147 682 113 682 q 185 674 171 682 q 213 651 200 667 l 625 149 l 1042 651 q 1069 674 1054 667 q 1107 682 1083 682 q 1161 667 1140 682 q 1182 624 1182 651 q 1178 605 1182 614 q 1164 583 1175 596 l 700 28 z "},"ξ":{"ha":1142,"x_min":128,"x_max":1038,"o":"m 1038 -181 q 965 -239 1038 -239 q 892 -181 892 -239 l 892 -24 q 815 0 892 0 l 469 0 q 128 161 128 0 l 128 394 q 361 572 128 547 q 328 669 328 611 l 328 790 q 586 981 328 981 l 772 981 q 844 924 844 981 q 772 867 844 867 l 599 867 q 474 788 474 867 l 474 669 q 643 588 474 588 l 951 588 q 1010 538 1010 588 q 951 485 1010 485 l 463 485 q 274 396 274 485 l 274 186 q 468 113 274 113 l 810 113 q 1038 -25 1038 113 l 1038 -181 z "},"ο":{"ha":1240,"x_min":126,"x_max":1114,"o":"m 126 0 m 486 0 q 126 219 126 0 l 126 454 q 486 675 126 675 l 754 675 q 1114 454 1114 675 l 1114 219 q 754 0 1114 0 l 486 0 m 965 456 q 758 561 965 561 l 481 561 q 275 456 275 561 l 275 218 q 481 113 275 113 l 758 113 q 965 218 965 113 l 965 456 z "},"π":{"ha":1296,"x_min":85,"x_max":1211,"o":"m 1086 565 l 1086 51 q 1013 -7 1086 -7 q 938 51 938 -7 l 938 565 l 357 565 l 357 51 q 285 -7 357 -7 q 210 51 210 -7 l 210 565 l 153 565 q 85 619 85 565 q 153 675 85 675 l 1142 675 q 1211 619 1211 675 q 1142 565 1211 565 l 1086 565 z "},"ρ":{"ha":1254,"x_min":131,"x_max":1126,"o":"m 131 0 m 278 0 l 278 -183 q 204 -242 278 -242 q 131 -183 131 -242 l 131 454 q 489 675 131 675 l 768 675 q 1126 454 1126 675 l 1126 219 q 768 0 1126 0 l 278 0 m 278 113 l 772 113 q 978 218 978 113 l 978 456 q 772 561 978 561 l 483 561 q 278 456 278 561 l 278 113 z "},"ς":{"ha":1142,"x_min":126,"x_max":1039,"o":"m 1039 -181 q 964 -239 1039 -239 q 892 -181 892 -239 l 892 -25 q 818 0 892 0 l 476 0 q 126 219 126 0 l 126 454 q 486 675 126 675 l 967 675 q 1039 618 1039 675 q 967 561 1039 561 l 472 561 q 275 456 275 561 l 275 219 q 472 113 275 113 l 813 113 q 1039 -25 1039 113 l 1039 -181 z "},"σ":{"ha":1347,"x_min":126,"x_max":1263,"o":"m 486 0 q 126 219 126 0 l 126 454 q 486 675 126 675 l 1192 675 q 1263 618 1263 675 q 1192 561 1263 561 l 1097 561 l 1097 219 q 739 0 1097 0 l 486 0 m 743 113 q 949 218 949 113 l 949 561 l 472 561 q 275 456 275 561 l 275 218 q 481 113 275 113 l 743 113 z "},"τ":{"ha":982,"x_min":85,"x_max":897,"o":"m 85 0 m 417 561 l 156 561 q 85 618 85 561 q 156 675 85 675 l 826 675 q 897 618 897 675 q 826 561 897 561 l 565 561 l 565 51 q 492 -7 565 -7 q 417 51 417 -7 l 417 561 z "},"υ":{"ha":1232,"x_min":131,"x_max":1101,"o":"m 131 0 m 489 0 q 131 219 131 0 l 131 624 q 204 682 131 682 q 278 624 278 682 l 278 218 q 483 113 278 113 l 747 113 q 953 218 953 113 l 953 624 q 1026 682 953 682 q 1101 624 1101 682 l 1101 219 q 743 0 1101 0 l 489 0 z "},"φ":{"ha":1401,"x_min":126,"x_max":1275,"o":"m 126 0 m 629 0 l 486 0 q 126 219 126 0 l 126 454 q 486 675 126 675 l 629 675 l 629 929 q 700 988 629 988 q 771 929 771 988 l 771 675 l 915 675 q 1275 454 1275 675 l 1275 219 q 915 0 1275 0 l 771 0 l 771 -181 q 701 -239 771 -239 q 629 -181 629 -239 l 629 0 m 1131 458 q 922 564 1131 564 l 771 564 l 771 111 l 922 111 q 1131 217 1131 111 l 1131 458 m 272 217 q 479 111 272 111 l 629 111 l 629 564 l 479 564 q 272 458 272 564 l 272 217 z "},"χ":{"ha":1163,"x_min":93,"x_max":1071,"o":"m 576 128 l 228 -212 q 197 -234 211 -229 q 163 -239 182 -239 q 112 -224 131 -239 q 93 -183 93 -210 q 97 -158 93 -168 q 117 -132 101 -147 l 481 221 l 117 572 q 98 597 103 585 q 93 625 93 608 q 113 667 93 651 q 167 682 133 682 q 202 676 186 682 q 235 654 218 669 l 585 314 l 933 653 q 963 675 949 668 q 1001 682 978 682 q 1052 667 1033 682 q 1071 625 1071 651 q 1065 597 1071 608 q 1044 572 1058 586 l 683 219 l 1044 -131 q 1065 -157 1060 -146 q 1071 -183 1071 -168 q 1051 -224 1071 -210 q 997 -239 1031 -239 q 965 -235 982 -239 q 932 -214 947 -231 l 576 128 z "},"ψ":{"ha":1406,"x_min":131,"x_max":1276,"o":"m 775 0 l 775 -181 q 704 -239 775 -239 q 632 -181 632 -239 l 632 0 l 489 0 q 131 219 131 0 l 131 624 q 204 682 131 682 q 278 624 278 682 l 278 218 q 483 113 278 113 l 632 113 l 632 929 q 704 988 632 988 q 775 929 775 988 l 775 113 l 922 113 q 1129 218 1129 113 l 1129 624 q 1201 682 1129 682 q 1276 624 1276 682 l 1276 219 q 918 0 1276 0 l 775 0 z "},"ω":{"ha":1533,"x_min":131,"x_max":1397,"o":"m 131 0 m 489 0 q 131 219 131 0 l 131 624 q 204 682 131 682 q 278 624 278 682 l 278 218 q 474 113 278 113 l 694 113 l 694 624 q 767 682 694 682 q 839 624 839 682 l 839 113 l 1053 113 q 1250 218 1250 113 l 1250 624 q 1324 682 1250 682 q 1397 624 1397 682 l 1397 219 q 1039 0 1397 0 l 489 0 z "},"ϊ":{"ha":494,"x_min":0,"x_max":493,"o":"m 0 0 m 493 847 q 410 781 493 781 q 329 847 329 781 q 410 914 329 914 q 493 847 493 914 m 161 847 q 81 781 161 781 q 0 847 0 781 q 81 914 0 914 q 161 847 161 914 m 172 624 q 246 682 172 682 q 319 624 319 682 l 319 51 q 246 -7 319 -7 q 172 51 172 -7 l 172 624 z "},"ϋ":{"ha":1232,"x_min":131,"x_max":1101,"o":"m 131 0 m 489 0 q 131 219 131 0 l 131 624 q 204 682 131 682 q 278 624 278 682 l 278 218 q 483 113 278 113 l 747 113 q 953 218 953 113 l 953 624 q 1026 682 953 682 q 1101 624 1101 682 l 1101 219 q 743 0 1101 0 l 489 0 m 865 847 q 782 781 865 781 q 701 847 701 781 q 782 914 701 914 q 865 847 865 914 m 533 847 q 453 781 533 781 q 372 847 372 781 q 453 914 372 914 q 533 847 533 914 z "},"ό":{"ha":1240,"x_min":126,"x_max":1114,"o":"m 126 0 m 486 0 q 126 219 126 0 l 126 454 q 486 675 126 675 l 754 675 q 1114 454 1114 675 l 1114 219 q 754 0 1114 0 l 486 0 m 965 456 q 758 561 965 561 l 481 561 q 275 456 275 561 l 275 218 q 481 113 275 113 l 758 113 q 965 218 965 113 l 965 456 m 628 771 q 563 724 611 724 q 504 774 504 724 q 505 788 504 781 q 507 807 506 796 l 583 1110 q 605 1149 588 1135 q 658 1164 622 1164 q 736 1108 736 1164 q 729 1074 736 1092 l 628 771 z "},"ύ":{"ha":1232,"x_min":131,"x_max":1101,"o":"m 131 0 m 489 0 q 131 219 131 0 l 131 624 q 204 682 131 682 q 278 624 278 682 l 278 218 q 483 113 278 113 l 747 113 q 953 218 953 113 l 953 624 q 1026 682 953 682 q 1101 624 1101 682 l 1101 219 q 743 0 1101 0 l 489 0 m 625 771 q 560 724 608 724 q 501 774 501 724 q 502 788 501 781 q 504 807 503 796 l 581 1110 q 602 1149 585 1135 q 656 1164 619 1164 q 733 1108 733 1164 q 726 1074 733 1092 l 625 771 z "},"ώ":{"ha":1533,"x_min":131,"x_max":1397,"o":"m 131 0 m 817 771 q 751 724 800 724 q 693 774 693 724 q 694 788 693 781 q 696 807 694 796 l 772 1110 q 794 1149 776 1135 q 847 1164 811 1164 q 925 1108 925 1164 q 918 1074 925 1092 l 817 771 m 489 0 q 131 219 131 0 l 131 624 q 204 682 131 682 q 278 624 278 682 l 278 218 q 474 113 278 113 l 694 113 l 694 624 q 767 682 694 682 q 839 624 839 682 l 839 113 l 1053 113 q 1250 218 1250 113 l 1250 624 q 1324 682 1250 682 q 1397 624 1397 682 l 1397 219 q 1039 0 1397 0 l 489 0 z "},"Ѐ":{"ha":1290,"x_min":138,"x_max":1182,"o":"m 138 0 m 404 1257 q 387 1275 393 1267 q 382 1299 381 1283 q 460 1351 382 1351 q 494 1347 479 1351 q 521 1329 510 1343 l 757 1088 q 774 1051 774 1067 q 711 1003 774 1003 q 683 1008 696 1003 q 657 1025 671 1013 l 404 1257 m 288 431 l 288 124 q 299 114 288 114 l 1111 114 q 1182 57 1182 114 q 1111 0 1182 0 l 206 0 q 138 49 138 0 l 138 913 q 201 961 138 961 l 732 961 q 801 904 801 961 q 732 847 801 847 l 299 847 q 288 839 288 847 l 288 539 l 1110 539 q 1178 485 1178 539 q 1110 431 1178 431 l 288 431 z "},"Ё":{"ha":1290,"x_min":138,"x_max":1182,"o":"m 138 0 m 288 431 l 288 124 q 299 114 288 114 l 1111 114 q 1182 57 1182 114 q 1111 0 1182 0 l 206 0 q 138 49 138 0 l 138 913 q 201 961 138 961 l 732 961 q 801 904 801 961 q 732 847 801 847 l 299 847 q 288 839 288 847 l 288 539 l 1110 539 q 1178 485 1178 539 q 1110 431 1178 431 l 288 431 m 881 1126 q 797 1060 881 1060 q 717 1126 717 1060 q 797 1193 717 1193 q 881 1126 881 1193 m 549 1126 q 468 1060 549 1060 q 388 1126 388 1060 q 468 1193 388 1193 q 549 1126 549 1193 z "},"Ђ":{"ha":1610,"x_min":71,"x_max":1500,"o":"m 774 -233 q 701 -176 701 -233 q 774 -121 701 -121 l 1144 -121 q 1350 14 1350 -121 l 1350 361 q 1086 524 1350 524 l 628 524 l 628 51 q 553 -7 628 -7 q 478 51 478 -7 l 478 847 l 140 847 q 71 904 71 847 q 140 961 71 961 l 1006 961 q 1075 906 1075 961 q 1006 847 1075 847 l 628 847 l 628 638 l 1093 638 q 1500 365 1500 638 l 1500 15 q 1142 -233 1500 -233 l 774 -233 z "},"Ѓ":{"ha":1267,"x_min":138,"x_max":1196,"o":"m 138 0 m 718 1025 q 691 1007 703 1011 q 664 1003 679 1003 q 601 1051 601 1003 q 618 1086 601 1069 l 854 1329 q 914 1351 875 1351 q 993 1299 993 1351 q 988 1276 993 1285 q 971 1257 982 1267 l 718 1025 m 551 847 q 288 685 288 847 l 288 51 q 211 -7 288 -7 q 138 51 138 -7 l 138 689 q 544 961 138 961 l 1126 961 q 1196 904 1196 961 q 1126 847 1196 847 l 551 847 z "},"Є":{"ha":1290,"x_min":133,"x_max":1182,"o":"m 133 0 m 540 0 q 133 267 133 0 l 133 699 q 533 961 133 961 l 732 961 q 801 904 801 961 q 732 847 801 847 l 536 847 q 283 696 283 847 l 283 539 l 1111 539 q 1178 485 1178 539 q 1111 431 1178 431 l 283 431 l 283 271 q 547 114 283 114 l 1111 114 q 1182 57 1182 114 q 1111 0 1182 0 l 540 0 z "},"Ѕ":{"ha":1261,"x_min":104,"x_max":1161,"o":"m 104 0 m 1161 221 q 739 0 1161 0 l 175 0 q 104 57 104 0 q 175 114 104 114 l 739 114 q 1010 229 1010 114 l 1010 328 q 753 440 1010 440 l 490 440 q 111 646 111 440 l 111 747 q 500 961 111 961 l 656 961 q 725 904 725 961 q 656 847 725 847 l 501 847 q 261 742 261 847 l 261 656 q 489 553 261 553 l 742 553 q 1161 333 1161 553 l 1161 221 z "},"І":{"ha":544,"x_min":138,"x_max":288,"o":"m 138 0 m 138 910 q 215 968 138 968 q 288 910 288 968 l 288 51 q 211 -7 288 -7 q 138 51 138 -7 l 138 910 z "},"Ї":{"ha":694,"x_min":47,"x_max":540,"o":"m 47 0 m 211 910 q 289 968 211 968 q 361 910 361 968 l 361 51 q 285 -7 361 -7 q 211 51 211 -7 l 211 910 m 540 1126 q 457 1060 540 1060 q 376 1126 376 1060 q 457 1193 376 1193 q 540 1126 540 1193 m 208 1126 q 128 1060 208 1060 q 47 1126 47 1060 q 128 1193 47 1193 q 208 1126 208 1193 z "},"Ј":{"ha":788,"x_min":71,"x_max":653,"o":"m 71 0 m 140 0 q 71 57 71 0 q 140 114 71 114 l 239 114 q 503 276 503 114 l 503 910 q 578 968 503 968 q 653 910 653 968 l 653 272 q 246 0 653 0 l 140 0 z "},"Љ":{"ha":2411,"x_min":71,"x_max":2313,"o":"m 1164 838 q 1153 847 1164 847 l 821 847 q 758 841 788 847 q 706 818 729 835 q 663 772 682 801 q 632 694 644 742 q 609 599 621 657 q 585 478 597 540 q 560 354 572 415 q 538 249 549 293 q 497 138 521 185 q 433 60 474 90 q 331 15 393 29 q 176 0 269 0 l 140 0 q 71 57 71 0 q 140 114 71 114 l 172 114 q 269 120 231 114 q 332 144 307 126 q 372 192 357 161 q 400 271 388 222 q 424 370 413 311 q 448 494 436 429 q 472 620 460 558 q 499 726 485 682 q 543 831 517 786 q 607 904 569 875 q 695 947 644 933 q 815 961 746 961 l 1238 961 q 1314 904 1314 961 l 1314 604 l 1881 604 q 2313 336 2313 604 l 2313 268 q 1881 0 2313 0 l 1228 0 q 1164 49 1164 0 l 1164 838 m 1314 490 l 1314 124 q 1325 114 1314 114 l 1886 114 q 2163 272 2163 114 l 2163 332 q 1883 490 2163 490 l 1314 490 z "},"Њ":{"ha":2379,"x_min":138,"x_max":2281,"o":"m 1132 910 q 1206 968 1132 968 q 1282 910 1282 968 l 1282 604 l 1849 604 q 2281 336 2281 604 l 2281 268 q 1849 0 2281 0 l 1196 0 q 1132 49 1132 0 l 1132 490 l 288 490 l 288 51 q 211 -7 288 -7 q 138 51 138 -7 l 138 910 q 215 968 138 968 q 288 910 288 968 l 288 604 l 1132 604 l 1132 910 m 1282 490 l 1282 124 q 1293 114 1282 114 l 1854 114 q 2131 272 2131 114 l 2131 332 q 1851 490 2131 490 l 1282 490 z "},"Ћ":{"ha":1610,"x_min":71,"x_max":1500,"o":"m 1500 51 q 1424 -7 1500 -7 q 1350 51 1350 -7 l 1350 361 q 1086 524 1350 524 l 628 524 l 628 51 q 553 -7 628 -7 q 478 51 478 -7 l 478 847 l 140 847 q 71 904 71 847 q 140 961 71 961 l 1006 961 q 1075 906 1075 961 q 1006 847 1075 847 l 628 847 l 628 638 l 1093 638 q 1500 365 1500 638 l 1500 51 z "},"Ќ":{"ha":1251,"x_min":138,"x_max":1149,"o":"m 138 0 m 288 401 l 288 51 q 213 -7 288 -7 q 138 51 138 -7 l 138 911 q 213 968 138 968 q 288 911 288 968 l 288 569 l 999 951 q 1057 968 1029 968 q 1109 953 1090 968 q 1128 911 1128 939 q 1120 883 1128 897 q 1090 857 1113 868 l 378 489 l 1104 110 q 1140 83 1131 96 q 1149 51 1149 71 q 1128 8 1149 24 q 1071 -7 1108 -7 q 1046 -4 1060 -7 q 1013 11 1032 -1 l 288 401 m 579 1025 q 552 1007 564 1011 q 525 1003 540 1003 q 463 1051 463 1003 q 479 1086 463 1069 l 715 1329 q 775 1351 736 1351 q 854 1299 854 1351 q 849 1276 854 1285 q 832 1257 843 1267 l 579 1025 z "},"Ѝ":{"ha":1419,"x_min":138,"x_max":1282,"o":"m 138 0 m 469 1257 q 452 1275 458 1267 q 447 1299 446 1283 q 525 1351 447 1351 q 560 1347 544 1351 q 586 1329 575 1343 l 822 1088 q 839 1051 839 1067 q 776 1003 839 1003 q 749 1008 761 1003 q 722 1025 736 1013 l 469 1257 m 1132 765 l 289 25 q 256 1 271 10 q 217 -7 240 -7 q 138 51 138 -7 l 138 911 q 211 968 138 968 q 288 911 288 968 l 288 199 l 1131 938 q 1164 960 1147 953 q 1204 968 1181 968 q 1282 908 1282 968 l 1282 51 q 1206 -7 1282 -7 q 1132 51 1132 -7 l 1132 765 z "},"Ў":{"ha":1240,"x_min":67,"x_max":1171,"o":"m 67 0 m 944 1256 q 924 1160 944 1206 q 861 1081 903 1115 q 758 1026 819 1046 q 618 1006 697 1006 q 478 1026 539 1006 q 376 1081 418 1046 q 314 1160 335 1115 q 293 1256 293 1206 q 306 1301 293 1288 q 354 1314 318 1314 q 401 1303 388 1314 q 421 1272 414 1292 q 435 1213 426 1243 q 465 1158 444 1183 q 522 1117 486 1133 q 618 1101 558 1101 q 714 1117 678 1101 q 771 1158 750 1133 q 801 1213 792 1183 q 815 1272 810 1243 q 836 1303 822 1292 q 883 1314 850 1314 q 931 1301 918 1314 q 944 1256 944 1288 m 650 117 q 603 63 629 85 q 546 27 578 42 q 472 6 514 13 q 375 0 429 0 l 240 0 q 169 57 169 0 q 240 114 169 114 l 372 114 q 426 117 403 114 q 466 126 449 119 q 497 147 483 133 q 524 179 511 160 l 547 215 l 92 860 q 72 888 76 879 q 67 908 67 897 q 84 953 67 938 q 142 968 101 968 q 213 940 189 968 l 631 339 l 1025 932 q 1055 960 1039 951 q 1096 968 1071 968 q 1151 956 1132 968 q 1171 911 1171 943 q 1167 890 1171 900 q 1153 867 1164 881 l 650 117 z "},"Џ":{"ha":1401,"x_min":135,"x_max":1265,"o":"m 772 0 l 772 -185 q 704 -239 772 -239 q 633 -185 633 -239 l 633 0 l 542 0 q 135 272 135 0 l 135 910 q 210 968 135 968 q 285 910 285 968 l 285 276 q 549 114 285 114 l 851 114 q 1114 276 1114 114 l 1114 910 q 1190 968 1114 968 q 1265 910 1265 968 l 1265 272 q 858 0 1265 0 l 772 0 z "},"А":{"ha":1439,"x_min":78,"x_max":1363,"o":"m 78 0 m 1071 257 l 369 257 l 226 33 q 154 -7 200 -7 q 99 8 119 -7 q 78 50 78 22 q 81 70 78 61 q 93 93 83 79 l 643 931 q 676 958 656 950 q 719 968 696 967 q 793 931 768 968 l 1344 94 q 1359 71 1356 81 q 1363 50 1363 61 q 1342 8 1363 22 q 1286 -7 1321 -7 q 1215 33 1242 -7 l 1071 257 m 439 364 l 1003 364 l 719 803 l 439 364 z "},"Б":{"ha":1385,"x_min":138,"x_max":1286,"o":"m 138 689 q 544 961 138 961 l 1126 961 q 1196 904 1196 961 q 1126 847 1196 847 l 551 847 q 288 685 288 847 l 288 604 l 854 604 q 1286 336 1286 604 l 1286 268 q 854 0 1286 0 l 201 0 q 138 49 138 0 l 138 689 m 288 490 l 288 124 q 299 114 288 114 l 860 114 q 1136 272 1136 114 l 1136 332 q 857 490 1136 490 l 288 490 z "},"В":{"ha":1390,"x_min":138,"x_max":1275,"o":"m 138 0 m 1275 211 q 918 0 1275 0 l 204 0 q 138 54 138 0 l 138 907 q 204 961 138 961 l 896 961 q 1260 732 1260 961 l 1260 653 q 1144 488 1260 544 q 1275 308 1275 429 l 1275 211 m 1125 314 q 913 431 1125 431 l 288 431 l 288 124 q 299 114 288 114 l 913 114 q 1125 224 1125 114 l 1125 314 m 1111 728 q 897 847 1111 847 l 299 847 q 288 838 288 847 l 288 538 l 908 538 q 1111 650 1111 538 l 1111 728 z "},"Г":{"ha":1267,"x_min":138,"x_max":1196,"o":"m 551 847 q 288 685 288 847 l 288 51 q 211 -7 288 -7 q 138 51 138 -7 l 138 689 q 544 961 138 961 l 1126 961 q 1196 904 1196 961 q 1126 847 1196 847 l 551 847 z "},"Д":{"ha":1585,"x_min":71,"x_max":1514,"o":"m 71 57 q 140 114 71 114 l 172 114 q 268 120 231 114 q 331 144 306 126 q 371 192 356 161 q 400 271 386 222 q 423 371 411 311 q 447 494 435 431 q 472 620 460 558 q 499 726 485 682 q 543 831 517 786 q 607 904 569 875 q 695 947 644 933 q 815 961 746 961 l 1238 961 q 1314 904 1314 961 l 1314 114 l 1444 114 q 1514 60 1514 114 l 1514 -185 q 1446 -239 1514 -239 q 1375 -185 1375 -239 l 1375 0 l 210 0 l 210 -185 q 142 -239 210 -239 q 71 -185 71 -239 l 71 57 m 538 249 q 514 175 526 208 q 483 114 501 142 l 1164 114 l 1164 838 q 1153 847 1164 847 l 821 847 q 759 841 788 847 q 707 818 731 835 q 665 772 683 801 q 632 694 646 742 q 609 599 621 657 q 585 478 597 540 q 561 354 574 415 q 538 249 549 293 z "},"Е":{"ha":1290,"x_min":138,"x_max":1182,"o":"m 288 431 l 288 124 q 299 114 288 114 l 1111 114 q 1182 57 1182 114 q 1111 0 1182 0 l 206 0 q 138 49 138 0 l 138 913 q 201 961 138 961 l 732 961 q 801 904 801 961 q 732 847 801 847 l 299 847 q 288 839 288 847 l 288 539 l 1110 539 q 1178 485 1178 539 q 1110 431 1178 431 l 288 431 z "},"Ж":{"ha":1679,"x_min":103,"x_max":1578,"o":"m 768 386 l 233 11 q 204 -4 217 -1 q 183 -6 192 -7 q 124 11 146 -6 q 103 56 103 28 q 112 83 103 72 q 142 110 121 94 l 693 489 l 156 857 q 129 882 136 869 q 122 908 122 894 q 142 951 122 936 q 196 967 161 967 q 247 951 226 967 l 768 583 l 768 911 q 840 968 768 968 q 913 911 913 968 l 913 585 l 1433 953 q 1458 964 1444 961 q 1485 967 1471 967 q 1538 951 1518 967 q 1557 908 1557 936 q 1550 882 1557 894 q 1525 857 1543 869 l 986 489 l 1538 110 q 1568 83 1558 94 q 1578 56 1578 72 q 1556 11 1578 28 q 1497 -6 1533 -6 q 1476 -3 1488 -6 q 1447 11 1464 0 l 913 386 l 913 51 q 840 -7 913 -7 q 768 51 768 -7 l 768 386 z "},"З":{"ha":1392,"x_min":108,"x_max":1275,"o":"m 108 0 m 1275 211 q 919 0 1275 0 l 176 0 q 108 57 108 0 q 176 114 108 114 l 913 114 q 1125 224 1125 114 l 1125 313 q 913 429 1125 429 l 179 429 q 114 483 114 429 q 179 538 114 538 l 908 538 q 1111 650 1111 538 l 1111 728 q 899 847 1111 847 l 674 847 q 604 904 604 847 q 674 961 604 961 l 896 961 q 1261 732 1261 961 l 1261 653 q 1144 488 1261 543 q 1275 308 1275 429 l 1275 211 z "},"И":{"ha":1419,"x_min":138,"x_max":1282,"o":"m 1132 765 l 289 25 q 256 1 271 10 q 217 -7 240 -7 q 138 51 138 -7 l 138 911 q 211 968 138 968 q 288 911 288 968 l 288 199 l 1131 938 q 1164 960 1147 953 q 1204 968 1181 968 q 1282 908 1282 968 l 1282 51 q 1206 -7 1282 -7 q 1132 51 1132 -7 l 1132 765 z "},"Й":{"ha":1419,"x_min":138,"x_max":1282,"o":"m 138 0 m 1036 1256 q 1015 1160 1036 1206 q 953 1081 994 1115 q 850 1026 911 1046 q 710 1006 789 1006 q 570 1026 631 1006 q 468 1081 510 1046 q 406 1160 426 1115 q 385 1256 385 1206 q 397 1301 385 1288 q 446 1314 410 1314 q 492 1303 479 1314 q 513 1272 506 1292 q 527 1213 518 1243 q 557 1158 536 1183 q 614 1117 578 1133 q 710 1101 650 1101 q 806 1117 769 1101 q 863 1158 842 1133 q 892 1213 883 1183 q 907 1272 901 1243 q 928 1303 914 1292 q 975 1314 942 1314 q 1023 1301 1010 1314 q 1036 1256 1036 1288 m 1132 765 l 289 25 q 256 1 271 10 q 217 -7 240 -7 q 138 51 138 -7 l 138 911 q 211 968 138 968 q 288 911 288 968 l 288 199 l 1131 938 q 1164 960 1147 953 q 1204 968 1181 968 q 1282 908 1282 968 l 1282 51 q 1206 -7 1282 -7 q 1132 51 1132 -7 l 1132 765 z "}}}
